M48
; DRILL file {KiCad 8.0.8} date 2025-06-18T10:42:40+0900
; FORMAT={-:-/ absolute / inch / decimal}
; #@! TF.CreationDate,2025-06-18T10:42:40+09:00
; #@! TF.GenerationSoftware,Kicad,Pcbnew,8.0.8
; #@! TF.FileFunction,Plated,1,2,PTH
FMAT,2
INCH
; #@! TA.AperFunction,Plated,PTH,ViaDrill
T1C0.0118
; #@! TA.AperFunction,Plated,PTH,ComponentDrill
T2C0.0197
; #@! TA.AperFunction,Plated,PTH,ComponentDrill
T3C0.0236
; #@! TA.AperFunction,Plated,PTH,ComponentDrill
T4C0.0394
; #@! TA.AperFunction,Plated,PTH,ComponentDrill
T5C0.0512
; #@! TA.AperFunction,Plated,PTH,ComponentDrill
T6C0.1260
%
G90
G05
T1
X5.0413Y-4.2904
X5.2392Y-4.2904
X5.3622Y-4.1969
X5.5506Y-4.5456
X5.5807Y-3.9929
X5.7435Y-4.4876
X5.7681Y-4.5092
X5.8262Y-4.5998
X5.9029Y-4.0539
X5.9266Y-4.1868
X6.0165Y-4.4791
X6.1279Y-4.487
X6.3124Y-4.1746
X6.3695Y-3.962
T2
X4.2632Y-3.5388
X4.2632Y-4.7002
X4.2908Y-3.4719
X4.2908Y-3.6056
X4.2908Y-4.6334
X4.2908Y-4.767
X4.3577Y-3.4443
X4.3577Y-3.6332
X4.3577Y-4.6057
X4.3577Y-4.7947
X4.4245Y-3.4719
X4.4245Y-3.6056
X4.4245Y-4.6334
X4.4245Y-4.767
X4.4521Y-3.5388
X4.4521Y-4.7002
X6.901Y-3.5388
X6.901Y-4.7002
X6.9286Y-3.4719
X6.9286Y-3.6056
X6.9286Y-4.6334
X6.9286Y-4.767
X6.9954Y-3.4443
X6.9954Y-3.6332
X6.9954Y-4.6057
X6.9954Y-4.7947
X7.0623Y-3.4719
X7.0623Y-3.6056
X7.0623Y-4.6334
X7.0623Y-4.767
X7.0899Y-3.5388
X7.0899Y-4.7002
T4
X6.0962Y-4.7356
X6.1962Y-4.7356
X6.2962Y-4.7356
X6.3962Y-4.7356
T5
X4.7175Y-3.5388
X4.9175Y-3.5388
X5.1175Y-3.5388
X5.4766Y-3.5388
X5.6766Y-3.5388
X5.8766Y-3.5388
X6.2356Y-3.5388
X6.4356Y-3.5388
X6.6356Y-3.5388
T6
X4.3577Y-3.5388
X4.3577Y-4.7002
X6.9954Y-3.5388
X6.9954Y-4.7002
T3
G00X5.4829Y-4.6892
M15
G01X5.4829Y-4.7325
M16
G05
G00X5.4829Y-4.8596
M15
G01X5.4829Y-4.8911
M16
G05
G00X5.823Y-4.6892
M15
G01X5.823Y-4.7325
M16
G05
G00X5.823Y-4.8596
M15
G01X5.823Y-4.8911
M16
G05
M30
