%TF.GenerationSoftware,KiCad,Pcbnew,8.0.8*%
%TF.CreationDate,2025-06-06T07:34:51+09:00*%
%TF.ProjectId,fsk-traffic,66736b2d-7472-4616-9666-69632e6b6963,rev?*%
%TF.SameCoordinates,Original*%
%TF.FileFunction,Paste,Top*%
%TF.FilePolarity,Positive*%
%FSLAX46Y46*%
G04 Gerber Fmt 4.6, Leading zero omitted, Abs format (unit mm)*
G04 Created by KiCad (PCBNEW 8.0.8) date 2025-06-06 07:34:51*
%MOMM*%
%LPD*%
G01*
G04 APERTURE LIST*
G04 Aperture macros list*
%AMRoundRect*
0 Rectangle with rounded corners*
0 $1 Rounding radius*
0 $2 $3 $4 $5 $6 $7 $8 $9 X,Y pos of 4 corners*
0 Add a 4 corners polygon primitive as box body*
4,1,4,$2,$3,$4,$5,$6,$7,$8,$9,$2,$3,0*
0 Add four circle primitives for the rounded corners*
1,1,$1+$1,$2,$3*
1,1,$1+$1,$4,$5*
1,1,$1+$1,$6,$7*
1,1,$1+$1,$8,$9*
0 Add four rect primitives between the rounded corners*
20,1,$1+$1,$2,$3,$4,$5,0*
20,1,$1+$1,$4,$5,$6,$7,0*
20,1,$1+$1,$6,$7,$8,$9,0*
20,1,$1+$1,$8,$9,$2,$3,0*%
G04 Aperture macros list end*
%ADD10RoundRect,0.225000X-0.250000X0.225000X-0.250000X-0.225000X0.250000X-0.225000X0.250000X0.225000X0*%
%ADD11RoundRect,0.150000X0.150000X-0.587500X0.150000X0.587500X-0.150000X0.587500X-0.150000X-0.587500X0*%
%ADD12RoundRect,0.200000X-0.275000X0.200000X-0.275000X-0.200000X0.275000X-0.200000X0.275000X0.200000X0*%
%ADD13RoundRect,0.150000X-0.150000X0.512500X-0.150000X-0.512500X0.150000X-0.512500X0.150000X0.512500X0*%
%ADD14RoundRect,0.100000X-0.100000X0.637500X-0.100000X-0.637500X0.100000X-0.637500X0.100000X0.637500X0*%
%ADD15RoundRect,0.200000X-0.200000X-0.275000X0.200000X-0.275000X0.200000X0.275000X-0.200000X0.275000X0*%
%ADD16RoundRect,0.200000X0.200000X0.275000X-0.200000X0.275000X-0.200000X-0.275000X0.200000X-0.275000X0*%
%ADD17RoundRect,0.225000X0.250000X-0.225000X0.250000X0.225000X-0.250000X0.225000X-0.250000X-0.225000X0*%
%ADD18RoundRect,0.250000X0.475000X-0.250000X0.475000X0.250000X-0.475000X0.250000X-0.475000X-0.250000X0*%
%ADD19RoundRect,0.250000X0.250000X0.475000X-0.250000X0.475000X-0.250000X-0.475000X0.250000X-0.475000X0*%
%ADD20RoundRect,0.250000X1.500000X-0.925000X1.500000X0.925000X-1.500000X0.925000X-1.500000X-0.925000X0*%
%ADD21RoundRect,0.225000X-0.225000X-0.250000X0.225000X-0.250000X0.225000X0.250000X-0.225000X0.250000X0*%
%ADD22R,1.400000X1.200000*%
%ADD23RoundRect,0.250000X-0.650000X1.000000X-0.650000X-1.000000X0.650000X-1.000000X0.650000X1.000000X0*%
%ADD24RoundRect,0.150000X-0.150000X-0.425000X0.150000X-0.425000X0.150000X0.425000X-0.150000X0.425000X0*%
%ADD25RoundRect,0.075000X-0.075000X-0.500000X0.075000X-0.500000X0.075000X0.500000X-0.075000X0.500000X0*%
%ADD26O,1.000000X2.100000*%
%ADD27O,1.000000X1.800000*%
%ADD28RoundRect,0.218750X-0.218750X-0.256250X0.218750X-0.256250X0.218750X0.256250X-0.218750X0.256250X0*%
G04 APERTURE END LIST*
D10*
%TO.C,C1*%
X148709420Y-101419420D03*
X148709420Y-102969420D03*
%TD*%
D11*
%TO.C,Q3*%
X124750000Y-108975000D03*
X126650000Y-108975000D03*
X125700000Y-107100000D03*
%TD*%
D12*
%TO.C,R3*%
X142484420Y-115459420D03*
X142484420Y-117109420D03*
%TD*%
D13*
%TO.C,U1*%
X149859420Y-113069420D03*
X147959420Y-113069420D03*
X148909420Y-115344420D03*
%TD*%
D14*
%TO.C,U3*%
X146509420Y-106569420D03*
X145859420Y-106569420D03*
X145209420Y-106569420D03*
X144559420Y-106569420D03*
X143909420Y-106569420D03*
X143259420Y-106569420D03*
X142609420Y-106569420D03*
X141959420Y-106569420D03*
X141309420Y-106569420D03*
X140659420Y-106569420D03*
X140659420Y-112294420D03*
X141309420Y-112294420D03*
X141959420Y-112294420D03*
X142609420Y-112294420D03*
X143259420Y-112294420D03*
X143909420Y-112294420D03*
X144559420Y-112294420D03*
X145209420Y-112294420D03*
X145859420Y-112294420D03*
X146509420Y-112294420D03*
%TD*%
D15*
%TO.C,R13*%
X124075000Y-105100000D03*
X125725000Y-105100000D03*
%TD*%
D16*
%TO.C,R11*%
X125725000Y-103500000D03*
X124075000Y-103500000D03*
%TD*%
D17*
%TO.C,C3*%
X151584420Y-115319420D03*
X151584420Y-113769420D03*
%TD*%
D18*
%TO.C,C2*%
X161784420Y-103934420D03*
X161784420Y-102034420D03*
%TD*%
D19*
%TO.C,C6*%
X158734420Y-113969420D03*
X156834420Y-113969420D03*
%TD*%
D15*
%TO.C,R10*%
X126275000Y-111100000D03*
X127925000Y-111100000D03*
%TD*%
%TO.C,R6*%
X129175000Y-103500000D03*
X130825000Y-103500000D03*
%TD*%
D20*
%TO.C,L1*%
X165684420Y-113569420D03*
X165684420Y-107519420D03*
%TD*%
D12*
%TO.C,R4*%
X145284420Y-115459420D03*
X145284420Y-117109420D03*
%TD*%
D21*
%TO.C,C4*%
X147934420Y-111144420D03*
X149484420Y-111144420D03*
%TD*%
D16*
%TO.C,R8*%
X140534420Y-102944420D03*
X138884420Y-102944420D03*
%TD*%
D13*
%TO.C,U2*%
X160684420Y-109394420D03*
X159734420Y-109394420D03*
X158784420Y-109394420D03*
X158784420Y-111669420D03*
X159734420Y-111669420D03*
X160684420Y-111669420D03*
%TD*%
D15*
%TO.C,R12*%
X129165580Y-105100000D03*
X130815580Y-105100000D03*
%TD*%
D17*
%TO.C,C8*%
X149309420Y-107894420D03*
X149309420Y-106344420D03*
%TD*%
D22*
%TO.C,Y1*%
X144771920Y-103294420D03*
X146971920Y-103294420D03*
X146971920Y-101594420D03*
X144771920Y-101594420D03*
%TD*%
D23*
%TO.C,D1*%
X165684420Y-100269420D03*
X165684420Y-104269420D03*
%TD*%
D11*
%TO.C,Q2*%
X123934420Y-101584420D03*
X125834420Y-101584420D03*
X124884420Y-99709420D03*
%TD*%
D24*
%TO.C,J2*%
X140384420Y-119079420D03*
X141184420Y-119079420D03*
D25*
X142334420Y-119079420D03*
X143334420Y-119079420D03*
X143834420Y-119079420D03*
X144834420Y-119079420D03*
D24*
X145984420Y-119079420D03*
X146784420Y-119079420D03*
X146784420Y-119079420D03*
X145984420Y-119079420D03*
D25*
X145334420Y-119079420D03*
X144334420Y-119079420D03*
X142834420Y-119079420D03*
X141834420Y-119079420D03*
D24*
X141184420Y-119079420D03*
X140384420Y-119079420D03*
D26*
X139264420Y-119654420D03*
D27*
X139264420Y-123834420D03*
D26*
X147904420Y-119654420D03*
D27*
X147904420Y-123834420D03*
%TD*%
D11*
%TO.C,Q4*%
X129084420Y-101584420D03*
X130984420Y-101584420D03*
X130034420Y-99709420D03*
%TD*%
D15*
%TO.C,R2*%
X158684420Y-107394420D03*
X160334420Y-107394420D03*
%TD*%
D16*
%TO.C,R9*%
X140534420Y-101444420D03*
X138884420Y-101444420D03*
%TD*%
D12*
%TO.C,R5*%
X147809420Y-106269420D03*
X147809420Y-107919420D03*
%TD*%
D15*
%TO.C,R7*%
X131575000Y-111100000D03*
X133225000Y-111100000D03*
%TD*%
D11*
%TO.C,Q1*%
X129850000Y-108975000D03*
X131750000Y-108975000D03*
X130800000Y-107100000D03*
%TD*%
D28*
%TO.C,D2*%
X137209420Y-106584420D03*
X138784420Y-106584420D03*
%TD*%
D17*
%TO.C,C5*%
X143021920Y-102969420D03*
X143021920Y-101419420D03*
%TD*%
D12*
%TO.C,R1*%
X158784420Y-104019420D03*
X158784420Y-105669420D03*
%TD*%
D21*
%TO.C,C7*%
X147934420Y-109394420D03*
X149484420Y-109394420D03*
%TD*%
M02*
