%TF.GenerationSoftware,KiCad,Pcbnew,8.0.8*%
%TF.CreationDate,2025-06-06T06:09:44+09:00*%
%TF.ProjectId,fsk-traffic,66736b2d-7472-4616-9666-69632e6b6963,rev?*%
%TF.SameCoordinates,Original*%
%TF.FileFunction,Legend,Top*%
%TF.FilePolarity,Positive*%
%FSLAX46Y46*%
G04 Gerber Fmt 4.6, Leading zero omitted, Abs format (unit mm)*
G04 Created by KiCad (PCBNEW 8.0.8) date 2025-06-06 06:09:44*
%MOMM*%
%LPD*%
G01*
G04 APERTURE LIST*
G04 Aperture macros list*
%AMRoundRect*
0 Rectangle with rounded corners*
0 $1 Rounding radius*
0 $2 $3 $4 $5 $6 $7 $8 $9 X,Y pos of 4 corners*
0 Add a 4 corners polygon primitive as box body*
4,1,4,$2,$3,$4,$5,$6,$7,$8,$9,$2,$3,0*
0 Add four circle primitives for the rounded corners*
1,1,$1+$1,$2,$3*
1,1,$1+$1,$4,$5*
1,1,$1+$1,$6,$7*
1,1,$1+$1,$8,$9*
0 Add four rect primitives between the rounded corners*
20,1,$1+$1,$2,$3,$4,$5,0*
20,1,$1+$1,$4,$5,$6,$7,0*
20,1,$1+$1,$6,$7,$8,$9,0*
20,1,$1+$1,$8,$9,$2,$3,0*%
G04 Aperture macros list end*
%ADD10C,0.100000*%
%ADD11C,0.150000*%
%ADD12C,0.120000*%
%ADD13C,0.000000*%
%ADD14RoundRect,0.225000X-0.250000X0.225000X-0.250000X-0.225000X0.250000X-0.225000X0.250000X0.225000X0*%
%ADD15RoundRect,0.150000X0.150000X-0.587500X0.150000X0.587500X-0.150000X0.587500X-0.150000X-0.587500X0*%
%ADD16RoundRect,0.200000X-0.275000X0.200000X-0.275000X-0.200000X0.275000X-0.200000X0.275000X0.200000X0*%
%ADD17RoundRect,0.150000X-0.150000X0.512500X-0.150000X-0.512500X0.150000X-0.512500X0.150000X0.512500X0*%
%ADD18RoundRect,0.100000X-0.100000X0.637500X-0.100000X-0.637500X0.100000X-0.637500X0.100000X0.637500X0*%
%ADD19RoundRect,0.200000X0.200000X0.275000X-0.200000X0.275000X-0.200000X-0.275000X0.200000X-0.275000X0*%
%ADD20R,2.600000X2.600000*%
%ADD21C,2.600000*%
%ADD22RoundRect,0.225000X0.250000X-0.225000X0.250000X0.225000X-0.250000X0.225000X-0.250000X-0.225000X0*%
%ADD23RoundRect,0.250000X0.475000X-0.250000X0.475000X0.250000X-0.475000X0.250000X-0.475000X-0.250000X0*%
%ADD24RoundRect,0.250000X0.250000X0.475000X-0.250000X0.475000X-0.250000X-0.475000X0.250000X-0.475000X0*%
%ADD25RoundRect,0.200000X-0.200000X-0.275000X0.200000X-0.275000X0.200000X0.275000X-0.200000X0.275000X0*%
%ADD26RoundRect,0.250000X1.500000X-0.925000X1.500000X0.925000X-1.500000X0.925000X-1.500000X-0.925000X0*%
%ADD27RoundRect,0.225000X-0.225000X-0.250000X0.225000X-0.250000X0.225000X0.250000X-0.225000X0.250000X0*%
%ADD28C,0.800000*%
%ADD29C,6.400000*%
%ADD30R,1.400000X1.200000*%
%ADD31RoundRect,0.250000X-0.650000X1.000000X-0.650000X-1.000000X0.650000X-1.000000X0.650000X1.000000X0*%
%ADD32C,0.650000*%
%ADD33RoundRect,0.150000X-0.150000X-0.425000X0.150000X-0.425000X0.150000X0.425000X-0.150000X0.425000X0*%
%ADD34RoundRect,0.075000X-0.075000X-0.500000X0.075000X-0.500000X0.075000X0.500000X-0.075000X0.500000X0*%
%ADD35O,1.000000X2.100000*%
%ADD36O,1.000000X1.800000*%
%ADD37R,1.700000X1.700000*%
%ADD38O,1.700000X1.700000*%
%ADD39RoundRect,0.218750X-0.218750X-0.256250X0.218750X-0.256250X0.218750X0.256250X-0.218750X0.256250X0*%
G04 APERTURE END LIST*
D10*
X109800000Y-102150000D02*
X114800000Y-102150000D01*
X114800000Y-107150000D01*
X109800000Y-107150000D01*
X109800000Y-102150000D01*
G36*
X109800000Y-102150000D02*
G01*
X114800000Y-102150000D01*
X114800000Y-107150000D01*
X109800000Y-107150000D01*
X109800000Y-102150000D01*
G37*
X159045447Y-122894220D02*
X159116875Y-122918029D01*
X159116875Y-122918029D02*
X159235923Y-122918029D01*
X159235923Y-122918029D02*
X159283542Y-122894220D01*
X159283542Y-122894220D02*
X159307351Y-122870410D01*
X159307351Y-122870410D02*
X159331161Y-122822791D01*
X159331161Y-122822791D02*
X159331161Y-122775172D01*
X159331161Y-122775172D02*
X159307351Y-122727553D01*
X159307351Y-122727553D02*
X159283542Y-122703743D01*
X159283542Y-122703743D02*
X159235923Y-122679934D01*
X159235923Y-122679934D02*
X159140685Y-122656124D01*
X159140685Y-122656124D02*
X159093066Y-122632315D01*
X159093066Y-122632315D02*
X159069256Y-122608505D01*
X159069256Y-122608505D02*
X159045447Y-122560886D01*
X159045447Y-122560886D02*
X159045447Y-122513267D01*
X159045447Y-122513267D02*
X159069256Y-122465648D01*
X159069256Y-122465648D02*
X159093066Y-122441839D01*
X159093066Y-122441839D02*
X159140685Y-122418029D01*
X159140685Y-122418029D02*
X159259732Y-122418029D01*
X159259732Y-122418029D02*
X159331161Y-122441839D01*
X159497827Y-122418029D02*
X159616875Y-122918029D01*
X159616875Y-122918029D02*
X159712113Y-122560886D01*
X159712113Y-122560886D02*
X159807351Y-122918029D01*
X159807351Y-122918029D02*
X159926399Y-122418029D01*
X160116875Y-122918029D02*
X160116875Y-122418029D01*
X160116875Y-122418029D02*
X160235923Y-122418029D01*
X160235923Y-122418029D02*
X160307351Y-122441839D01*
X160307351Y-122441839D02*
X160354970Y-122489458D01*
X160354970Y-122489458D02*
X160378780Y-122537077D01*
X160378780Y-122537077D02*
X160402589Y-122632315D01*
X160402589Y-122632315D02*
X160402589Y-122703743D01*
X160402589Y-122703743D02*
X160378780Y-122798981D01*
X160378780Y-122798981D02*
X160354970Y-122846600D01*
X160354970Y-122846600D02*
X160307351Y-122894220D01*
X160307351Y-122894220D02*
X160235923Y-122918029D01*
X160235923Y-122918029D02*
X160116875Y-122918029D01*
X160616875Y-122918029D02*
X160616875Y-122418029D01*
X160950208Y-122418029D02*
X161045446Y-122418029D01*
X161045446Y-122418029D02*
X161093065Y-122441839D01*
X161093065Y-122441839D02*
X161140684Y-122489458D01*
X161140684Y-122489458D02*
X161164494Y-122584696D01*
X161164494Y-122584696D02*
X161164494Y-122751362D01*
X161164494Y-122751362D02*
X161140684Y-122846600D01*
X161140684Y-122846600D02*
X161093065Y-122894220D01*
X161093065Y-122894220D02*
X161045446Y-122918029D01*
X161045446Y-122918029D02*
X160950208Y-122918029D01*
X160950208Y-122918029D02*
X160902589Y-122894220D01*
X160902589Y-122894220D02*
X160854970Y-122846600D01*
X160854970Y-122846600D02*
X160831161Y-122751362D01*
X160831161Y-122751362D02*
X160831161Y-122584696D01*
X160831161Y-122584696D02*
X160854970Y-122489458D01*
X160854970Y-122489458D02*
X160902589Y-122441839D01*
X160902589Y-122441839D02*
X160950208Y-122418029D01*
X161921637Y-122418029D02*
X162231161Y-122418029D01*
X162231161Y-122418029D02*
X162064494Y-122608505D01*
X162064494Y-122608505D02*
X162135923Y-122608505D01*
X162135923Y-122608505D02*
X162183542Y-122632315D01*
X162183542Y-122632315D02*
X162207351Y-122656124D01*
X162207351Y-122656124D02*
X162231161Y-122703743D01*
X162231161Y-122703743D02*
X162231161Y-122822791D01*
X162231161Y-122822791D02*
X162207351Y-122870410D01*
X162207351Y-122870410D02*
X162183542Y-122894220D01*
X162183542Y-122894220D02*
X162135923Y-122918029D01*
X162135923Y-122918029D02*
X161993066Y-122918029D01*
X161993066Y-122918029D02*
X161945447Y-122894220D01*
X161945447Y-122894220D02*
X161921637Y-122870410D01*
X162374018Y-122418029D02*
X162540684Y-122918029D01*
X162540684Y-122918029D02*
X162707351Y-122418029D01*
X162826398Y-122418029D02*
X163135922Y-122418029D01*
X163135922Y-122418029D02*
X162969255Y-122608505D01*
X162969255Y-122608505D02*
X163040684Y-122608505D01*
X163040684Y-122608505D02*
X163088303Y-122632315D01*
X163088303Y-122632315D02*
X163112112Y-122656124D01*
X163112112Y-122656124D02*
X163135922Y-122703743D01*
X163135922Y-122703743D02*
X163135922Y-122822791D01*
X163135922Y-122822791D02*
X163112112Y-122870410D01*
X163112112Y-122870410D02*
X163088303Y-122894220D01*
X163088303Y-122894220D02*
X163040684Y-122918029D01*
X163040684Y-122918029D02*
X162897827Y-122918029D01*
X162897827Y-122918029D02*
X162850208Y-122894220D01*
X162850208Y-122894220D02*
X162826398Y-122870410D01*
X116420550Y-118915252D02*
X116420550Y-118265252D01*
X116699122Y-118915252D02*
X116699122Y-118574776D01*
X116699122Y-118574776D02*
X116668169Y-118512871D01*
X116668169Y-118512871D02*
X116606265Y-118481919D01*
X116606265Y-118481919D02*
X116513408Y-118481919D01*
X116513408Y-118481919D02*
X116451503Y-118512871D01*
X116451503Y-118512871D02*
X116420550Y-118543823D01*
X116915788Y-118481919D02*
X117163407Y-118481919D01*
X117008645Y-118265252D02*
X117008645Y-118822395D01*
X117008645Y-118822395D02*
X117039598Y-118884300D01*
X117039598Y-118884300D02*
X117101503Y-118915252D01*
X117101503Y-118915252D02*
X117163407Y-118915252D01*
X117287217Y-118481919D02*
X117534836Y-118481919D01*
X117380074Y-118265252D02*
X117380074Y-118822395D01*
X117380074Y-118822395D02*
X117411027Y-118884300D01*
X117411027Y-118884300D02*
X117472932Y-118915252D01*
X117472932Y-118915252D02*
X117534836Y-118915252D01*
X117751503Y-118481919D02*
X117751503Y-119131919D01*
X117751503Y-118512871D02*
X117813408Y-118481919D01*
X117813408Y-118481919D02*
X117937218Y-118481919D01*
X117937218Y-118481919D02*
X117999122Y-118512871D01*
X117999122Y-118512871D02*
X118030075Y-118543823D01*
X118030075Y-118543823D02*
X118061027Y-118605728D01*
X118061027Y-118605728D02*
X118061027Y-118791442D01*
X118061027Y-118791442D02*
X118030075Y-118853347D01*
X118030075Y-118853347D02*
X117999122Y-118884300D01*
X117999122Y-118884300D02*
X117937218Y-118915252D01*
X117937218Y-118915252D02*
X117813408Y-118915252D01*
X117813408Y-118915252D02*
X117751503Y-118884300D01*
X118308646Y-118884300D02*
X118370551Y-118915252D01*
X118370551Y-118915252D02*
X118494360Y-118915252D01*
X118494360Y-118915252D02*
X118556265Y-118884300D01*
X118556265Y-118884300D02*
X118587217Y-118822395D01*
X118587217Y-118822395D02*
X118587217Y-118791442D01*
X118587217Y-118791442D02*
X118556265Y-118729538D01*
X118556265Y-118729538D02*
X118494360Y-118698585D01*
X118494360Y-118698585D02*
X118401503Y-118698585D01*
X118401503Y-118698585D02*
X118339598Y-118667633D01*
X118339598Y-118667633D02*
X118308646Y-118605728D01*
X118308646Y-118605728D02*
X118308646Y-118574776D01*
X118308646Y-118574776D02*
X118339598Y-118512871D01*
X118339598Y-118512871D02*
X118401503Y-118481919D01*
X118401503Y-118481919D02*
X118494360Y-118481919D01*
X118494360Y-118481919D02*
X118556265Y-118512871D01*
X118865788Y-118853347D02*
X118896741Y-118884300D01*
X118896741Y-118884300D02*
X118865788Y-118915252D01*
X118865788Y-118915252D02*
X118834836Y-118884300D01*
X118834836Y-118884300D02*
X118865788Y-118853347D01*
X118865788Y-118853347D02*
X118865788Y-118915252D01*
X118865788Y-118512871D02*
X118896741Y-118543823D01*
X118896741Y-118543823D02*
X118865788Y-118574776D01*
X118865788Y-118574776D02*
X118834836Y-118543823D01*
X118834836Y-118543823D02*
X118865788Y-118512871D01*
X118865788Y-118512871D02*
X118865788Y-118574776D01*
X119639598Y-118234300D02*
X119082455Y-119070014D01*
X120320550Y-118234300D02*
X119763407Y-119070014D01*
X120815788Y-118481919D02*
X120815788Y-119008109D01*
X120815788Y-119008109D02*
X120784835Y-119070014D01*
X120784835Y-119070014D02*
X120753883Y-119100966D01*
X120753883Y-119100966D02*
X120691978Y-119131919D01*
X120691978Y-119131919D02*
X120599121Y-119131919D01*
X120599121Y-119131919D02*
X120537216Y-119100966D01*
X120815788Y-118884300D02*
X120753883Y-118915252D01*
X120753883Y-118915252D02*
X120630074Y-118915252D01*
X120630074Y-118915252D02*
X120568169Y-118884300D01*
X120568169Y-118884300D02*
X120537216Y-118853347D01*
X120537216Y-118853347D02*
X120506264Y-118791442D01*
X120506264Y-118791442D02*
X120506264Y-118605728D01*
X120506264Y-118605728D02*
X120537216Y-118543823D01*
X120537216Y-118543823D02*
X120568169Y-118512871D01*
X120568169Y-118512871D02*
X120630074Y-118481919D01*
X120630074Y-118481919D02*
X120753883Y-118481919D01*
X120753883Y-118481919D02*
X120815788Y-118512871D01*
X121125311Y-118915252D02*
X121125311Y-118481919D01*
X121125311Y-118265252D02*
X121094359Y-118296204D01*
X121094359Y-118296204D02*
X121125311Y-118327157D01*
X121125311Y-118327157D02*
X121156264Y-118296204D01*
X121156264Y-118296204D02*
X121125311Y-118265252D01*
X121125311Y-118265252D02*
X121125311Y-118327157D01*
X121341978Y-118481919D02*
X121589597Y-118481919D01*
X121434835Y-118265252D02*
X121434835Y-118822395D01*
X121434835Y-118822395D02*
X121465788Y-118884300D01*
X121465788Y-118884300D02*
X121527693Y-118915252D01*
X121527693Y-118915252D02*
X121589597Y-118915252D01*
X121806264Y-118915252D02*
X121806264Y-118265252D01*
X122084836Y-118915252D02*
X122084836Y-118574776D01*
X122084836Y-118574776D02*
X122053883Y-118512871D01*
X122053883Y-118512871D02*
X121991979Y-118481919D01*
X121991979Y-118481919D02*
X121899122Y-118481919D01*
X121899122Y-118481919D02*
X121837217Y-118512871D01*
X121837217Y-118512871D02*
X121806264Y-118543823D01*
X122672931Y-118481919D02*
X122672931Y-118915252D01*
X122394359Y-118481919D02*
X122394359Y-118822395D01*
X122394359Y-118822395D02*
X122425312Y-118884300D01*
X122425312Y-118884300D02*
X122487217Y-118915252D01*
X122487217Y-118915252D02*
X122580074Y-118915252D01*
X122580074Y-118915252D02*
X122641978Y-118884300D01*
X122641978Y-118884300D02*
X122672931Y-118853347D01*
X122982454Y-118915252D02*
X122982454Y-118265252D01*
X122982454Y-118512871D02*
X123044359Y-118481919D01*
X123044359Y-118481919D02*
X123168169Y-118481919D01*
X123168169Y-118481919D02*
X123230073Y-118512871D01*
X123230073Y-118512871D02*
X123261026Y-118543823D01*
X123261026Y-118543823D02*
X123291978Y-118605728D01*
X123291978Y-118605728D02*
X123291978Y-118791442D01*
X123291978Y-118791442D02*
X123261026Y-118853347D01*
X123261026Y-118853347D02*
X123230073Y-118884300D01*
X123230073Y-118884300D02*
X123168169Y-118915252D01*
X123168169Y-118915252D02*
X123044359Y-118915252D01*
X123044359Y-118915252D02*
X122982454Y-118884300D01*
X123570549Y-118853347D02*
X123601502Y-118884300D01*
X123601502Y-118884300D02*
X123570549Y-118915252D01*
X123570549Y-118915252D02*
X123539597Y-118884300D01*
X123539597Y-118884300D02*
X123570549Y-118853347D01*
X123570549Y-118853347D02*
X123570549Y-118915252D01*
X124158645Y-118884300D02*
X124096740Y-118915252D01*
X124096740Y-118915252D02*
X123972931Y-118915252D01*
X123972931Y-118915252D02*
X123911026Y-118884300D01*
X123911026Y-118884300D02*
X123880073Y-118853347D01*
X123880073Y-118853347D02*
X123849121Y-118791442D01*
X123849121Y-118791442D02*
X123849121Y-118605728D01*
X123849121Y-118605728D02*
X123880073Y-118543823D01*
X123880073Y-118543823D02*
X123911026Y-118512871D01*
X123911026Y-118512871D02*
X123972931Y-118481919D01*
X123972931Y-118481919D02*
X124096740Y-118481919D01*
X124096740Y-118481919D02*
X124158645Y-118512871D01*
X124530074Y-118915252D02*
X124468169Y-118884300D01*
X124468169Y-118884300D02*
X124437216Y-118853347D01*
X124437216Y-118853347D02*
X124406264Y-118791442D01*
X124406264Y-118791442D02*
X124406264Y-118605728D01*
X124406264Y-118605728D02*
X124437216Y-118543823D01*
X124437216Y-118543823D02*
X124468169Y-118512871D01*
X124468169Y-118512871D02*
X124530074Y-118481919D01*
X124530074Y-118481919D02*
X124622931Y-118481919D01*
X124622931Y-118481919D02*
X124684835Y-118512871D01*
X124684835Y-118512871D02*
X124715788Y-118543823D01*
X124715788Y-118543823D02*
X124746740Y-118605728D01*
X124746740Y-118605728D02*
X124746740Y-118791442D01*
X124746740Y-118791442D02*
X124715788Y-118853347D01*
X124715788Y-118853347D02*
X124684835Y-118884300D01*
X124684835Y-118884300D02*
X124622931Y-118915252D01*
X124622931Y-118915252D02*
X124530074Y-118915252D01*
X125025311Y-118915252D02*
X125025311Y-118481919D01*
X125025311Y-118543823D02*
X125056264Y-118512871D01*
X125056264Y-118512871D02*
X125118169Y-118481919D01*
X125118169Y-118481919D02*
X125211026Y-118481919D01*
X125211026Y-118481919D02*
X125272930Y-118512871D01*
X125272930Y-118512871D02*
X125303883Y-118574776D01*
X125303883Y-118574776D02*
X125303883Y-118915252D01*
X125303883Y-118574776D02*
X125334835Y-118512871D01*
X125334835Y-118512871D02*
X125396740Y-118481919D01*
X125396740Y-118481919D02*
X125489597Y-118481919D01*
X125489597Y-118481919D02*
X125551502Y-118512871D01*
X125551502Y-118512871D02*
X125582454Y-118574776D01*
X125582454Y-118574776D02*
X125582454Y-118915252D01*
X126356264Y-118234300D02*
X125799121Y-119070014D01*
X126665788Y-118915252D02*
X126603883Y-118884300D01*
X126603883Y-118884300D02*
X126572930Y-118822395D01*
X126572930Y-118822395D02*
X126572930Y-118265252D01*
X127191978Y-118481919D02*
X127191978Y-118915252D01*
X126913406Y-118481919D02*
X126913406Y-118822395D01*
X126913406Y-118822395D02*
X126944359Y-118884300D01*
X126944359Y-118884300D02*
X127006264Y-118915252D01*
X127006264Y-118915252D02*
X127099121Y-118915252D01*
X127099121Y-118915252D02*
X127161025Y-118884300D01*
X127161025Y-118884300D02*
X127191978Y-118853347D01*
X127408644Y-118481919D02*
X127656263Y-118481919D01*
X127501501Y-118915252D02*
X127501501Y-118358109D01*
X127501501Y-118358109D02*
X127532454Y-118296204D01*
X127532454Y-118296204D02*
X127594359Y-118265252D01*
X127594359Y-118265252D02*
X127656263Y-118265252D01*
X127780073Y-118481919D02*
X128027692Y-118481919D01*
X127872930Y-118265252D02*
X127872930Y-118822395D01*
X127872930Y-118822395D02*
X127903883Y-118884300D01*
X127903883Y-118884300D02*
X127965788Y-118915252D01*
X127965788Y-118915252D02*
X128027692Y-118915252D01*
X128522931Y-118915252D02*
X128522931Y-118574776D01*
X128522931Y-118574776D02*
X128491978Y-118512871D01*
X128491978Y-118512871D02*
X128430074Y-118481919D01*
X128430074Y-118481919D02*
X128306264Y-118481919D01*
X128306264Y-118481919D02*
X128244359Y-118512871D01*
X128522931Y-118884300D02*
X128461026Y-118915252D01*
X128461026Y-118915252D02*
X128306264Y-118915252D01*
X128306264Y-118915252D02*
X128244359Y-118884300D01*
X128244359Y-118884300D02*
X128213407Y-118822395D01*
X128213407Y-118822395D02*
X128213407Y-118760490D01*
X128213407Y-118760490D02*
X128244359Y-118698585D01*
X128244359Y-118698585D02*
X128306264Y-118667633D01*
X128306264Y-118667633D02*
X128461026Y-118667633D01*
X128461026Y-118667633D02*
X128522931Y-118636680D01*
X129111026Y-118481919D02*
X129111026Y-119131919D01*
X129111026Y-118884300D02*
X129049121Y-118915252D01*
X129049121Y-118915252D02*
X128925312Y-118915252D01*
X128925312Y-118915252D02*
X128863407Y-118884300D01*
X128863407Y-118884300D02*
X128832454Y-118853347D01*
X128832454Y-118853347D02*
X128801502Y-118791442D01*
X128801502Y-118791442D02*
X128801502Y-118605728D01*
X128801502Y-118605728D02*
X128832454Y-118543823D01*
X128832454Y-118543823D02*
X128863407Y-118512871D01*
X128863407Y-118512871D02*
X128925312Y-118481919D01*
X128925312Y-118481919D02*
X129049121Y-118481919D01*
X129049121Y-118481919D02*
X129111026Y-118512871D01*
X129699121Y-118481919D02*
X129699121Y-118915252D01*
X129420549Y-118481919D02*
X129420549Y-118822395D01*
X129420549Y-118822395D02*
X129451502Y-118884300D01*
X129451502Y-118884300D02*
X129513407Y-118915252D01*
X129513407Y-118915252D02*
X129606264Y-118915252D01*
X129606264Y-118915252D02*
X129668168Y-118884300D01*
X129668168Y-118884300D02*
X129699121Y-118853347D01*
X130008644Y-118915252D02*
X130008644Y-118481919D01*
X130008644Y-118265252D02*
X129977692Y-118296204D01*
X129977692Y-118296204D02*
X130008644Y-118327157D01*
X130008644Y-118327157D02*
X130039597Y-118296204D01*
X130039597Y-118296204D02*
X130008644Y-118265252D01*
X130008644Y-118265252D02*
X130008644Y-118327157D01*
X130411026Y-118915252D02*
X130349121Y-118884300D01*
X130349121Y-118884300D02*
X130318168Y-118822395D01*
X130318168Y-118822395D02*
X130318168Y-118265252D01*
X130937216Y-118915252D02*
X130937216Y-118574776D01*
X130937216Y-118574776D02*
X130906263Y-118512871D01*
X130906263Y-118512871D02*
X130844359Y-118481919D01*
X130844359Y-118481919D02*
X130720549Y-118481919D01*
X130720549Y-118481919D02*
X130658644Y-118512871D01*
X130937216Y-118884300D02*
X130875311Y-118915252D01*
X130875311Y-118915252D02*
X130720549Y-118915252D01*
X130720549Y-118915252D02*
X130658644Y-118884300D01*
X130658644Y-118884300D02*
X130627692Y-118822395D01*
X130627692Y-118822395D02*
X130627692Y-118760490D01*
X130627692Y-118760490D02*
X130658644Y-118698585D01*
X130658644Y-118698585D02*
X130720549Y-118667633D01*
X130720549Y-118667633D02*
X130875311Y-118667633D01*
X130875311Y-118667633D02*
X130937216Y-118636680D01*
X131711025Y-118234300D02*
X131153882Y-119070014D01*
X131834834Y-118481919D02*
X132082453Y-118481919D01*
X131927691Y-118915252D02*
X131927691Y-118358109D01*
X131927691Y-118358109D02*
X131958644Y-118296204D01*
X131958644Y-118296204D02*
X132020549Y-118265252D01*
X132020549Y-118265252D02*
X132082453Y-118265252D01*
X132268168Y-118884300D02*
X132330073Y-118915252D01*
X132330073Y-118915252D02*
X132453882Y-118915252D01*
X132453882Y-118915252D02*
X132515787Y-118884300D01*
X132515787Y-118884300D02*
X132546739Y-118822395D01*
X132546739Y-118822395D02*
X132546739Y-118791442D01*
X132546739Y-118791442D02*
X132515787Y-118729538D01*
X132515787Y-118729538D02*
X132453882Y-118698585D01*
X132453882Y-118698585D02*
X132361025Y-118698585D01*
X132361025Y-118698585D02*
X132299120Y-118667633D01*
X132299120Y-118667633D02*
X132268168Y-118605728D01*
X132268168Y-118605728D02*
X132268168Y-118574776D01*
X132268168Y-118574776D02*
X132299120Y-118512871D01*
X132299120Y-118512871D02*
X132361025Y-118481919D01*
X132361025Y-118481919D02*
X132453882Y-118481919D01*
X132453882Y-118481919D02*
X132515787Y-118512871D01*
X132825310Y-118915252D02*
X132825310Y-118265252D01*
X132887215Y-118667633D02*
X133072929Y-118915252D01*
X133072929Y-118481919D02*
X132825310Y-118729538D01*
X133351500Y-118667633D02*
X133846739Y-118667633D01*
X134063405Y-118481919D02*
X134311024Y-118481919D01*
X134156262Y-118265252D02*
X134156262Y-118822395D01*
X134156262Y-118822395D02*
X134187215Y-118884300D01*
X134187215Y-118884300D02*
X134249120Y-118915252D01*
X134249120Y-118915252D02*
X134311024Y-118915252D01*
X134527691Y-118915252D02*
X134527691Y-118481919D01*
X134527691Y-118605728D02*
X134558644Y-118543823D01*
X134558644Y-118543823D02*
X134589596Y-118512871D01*
X134589596Y-118512871D02*
X134651501Y-118481919D01*
X134651501Y-118481919D02*
X134713406Y-118481919D01*
X135208644Y-118915252D02*
X135208644Y-118574776D01*
X135208644Y-118574776D02*
X135177691Y-118512871D01*
X135177691Y-118512871D02*
X135115787Y-118481919D01*
X135115787Y-118481919D02*
X134991977Y-118481919D01*
X134991977Y-118481919D02*
X134930072Y-118512871D01*
X135208644Y-118884300D02*
X135146739Y-118915252D01*
X135146739Y-118915252D02*
X134991977Y-118915252D01*
X134991977Y-118915252D02*
X134930072Y-118884300D01*
X134930072Y-118884300D02*
X134899120Y-118822395D01*
X134899120Y-118822395D02*
X134899120Y-118760490D01*
X134899120Y-118760490D02*
X134930072Y-118698585D01*
X134930072Y-118698585D02*
X134991977Y-118667633D01*
X134991977Y-118667633D02*
X135146739Y-118667633D01*
X135146739Y-118667633D02*
X135208644Y-118636680D01*
X135425310Y-118481919D02*
X135672929Y-118481919D01*
X135518167Y-118915252D02*
X135518167Y-118358109D01*
X135518167Y-118358109D02*
X135549120Y-118296204D01*
X135549120Y-118296204D02*
X135611025Y-118265252D01*
X135611025Y-118265252D02*
X135672929Y-118265252D01*
X135796739Y-118481919D02*
X136044358Y-118481919D01*
X135889596Y-118915252D02*
X135889596Y-118358109D01*
X135889596Y-118358109D02*
X135920549Y-118296204D01*
X135920549Y-118296204D02*
X135982454Y-118265252D01*
X135982454Y-118265252D02*
X136044358Y-118265252D01*
X136261025Y-118915252D02*
X136261025Y-118481919D01*
X136261025Y-118265252D02*
X136230073Y-118296204D01*
X136230073Y-118296204D02*
X136261025Y-118327157D01*
X136261025Y-118327157D02*
X136291978Y-118296204D01*
X136291978Y-118296204D02*
X136261025Y-118265252D01*
X136261025Y-118265252D02*
X136261025Y-118327157D01*
X136849121Y-118884300D02*
X136787216Y-118915252D01*
X136787216Y-118915252D02*
X136663407Y-118915252D01*
X136663407Y-118915252D02*
X136601502Y-118884300D01*
X136601502Y-118884300D02*
X136570549Y-118853347D01*
X136570549Y-118853347D02*
X136539597Y-118791442D01*
X136539597Y-118791442D02*
X136539597Y-118605728D01*
X136539597Y-118605728D02*
X136570549Y-118543823D01*
X136570549Y-118543823D02*
X136601502Y-118512871D01*
X136601502Y-118512871D02*
X136663407Y-118481919D01*
X136663407Y-118481919D02*
X136787216Y-118481919D01*
X136787216Y-118481919D02*
X136849121Y-118512871D01*
X156145447Y-122894220D02*
X156216875Y-122918029D01*
X156216875Y-122918029D02*
X156335923Y-122918029D01*
X156335923Y-122918029D02*
X156383542Y-122894220D01*
X156383542Y-122894220D02*
X156407351Y-122870410D01*
X156407351Y-122870410D02*
X156431161Y-122822791D01*
X156431161Y-122822791D02*
X156431161Y-122775172D01*
X156431161Y-122775172D02*
X156407351Y-122727553D01*
X156407351Y-122727553D02*
X156383542Y-122703743D01*
X156383542Y-122703743D02*
X156335923Y-122679934D01*
X156335923Y-122679934D02*
X156240685Y-122656124D01*
X156240685Y-122656124D02*
X156193066Y-122632315D01*
X156193066Y-122632315D02*
X156169256Y-122608505D01*
X156169256Y-122608505D02*
X156145447Y-122560886D01*
X156145447Y-122560886D02*
X156145447Y-122513267D01*
X156145447Y-122513267D02*
X156169256Y-122465648D01*
X156169256Y-122465648D02*
X156193066Y-122441839D01*
X156193066Y-122441839D02*
X156240685Y-122418029D01*
X156240685Y-122418029D02*
X156359732Y-122418029D01*
X156359732Y-122418029D02*
X156431161Y-122441839D01*
X156597827Y-122418029D02*
X156716875Y-122918029D01*
X156716875Y-122918029D02*
X156812113Y-122560886D01*
X156812113Y-122560886D02*
X156907351Y-122918029D01*
X156907351Y-122918029D02*
X157026399Y-122418029D01*
X157502589Y-122870410D02*
X157478780Y-122894220D01*
X157478780Y-122894220D02*
X157407351Y-122918029D01*
X157407351Y-122918029D02*
X157359732Y-122918029D01*
X157359732Y-122918029D02*
X157288304Y-122894220D01*
X157288304Y-122894220D02*
X157240685Y-122846600D01*
X157240685Y-122846600D02*
X157216875Y-122798981D01*
X157216875Y-122798981D02*
X157193066Y-122703743D01*
X157193066Y-122703743D02*
X157193066Y-122632315D01*
X157193066Y-122632315D02*
X157216875Y-122537077D01*
X157216875Y-122537077D02*
X157240685Y-122489458D01*
X157240685Y-122489458D02*
X157288304Y-122441839D01*
X157288304Y-122441839D02*
X157359732Y-122418029D01*
X157359732Y-122418029D02*
X157407351Y-122418029D01*
X157407351Y-122418029D02*
X157478780Y-122441839D01*
X157478780Y-122441839D02*
X157502589Y-122465648D01*
X157954970Y-122918029D02*
X157716875Y-122918029D01*
X157716875Y-122918029D02*
X157716875Y-122418029D01*
X158121637Y-122918029D02*
X158121637Y-122418029D01*
X158407351Y-122918029D02*
X158193066Y-122632315D01*
X158407351Y-122418029D02*
X158121637Y-122703743D01*
X155964494Y-96677220D02*
X156050209Y-96705791D01*
X156050209Y-96705791D02*
X156193066Y-96705791D01*
X156193066Y-96705791D02*
X156250209Y-96677220D01*
X156250209Y-96677220D02*
X156278780Y-96648648D01*
X156278780Y-96648648D02*
X156307351Y-96591505D01*
X156307351Y-96591505D02*
X156307351Y-96534362D01*
X156307351Y-96534362D02*
X156278780Y-96477220D01*
X156278780Y-96477220D02*
X156250209Y-96448648D01*
X156250209Y-96448648D02*
X156193066Y-96420077D01*
X156193066Y-96420077D02*
X156078780Y-96391505D01*
X156078780Y-96391505D02*
X156021637Y-96362934D01*
X156021637Y-96362934D02*
X155993066Y-96334362D01*
X155993066Y-96334362D02*
X155964494Y-96277220D01*
X155964494Y-96277220D02*
X155964494Y-96220077D01*
X155964494Y-96220077D02*
X155993066Y-96162934D01*
X155993066Y-96162934D02*
X156021637Y-96134362D01*
X156021637Y-96134362D02*
X156078780Y-96105791D01*
X156078780Y-96105791D02*
X156221637Y-96105791D01*
X156221637Y-96105791D02*
X156307351Y-96134362D01*
X156564495Y-96391505D02*
X156764495Y-96391505D01*
X156850209Y-96705791D02*
X156564495Y-96705791D01*
X156564495Y-96705791D02*
X156564495Y-96105791D01*
X156564495Y-96105791D02*
X156850209Y-96105791D01*
X157107352Y-96705791D02*
X157107352Y-96105791D01*
X157107352Y-96105791D02*
X157450209Y-96705791D01*
X157450209Y-96705791D02*
X157450209Y-96105791D01*
X157707351Y-96677220D02*
X157793066Y-96705791D01*
X157793066Y-96705791D02*
X157935923Y-96705791D01*
X157935923Y-96705791D02*
X157993066Y-96677220D01*
X157993066Y-96677220D02*
X158021637Y-96648648D01*
X158021637Y-96648648D02*
X158050208Y-96591505D01*
X158050208Y-96591505D02*
X158050208Y-96534362D01*
X158050208Y-96534362D02*
X158021637Y-96477220D01*
X158021637Y-96477220D02*
X157993066Y-96448648D01*
X157993066Y-96448648D02*
X157935923Y-96420077D01*
X157935923Y-96420077D02*
X157821637Y-96391505D01*
X157821637Y-96391505D02*
X157764494Y-96362934D01*
X157764494Y-96362934D02*
X157735923Y-96334362D01*
X157735923Y-96334362D02*
X157707351Y-96277220D01*
X157707351Y-96277220D02*
X157707351Y-96220077D01*
X157707351Y-96220077D02*
X157735923Y-96162934D01*
X157735923Y-96162934D02*
X157764494Y-96134362D01*
X157764494Y-96134362D02*
X157821637Y-96105791D01*
X157821637Y-96105791D02*
X157964494Y-96105791D01*
X157964494Y-96105791D02*
X158050208Y-96134362D01*
X158421637Y-96105791D02*
X158535923Y-96105791D01*
X158535923Y-96105791D02*
X158593066Y-96134362D01*
X158593066Y-96134362D02*
X158650209Y-96191505D01*
X158650209Y-96191505D02*
X158678780Y-96305791D01*
X158678780Y-96305791D02*
X158678780Y-96505791D01*
X158678780Y-96505791D02*
X158650209Y-96620077D01*
X158650209Y-96620077D02*
X158593066Y-96677220D01*
X158593066Y-96677220D02*
X158535923Y-96705791D01*
X158535923Y-96705791D02*
X158421637Y-96705791D01*
X158421637Y-96705791D02*
X158364495Y-96677220D01*
X158364495Y-96677220D02*
X158307352Y-96620077D01*
X158307352Y-96620077D02*
X158278780Y-96505791D01*
X158278780Y-96505791D02*
X158278780Y-96305791D01*
X158278780Y-96305791D02*
X158307352Y-96191505D01*
X158307352Y-96191505D02*
X158364495Y-96134362D01*
X158364495Y-96134362D02*
X158421637Y-96105791D01*
X159278780Y-96705791D02*
X159078780Y-96420077D01*
X158935923Y-96705791D02*
X158935923Y-96105791D01*
X158935923Y-96105791D02*
X159164494Y-96105791D01*
X159164494Y-96105791D02*
X159221637Y-96134362D01*
X159221637Y-96134362D02*
X159250208Y-96162934D01*
X159250208Y-96162934D02*
X159278780Y-96220077D01*
X159278780Y-96220077D02*
X159278780Y-96305791D01*
X159278780Y-96305791D02*
X159250208Y-96362934D01*
X159250208Y-96362934D02*
X159221637Y-96391505D01*
X159221637Y-96391505D02*
X159164494Y-96420077D01*
X159164494Y-96420077D02*
X158935923Y-96420077D01*
X160307351Y-96705791D02*
X159964494Y-96705791D01*
X160135923Y-96705791D02*
X160135923Y-96105791D01*
X160135923Y-96105791D02*
X160078780Y-96191505D01*
X160078780Y-96191505D02*
X160021637Y-96248648D01*
X160021637Y-96248648D02*
X159964494Y-96277220D01*
X154531161Y-122441839D02*
X154483542Y-122418029D01*
X154483542Y-122418029D02*
X154412113Y-122418029D01*
X154412113Y-122418029D02*
X154340685Y-122441839D01*
X154340685Y-122441839D02*
X154293066Y-122489458D01*
X154293066Y-122489458D02*
X154269256Y-122537077D01*
X154269256Y-122537077D02*
X154245447Y-122632315D01*
X154245447Y-122632315D02*
X154245447Y-122703743D01*
X154245447Y-122703743D02*
X154269256Y-122798981D01*
X154269256Y-122798981D02*
X154293066Y-122846600D01*
X154293066Y-122846600D02*
X154340685Y-122894220D01*
X154340685Y-122894220D02*
X154412113Y-122918029D01*
X154412113Y-122918029D02*
X154459732Y-122918029D01*
X154459732Y-122918029D02*
X154531161Y-122894220D01*
X154531161Y-122894220D02*
X154554970Y-122870410D01*
X154554970Y-122870410D02*
X154554970Y-122703743D01*
X154554970Y-122703743D02*
X154459732Y-122703743D01*
X154769256Y-122918029D02*
X154769256Y-122418029D01*
X154769256Y-122418029D02*
X155054970Y-122918029D01*
X155054970Y-122918029D02*
X155054970Y-122418029D01*
X155293066Y-122918029D02*
X155293066Y-122418029D01*
X155293066Y-122418029D02*
X155412114Y-122418029D01*
X155412114Y-122418029D02*
X155483542Y-122441839D01*
X155483542Y-122441839D02*
X155531161Y-122489458D01*
X155531161Y-122489458D02*
X155554971Y-122537077D01*
X155554971Y-122537077D02*
X155578780Y-122632315D01*
X155578780Y-122632315D02*
X155578780Y-122703743D01*
X155578780Y-122703743D02*
X155554971Y-122798981D01*
X155554971Y-122798981D02*
X155531161Y-122846600D01*
X155531161Y-122846600D02*
X155483542Y-122894220D01*
X155483542Y-122894220D02*
X155412114Y-122918029D01*
X155412114Y-122918029D02*
X155293066Y-122918029D01*
X136664494Y-96677220D02*
X136750209Y-96705791D01*
X136750209Y-96705791D02*
X136893066Y-96705791D01*
X136893066Y-96705791D02*
X136950209Y-96677220D01*
X136950209Y-96677220D02*
X136978780Y-96648648D01*
X136978780Y-96648648D02*
X137007351Y-96591505D01*
X137007351Y-96591505D02*
X137007351Y-96534362D01*
X137007351Y-96534362D02*
X136978780Y-96477220D01*
X136978780Y-96477220D02*
X136950209Y-96448648D01*
X136950209Y-96448648D02*
X136893066Y-96420077D01*
X136893066Y-96420077D02*
X136778780Y-96391505D01*
X136778780Y-96391505D02*
X136721637Y-96362934D01*
X136721637Y-96362934D02*
X136693066Y-96334362D01*
X136693066Y-96334362D02*
X136664494Y-96277220D01*
X136664494Y-96277220D02*
X136664494Y-96220077D01*
X136664494Y-96220077D02*
X136693066Y-96162934D01*
X136693066Y-96162934D02*
X136721637Y-96134362D01*
X136721637Y-96134362D02*
X136778780Y-96105791D01*
X136778780Y-96105791D02*
X136921637Y-96105791D01*
X136921637Y-96105791D02*
X137007351Y-96134362D01*
X137264495Y-96391505D02*
X137464495Y-96391505D01*
X137550209Y-96705791D02*
X137264495Y-96705791D01*
X137264495Y-96705791D02*
X137264495Y-96105791D01*
X137264495Y-96105791D02*
X137550209Y-96105791D01*
X137807352Y-96705791D02*
X137807352Y-96105791D01*
X137807352Y-96105791D02*
X138150209Y-96705791D01*
X138150209Y-96705791D02*
X138150209Y-96105791D01*
X138407351Y-96677220D02*
X138493066Y-96705791D01*
X138493066Y-96705791D02*
X138635923Y-96705791D01*
X138635923Y-96705791D02*
X138693066Y-96677220D01*
X138693066Y-96677220D02*
X138721637Y-96648648D01*
X138721637Y-96648648D02*
X138750208Y-96591505D01*
X138750208Y-96591505D02*
X138750208Y-96534362D01*
X138750208Y-96534362D02*
X138721637Y-96477220D01*
X138721637Y-96477220D02*
X138693066Y-96448648D01*
X138693066Y-96448648D02*
X138635923Y-96420077D01*
X138635923Y-96420077D02*
X138521637Y-96391505D01*
X138521637Y-96391505D02*
X138464494Y-96362934D01*
X138464494Y-96362934D02*
X138435923Y-96334362D01*
X138435923Y-96334362D02*
X138407351Y-96277220D01*
X138407351Y-96277220D02*
X138407351Y-96220077D01*
X138407351Y-96220077D02*
X138435923Y-96162934D01*
X138435923Y-96162934D02*
X138464494Y-96134362D01*
X138464494Y-96134362D02*
X138521637Y-96105791D01*
X138521637Y-96105791D02*
X138664494Y-96105791D01*
X138664494Y-96105791D02*
X138750208Y-96134362D01*
X139121637Y-96105791D02*
X139235923Y-96105791D01*
X139235923Y-96105791D02*
X139293066Y-96134362D01*
X139293066Y-96134362D02*
X139350209Y-96191505D01*
X139350209Y-96191505D02*
X139378780Y-96305791D01*
X139378780Y-96305791D02*
X139378780Y-96505791D01*
X139378780Y-96505791D02*
X139350209Y-96620077D01*
X139350209Y-96620077D02*
X139293066Y-96677220D01*
X139293066Y-96677220D02*
X139235923Y-96705791D01*
X139235923Y-96705791D02*
X139121637Y-96705791D01*
X139121637Y-96705791D02*
X139064495Y-96677220D01*
X139064495Y-96677220D02*
X139007352Y-96620077D01*
X139007352Y-96620077D02*
X138978780Y-96505791D01*
X138978780Y-96505791D02*
X138978780Y-96305791D01*
X138978780Y-96305791D02*
X139007352Y-96191505D01*
X139007352Y-96191505D02*
X139064495Y-96134362D01*
X139064495Y-96134362D02*
X139121637Y-96105791D01*
X139978780Y-96705791D02*
X139778780Y-96420077D01*
X139635923Y-96705791D02*
X139635923Y-96105791D01*
X139635923Y-96105791D02*
X139864494Y-96105791D01*
X139864494Y-96105791D02*
X139921637Y-96134362D01*
X139921637Y-96134362D02*
X139950208Y-96162934D01*
X139950208Y-96162934D02*
X139978780Y-96220077D01*
X139978780Y-96220077D02*
X139978780Y-96305791D01*
X139978780Y-96305791D02*
X139950208Y-96362934D01*
X139950208Y-96362934D02*
X139921637Y-96391505D01*
X139921637Y-96391505D02*
X139864494Y-96420077D01*
X139864494Y-96420077D02*
X139635923Y-96420077D01*
X140664494Y-96162934D02*
X140693066Y-96134362D01*
X140693066Y-96134362D02*
X140750209Y-96105791D01*
X140750209Y-96105791D02*
X140893066Y-96105791D01*
X140893066Y-96105791D02*
X140950209Y-96134362D01*
X140950209Y-96134362D02*
X140978780Y-96162934D01*
X140978780Y-96162934D02*
X141007351Y-96220077D01*
X141007351Y-96220077D02*
X141007351Y-96277220D01*
X141007351Y-96277220D02*
X140978780Y-96362934D01*
X140978780Y-96362934D02*
X140635923Y-96705791D01*
X140635923Y-96705791D02*
X141007351Y-96705791D01*
X117678780Y-96705791D02*
X117393066Y-96705791D01*
X117393066Y-96705791D02*
X117393066Y-96105791D01*
X117878780Y-96705791D02*
X117878780Y-96105791D01*
X118478779Y-96134362D02*
X118421637Y-96105791D01*
X118421637Y-96105791D02*
X118335922Y-96105791D01*
X118335922Y-96105791D02*
X118250208Y-96134362D01*
X118250208Y-96134362D02*
X118193065Y-96191505D01*
X118193065Y-96191505D02*
X118164494Y-96248648D01*
X118164494Y-96248648D02*
X118135922Y-96362934D01*
X118135922Y-96362934D02*
X118135922Y-96448648D01*
X118135922Y-96448648D02*
X118164494Y-96562934D01*
X118164494Y-96562934D02*
X118193065Y-96620077D01*
X118193065Y-96620077D02*
X118250208Y-96677220D01*
X118250208Y-96677220D02*
X118335922Y-96705791D01*
X118335922Y-96705791D02*
X118393065Y-96705791D01*
X118393065Y-96705791D02*
X118478779Y-96677220D01*
X118478779Y-96677220D02*
X118507351Y-96648648D01*
X118507351Y-96648648D02*
X118507351Y-96448648D01*
X118507351Y-96448648D02*
X118393065Y-96448648D01*
X118764494Y-96705791D02*
X118764494Y-96105791D01*
X118764494Y-96391505D02*
X119107351Y-96391505D01*
X119107351Y-96705791D02*
X119107351Y-96105791D01*
X119307350Y-96105791D02*
X119650208Y-96105791D01*
X119478779Y-96705791D02*
X119478779Y-96105791D01*
D11*
X115527255Y-117007557D02*
X115277255Y-117007557D01*
X115277255Y-117400414D02*
X115277255Y-116650414D01*
X115277255Y-116650414D02*
X115634398Y-116650414D01*
X116027255Y-117400414D02*
X115955826Y-117364700D01*
X115955826Y-117364700D02*
X115920112Y-117328985D01*
X115920112Y-117328985D02*
X115884398Y-117257557D01*
X115884398Y-117257557D02*
X115884398Y-117043271D01*
X115884398Y-117043271D02*
X115920112Y-116971842D01*
X115920112Y-116971842D02*
X115955826Y-116936128D01*
X115955826Y-116936128D02*
X116027255Y-116900414D01*
X116027255Y-116900414D02*
X116134398Y-116900414D01*
X116134398Y-116900414D02*
X116205826Y-116936128D01*
X116205826Y-116936128D02*
X116241541Y-116971842D01*
X116241541Y-116971842D02*
X116277255Y-117043271D01*
X116277255Y-117043271D02*
X116277255Y-117257557D01*
X116277255Y-117257557D02*
X116241541Y-117328985D01*
X116241541Y-117328985D02*
X116205826Y-117364700D01*
X116205826Y-117364700D02*
X116134398Y-117400414D01*
X116134398Y-117400414D02*
X116027255Y-117400414D01*
X116598683Y-117400414D02*
X116598683Y-116900414D01*
X116598683Y-117043271D02*
X116634397Y-116971842D01*
X116634397Y-116971842D02*
X116670112Y-116936128D01*
X116670112Y-116936128D02*
X116741540Y-116900414D01*
X116741540Y-116900414D02*
X116812969Y-116900414D01*
X117062969Y-117400414D02*
X117062969Y-116900414D01*
X117062969Y-116971842D02*
X117098683Y-116936128D01*
X117098683Y-116936128D02*
X117170112Y-116900414D01*
X117170112Y-116900414D02*
X117277255Y-116900414D01*
X117277255Y-116900414D02*
X117348683Y-116936128D01*
X117348683Y-116936128D02*
X117384398Y-117007557D01*
X117384398Y-117007557D02*
X117384398Y-117400414D01*
X117384398Y-117007557D02*
X117420112Y-116936128D01*
X117420112Y-116936128D02*
X117491540Y-116900414D01*
X117491540Y-116900414D02*
X117598683Y-116900414D01*
X117598683Y-116900414D02*
X117670112Y-116936128D01*
X117670112Y-116936128D02*
X117705826Y-117007557D01*
X117705826Y-117007557D02*
X117705826Y-117400414D01*
X118384398Y-116900414D02*
X118384398Y-117400414D01*
X118062969Y-116900414D02*
X118062969Y-117293271D01*
X118062969Y-117293271D02*
X118098683Y-117364700D01*
X118098683Y-117364700D02*
X118170112Y-117400414D01*
X118170112Y-117400414D02*
X118277255Y-117400414D01*
X118277255Y-117400414D02*
X118348683Y-117364700D01*
X118348683Y-117364700D02*
X118384398Y-117328985D01*
X118848683Y-117400414D02*
X118777254Y-117364700D01*
X118777254Y-117364700D02*
X118741540Y-117293271D01*
X118741540Y-117293271D02*
X118741540Y-116650414D01*
X119455826Y-117400414D02*
X119455826Y-117007557D01*
X119455826Y-117007557D02*
X119420111Y-116936128D01*
X119420111Y-116936128D02*
X119348683Y-116900414D01*
X119348683Y-116900414D02*
X119205826Y-116900414D01*
X119205826Y-116900414D02*
X119134397Y-116936128D01*
X119455826Y-117364700D02*
X119384397Y-117400414D01*
X119384397Y-117400414D02*
X119205826Y-117400414D01*
X119205826Y-117400414D02*
X119134397Y-117364700D01*
X119134397Y-117364700D02*
X119098683Y-117293271D01*
X119098683Y-117293271D02*
X119098683Y-117221842D01*
X119098683Y-117221842D02*
X119134397Y-117150414D01*
X119134397Y-117150414D02*
X119205826Y-117114700D01*
X119205826Y-117114700D02*
X119384397Y-117114700D01*
X119384397Y-117114700D02*
X119455826Y-117078985D01*
X120348683Y-117364700D02*
X120455826Y-117400414D01*
X120455826Y-117400414D02*
X120634397Y-117400414D01*
X120634397Y-117400414D02*
X120705826Y-117364700D01*
X120705826Y-117364700D02*
X120741540Y-117328985D01*
X120741540Y-117328985D02*
X120777254Y-117257557D01*
X120777254Y-117257557D02*
X120777254Y-117186128D01*
X120777254Y-117186128D02*
X120741540Y-117114700D01*
X120741540Y-117114700D02*
X120705826Y-117078985D01*
X120705826Y-117078985D02*
X120634397Y-117043271D01*
X120634397Y-117043271D02*
X120491540Y-117007557D01*
X120491540Y-117007557D02*
X120420111Y-116971842D01*
X120420111Y-116971842D02*
X120384397Y-116936128D01*
X120384397Y-116936128D02*
X120348683Y-116864700D01*
X120348683Y-116864700D02*
X120348683Y-116793271D01*
X120348683Y-116793271D02*
X120384397Y-116721842D01*
X120384397Y-116721842D02*
X120420111Y-116686128D01*
X120420111Y-116686128D02*
X120491540Y-116650414D01*
X120491540Y-116650414D02*
X120670111Y-116650414D01*
X120670111Y-116650414D02*
X120777254Y-116686128D01*
X120991540Y-116900414D02*
X121277254Y-116900414D01*
X121098683Y-116650414D02*
X121098683Y-117293271D01*
X121098683Y-117293271D02*
X121134397Y-117364700D01*
X121134397Y-117364700D02*
X121205826Y-117400414D01*
X121205826Y-117400414D02*
X121277254Y-117400414D01*
X121848683Y-116900414D02*
X121848683Y-117400414D01*
X121527254Y-116900414D02*
X121527254Y-117293271D01*
X121527254Y-117293271D02*
X121562968Y-117364700D01*
X121562968Y-117364700D02*
X121634397Y-117400414D01*
X121634397Y-117400414D02*
X121741540Y-117400414D01*
X121741540Y-117400414D02*
X121812968Y-117364700D01*
X121812968Y-117364700D02*
X121848683Y-117328985D01*
X122527254Y-117400414D02*
X122527254Y-116650414D01*
X122527254Y-117364700D02*
X122455825Y-117400414D01*
X122455825Y-117400414D02*
X122312968Y-117400414D01*
X122312968Y-117400414D02*
X122241539Y-117364700D01*
X122241539Y-117364700D02*
X122205825Y-117328985D01*
X122205825Y-117328985D02*
X122170111Y-117257557D01*
X122170111Y-117257557D02*
X122170111Y-117043271D01*
X122170111Y-117043271D02*
X122205825Y-116971842D01*
X122205825Y-116971842D02*
X122241539Y-116936128D01*
X122241539Y-116936128D02*
X122312968Y-116900414D01*
X122312968Y-116900414D02*
X122455825Y-116900414D01*
X122455825Y-116900414D02*
X122527254Y-116936128D01*
X123170110Y-117364700D02*
X123098682Y-117400414D01*
X123098682Y-117400414D02*
X122955825Y-117400414D01*
X122955825Y-117400414D02*
X122884396Y-117364700D01*
X122884396Y-117364700D02*
X122848682Y-117293271D01*
X122848682Y-117293271D02*
X122848682Y-117007557D01*
X122848682Y-117007557D02*
X122884396Y-116936128D01*
X122884396Y-116936128D02*
X122955825Y-116900414D01*
X122955825Y-116900414D02*
X123098682Y-116900414D01*
X123098682Y-116900414D02*
X123170110Y-116936128D01*
X123170110Y-116936128D02*
X123205825Y-117007557D01*
X123205825Y-117007557D02*
X123205825Y-117078985D01*
X123205825Y-117078985D02*
X122848682Y-117150414D01*
X123527253Y-116900414D02*
X123527253Y-117400414D01*
X123527253Y-116971842D02*
X123562967Y-116936128D01*
X123562967Y-116936128D02*
X123634396Y-116900414D01*
X123634396Y-116900414D02*
X123741539Y-116900414D01*
X123741539Y-116900414D02*
X123812967Y-116936128D01*
X123812967Y-116936128D02*
X123848682Y-117007557D01*
X123848682Y-117007557D02*
X123848682Y-117400414D01*
X124098681Y-116900414D02*
X124384395Y-116900414D01*
X124205824Y-116650414D02*
X124205824Y-117293271D01*
X124205824Y-117293271D02*
X124241538Y-117364700D01*
X124241538Y-117364700D02*
X124312967Y-117400414D01*
X124312967Y-117400414D02*
X124384395Y-117400414D01*
X125205824Y-117400414D02*
X125205824Y-116650414D01*
X125634395Y-117400414D02*
X125312967Y-116971842D01*
X125634395Y-116650414D02*
X125205824Y-117078985D01*
X126062967Y-117400414D02*
X125991538Y-117364700D01*
X125991538Y-117364700D02*
X125955824Y-117328985D01*
X125955824Y-117328985D02*
X125920110Y-117257557D01*
X125920110Y-117257557D02*
X125920110Y-117043271D01*
X125920110Y-117043271D02*
X125955824Y-116971842D01*
X125955824Y-116971842D02*
X125991538Y-116936128D01*
X125991538Y-116936128D02*
X126062967Y-116900414D01*
X126062967Y-116900414D02*
X126170110Y-116900414D01*
X126170110Y-116900414D02*
X126241538Y-116936128D01*
X126241538Y-116936128D02*
X126277253Y-116971842D01*
X126277253Y-116971842D02*
X126312967Y-117043271D01*
X126312967Y-117043271D02*
X126312967Y-117257557D01*
X126312967Y-117257557D02*
X126277253Y-117328985D01*
X126277253Y-117328985D02*
X126241538Y-117364700D01*
X126241538Y-117364700D02*
X126170110Y-117400414D01*
X126170110Y-117400414D02*
X126062967Y-117400414D01*
X126634395Y-117400414D02*
X126634395Y-116900414D01*
X126634395Y-117043271D02*
X126670109Y-116971842D01*
X126670109Y-116971842D02*
X126705824Y-116936128D01*
X126705824Y-116936128D02*
X126777252Y-116900414D01*
X126777252Y-116900414D02*
X126848681Y-116900414D01*
X127384395Y-117364700D02*
X127312967Y-117400414D01*
X127312967Y-117400414D02*
X127170110Y-117400414D01*
X127170110Y-117400414D02*
X127098681Y-117364700D01*
X127098681Y-117364700D02*
X127062967Y-117293271D01*
X127062967Y-117293271D02*
X127062967Y-117007557D01*
X127062967Y-117007557D02*
X127098681Y-116936128D01*
X127098681Y-116936128D02*
X127170110Y-116900414D01*
X127170110Y-116900414D02*
X127312967Y-116900414D01*
X127312967Y-116900414D02*
X127384395Y-116936128D01*
X127384395Y-116936128D02*
X127420110Y-117007557D01*
X127420110Y-117007557D02*
X127420110Y-117078985D01*
X127420110Y-117078985D02*
X127062967Y-117150414D01*
X128062967Y-117400414D02*
X128062967Y-117007557D01*
X128062967Y-117007557D02*
X128027252Y-116936128D01*
X128027252Y-116936128D02*
X127955824Y-116900414D01*
X127955824Y-116900414D02*
X127812967Y-116900414D01*
X127812967Y-116900414D02*
X127741538Y-116936128D01*
X128062967Y-117364700D02*
X127991538Y-117400414D01*
X127991538Y-117400414D02*
X127812967Y-117400414D01*
X127812967Y-117400414D02*
X127741538Y-117364700D01*
X127741538Y-117364700D02*
X127705824Y-117293271D01*
X127705824Y-117293271D02*
X127705824Y-117221842D01*
X127705824Y-117221842D02*
X127741538Y-117150414D01*
X127741538Y-117150414D02*
X127812967Y-117114700D01*
X127812967Y-117114700D02*
X127991538Y-117114700D01*
X127991538Y-117114700D02*
X128062967Y-117078985D01*
X128884395Y-116650414D02*
X129312967Y-116650414D01*
X129098681Y-117400414D02*
X129098681Y-116650414D01*
X129562967Y-117400414D02*
X129562967Y-116900414D01*
X129562967Y-117043271D02*
X129598681Y-116971842D01*
X129598681Y-116971842D02*
X129634396Y-116936128D01*
X129634396Y-116936128D02*
X129705824Y-116900414D01*
X129705824Y-116900414D02*
X129777253Y-116900414D01*
X130348682Y-117400414D02*
X130348682Y-117007557D01*
X130348682Y-117007557D02*
X130312967Y-116936128D01*
X130312967Y-116936128D02*
X130241539Y-116900414D01*
X130241539Y-116900414D02*
X130098682Y-116900414D01*
X130098682Y-116900414D02*
X130027253Y-116936128D01*
X130348682Y-117364700D02*
X130277253Y-117400414D01*
X130277253Y-117400414D02*
X130098682Y-117400414D01*
X130098682Y-117400414D02*
X130027253Y-117364700D01*
X130027253Y-117364700D02*
X129991539Y-117293271D01*
X129991539Y-117293271D02*
X129991539Y-117221842D01*
X129991539Y-117221842D02*
X130027253Y-117150414D01*
X130027253Y-117150414D02*
X130098682Y-117114700D01*
X130098682Y-117114700D02*
X130277253Y-117114700D01*
X130277253Y-117114700D02*
X130348682Y-117078985D01*
X130598681Y-116900414D02*
X130884395Y-116900414D01*
X130705824Y-117400414D02*
X130705824Y-116757557D01*
X130705824Y-116757557D02*
X130741538Y-116686128D01*
X130741538Y-116686128D02*
X130812967Y-116650414D01*
X130812967Y-116650414D02*
X130884395Y-116650414D01*
X131027252Y-116900414D02*
X131312966Y-116900414D01*
X131134395Y-117400414D02*
X131134395Y-116757557D01*
X131134395Y-116757557D02*
X131170109Y-116686128D01*
X131170109Y-116686128D02*
X131241538Y-116650414D01*
X131241538Y-116650414D02*
X131312966Y-116650414D01*
X131562966Y-117400414D02*
X131562966Y-116900414D01*
X131562966Y-116650414D02*
X131527252Y-116686128D01*
X131527252Y-116686128D02*
X131562966Y-116721842D01*
X131562966Y-116721842D02*
X131598680Y-116686128D01*
X131598680Y-116686128D02*
X131562966Y-116650414D01*
X131562966Y-116650414D02*
X131562966Y-116721842D01*
X132241538Y-117364700D02*
X132170109Y-117400414D01*
X132170109Y-117400414D02*
X132027252Y-117400414D01*
X132027252Y-117400414D02*
X131955823Y-117364700D01*
X131955823Y-117364700D02*
X131920109Y-117328985D01*
X131920109Y-117328985D02*
X131884395Y-117257557D01*
X131884395Y-117257557D02*
X131884395Y-117043271D01*
X131884395Y-117043271D02*
X131920109Y-116971842D01*
X131920109Y-116971842D02*
X131955823Y-116936128D01*
X131955823Y-116936128D02*
X132027252Y-116900414D01*
X132027252Y-116900414D02*
X132170109Y-116900414D01*
X132170109Y-116900414D02*
X132241538Y-116936128D01*
X133562966Y-117328985D02*
X133527252Y-117364700D01*
X133527252Y-117364700D02*
X133420109Y-117400414D01*
X133420109Y-117400414D02*
X133348681Y-117400414D01*
X133348681Y-117400414D02*
X133241538Y-117364700D01*
X133241538Y-117364700D02*
X133170109Y-117293271D01*
X133170109Y-117293271D02*
X133134395Y-117221842D01*
X133134395Y-117221842D02*
X133098681Y-117078985D01*
X133098681Y-117078985D02*
X133098681Y-116971842D01*
X133098681Y-116971842D02*
X133134395Y-116828985D01*
X133134395Y-116828985D02*
X133170109Y-116757557D01*
X133170109Y-116757557D02*
X133241538Y-116686128D01*
X133241538Y-116686128D02*
X133348681Y-116650414D01*
X133348681Y-116650414D02*
X133420109Y-116650414D01*
X133420109Y-116650414D02*
X133527252Y-116686128D01*
X133527252Y-116686128D02*
X133562966Y-116721842D01*
X133991538Y-117400414D02*
X133920109Y-117364700D01*
X133920109Y-117364700D02*
X133884395Y-117328985D01*
X133884395Y-117328985D02*
X133848681Y-117257557D01*
X133848681Y-117257557D02*
X133848681Y-117043271D01*
X133848681Y-117043271D02*
X133884395Y-116971842D01*
X133884395Y-116971842D02*
X133920109Y-116936128D01*
X133920109Y-116936128D02*
X133991538Y-116900414D01*
X133991538Y-116900414D02*
X134098681Y-116900414D01*
X134098681Y-116900414D02*
X134170109Y-116936128D01*
X134170109Y-116936128D02*
X134205824Y-116971842D01*
X134205824Y-116971842D02*
X134241538Y-117043271D01*
X134241538Y-117043271D02*
X134241538Y-117257557D01*
X134241538Y-117257557D02*
X134205824Y-117328985D01*
X134205824Y-117328985D02*
X134170109Y-117364700D01*
X134170109Y-117364700D02*
X134098681Y-117400414D01*
X134098681Y-117400414D02*
X133991538Y-117400414D01*
X134562966Y-116900414D02*
X134562966Y-117400414D01*
X134562966Y-116971842D02*
X134598680Y-116936128D01*
X134598680Y-116936128D02*
X134670109Y-116900414D01*
X134670109Y-116900414D02*
X134777252Y-116900414D01*
X134777252Y-116900414D02*
X134848680Y-116936128D01*
X134848680Y-116936128D02*
X134884395Y-117007557D01*
X134884395Y-117007557D02*
X134884395Y-117400414D01*
X135134394Y-116900414D02*
X135420108Y-116900414D01*
X135241537Y-116650414D02*
X135241537Y-117293271D01*
X135241537Y-117293271D02*
X135277251Y-117364700D01*
X135277251Y-117364700D02*
X135348680Y-117400414D01*
X135348680Y-117400414D02*
X135420108Y-117400414D01*
X135670108Y-117400414D02*
X135670108Y-116900414D01*
X135670108Y-117043271D02*
X135705822Y-116971842D01*
X135705822Y-116971842D02*
X135741537Y-116936128D01*
X135741537Y-116936128D02*
X135812965Y-116900414D01*
X135812965Y-116900414D02*
X135884394Y-116900414D01*
X136241537Y-117400414D02*
X136170108Y-117364700D01*
X136170108Y-117364700D02*
X136134394Y-117328985D01*
X136134394Y-117328985D02*
X136098680Y-117257557D01*
X136098680Y-117257557D02*
X136098680Y-117043271D01*
X136098680Y-117043271D02*
X136134394Y-116971842D01*
X136134394Y-116971842D02*
X136170108Y-116936128D01*
X136170108Y-116936128D02*
X136241537Y-116900414D01*
X136241537Y-116900414D02*
X136348680Y-116900414D01*
X136348680Y-116900414D02*
X136420108Y-116936128D01*
X136420108Y-116936128D02*
X136455823Y-116971842D01*
X136455823Y-116971842D02*
X136491537Y-117043271D01*
X136491537Y-117043271D02*
X136491537Y-117257557D01*
X136491537Y-117257557D02*
X136455823Y-117328985D01*
X136455823Y-117328985D02*
X136420108Y-117364700D01*
X136420108Y-117364700D02*
X136348680Y-117400414D01*
X136348680Y-117400414D02*
X136241537Y-117400414D01*
X136920108Y-117400414D02*
X136848679Y-117364700D01*
X136848679Y-117364700D02*
X136812965Y-117293271D01*
X136812965Y-117293271D02*
X136812965Y-116650414D01*
X137312965Y-117400414D02*
X137241536Y-117364700D01*
X137241536Y-117364700D02*
X137205822Y-117293271D01*
X137205822Y-117293271D02*
X137205822Y-116650414D01*
X137884393Y-117364700D02*
X137812965Y-117400414D01*
X137812965Y-117400414D02*
X137670108Y-117400414D01*
X137670108Y-117400414D02*
X137598679Y-117364700D01*
X137598679Y-117364700D02*
X137562965Y-117293271D01*
X137562965Y-117293271D02*
X137562965Y-117007557D01*
X137562965Y-117007557D02*
X137598679Y-116936128D01*
X137598679Y-116936128D02*
X137670108Y-116900414D01*
X137670108Y-116900414D02*
X137812965Y-116900414D01*
X137812965Y-116900414D02*
X137884393Y-116936128D01*
X137884393Y-116936128D02*
X137920108Y-117007557D01*
X137920108Y-117007557D02*
X137920108Y-117078985D01*
X137920108Y-117078985D02*
X137562965Y-117150414D01*
X138241536Y-117400414D02*
X138241536Y-116900414D01*
X138241536Y-117043271D02*
X138277250Y-116971842D01*
X138277250Y-116971842D02*
X138312965Y-116936128D01*
X138312965Y-116936128D02*
X138384393Y-116900414D01*
X138384393Y-116900414D02*
X138455822Y-116900414D01*
D10*
X148609420Y-100315228D02*
X148580848Y-100343800D01*
X148580848Y-100343800D02*
X148495134Y-100372371D01*
X148495134Y-100372371D02*
X148437991Y-100372371D01*
X148437991Y-100372371D02*
X148352277Y-100343800D01*
X148352277Y-100343800D02*
X148295134Y-100286657D01*
X148295134Y-100286657D02*
X148266563Y-100229514D01*
X148266563Y-100229514D02*
X148237991Y-100115228D01*
X148237991Y-100115228D02*
X148237991Y-100029514D01*
X148237991Y-100029514D02*
X148266563Y-99915228D01*
X148266563Y-99915228D02*
X148295134Y-99858085D01*
X148295134Y-99858085D02*
X148352277Y-99800942D01*
X148352277Y-99800942D02*
X148437991Y-99772371D01*
X148437991Y-99772371D02*
X148495134Y-99772371D01*
X148495134Y-99772371D02*
X148580848Y-99800942D01*
X148580848Y-99800942D02*
X148609420Y-99829514D01*
X149180848Y-100372371D02*
X148837991Y-100372371D01*
X149009420Y-100372371D02*
X149009420Y-99772371D01*
X149009420Y-99772371D02*
X148952277Y-99858085D01*
X148952277Y-99858085D02*
X148895134Y-99915228D01*
X148895134Y-99915228D02*
X148837991Y-99943800D01*
X121342857Y-107829514D02*
X121285714Y-107800942D01*
X121285714Y-107800942D02*
X121228571Y-107743800D01*
X121228571Y-107743800D02*
X121142857Y-107658085D01*
X121142857Y-107658085D02*
X121085714Y-107629514D01*
X121085714Y-107629514D02*
X121028571Y-107629514D01*
X121057142Y-107772371D02*
X121000000Y-107743800D01*
X121000000Y-107743800D02*
X120942857Y-107686657D01*
X120942857Y-107686657D02*
X120914285Y-107572371D01*
X120914285Y-107572371D02*
X120914285Y-107372371D01*
X120914285Y-107372371D02*
X120942857Y-107258085D01*
X120942857Y-107258085D02*
X121000000Y-107200942D01*
X121000000Y-107200942D02*
X121057142Y-107172371D01*
X121057142Y-107172371D02*
X121171428Y-107172371D01*
X121171428Y-107172371D02*
X121228571Y-107200942D01*
X121228571Y-107200942D02*
X121285714Y-107258085D01*
X121285714Y-107258085D02*
X121314285Y-107372371D01*
X121314285Y-107372371D02*
X121314285Y-107572371D01*
X121314285Y-107572371D02*
X121285714Y-107686657D01*
X121285714Y-107686657D02*
X121228571Y-107743800D01*
X121228571Y-107743800D02*
X121171428Y-107772371D01*
X121171428Y-107772371D02*
X121057142Y-107772371D01*
X121514285Y-107172371D02*
X121885713Y-107172371D01*
X121885713Y-107172371D02*
X121685713Y-107400942D01*
X121685713Y-107400942D02*
X121771428Y-107400942D01*
X121771428Y-107400942D02*
X121828571Y-107429514D01*
X121828571Y-107429514D02*
X121857142Y-107458085D01*
X121857142Y-107458085D02*
X121885713Y-107515228D01*
X121885713Y-107515228D02*
X121885713Y-107658085D01*
X121885713Y-107658085D02*
X121857142Y-107715228D01*
X121857142Y-107715228D02*
X121828571Y-107743800D01*
X121828571Y-107743800D02*
X121771428Y-107772371D01*
X121771428Y-107772371D02*
X121599999Y-107772371D01*
X121599999Y-107772371D02*
X121542856Y-107743800D01*
X121542856Y-107743800D02*
X121514285Y-107715228D01*
X142384420Y-114472371D02*
X142184420Y-114186657D01*
X142041563Y-114472371D02*
X142041563Y-113872371D01*
X142041563Y-113872371D02*
X142270134Y-113872371D01*
X142270134Y-113872371D02*
X142327277Y-113900942D01*
X142327277Y-113900942D02*
X142355848Y-113929514D01*
X142355848Y-113929514D02*
X142384420Y-113986657D01*
X142384420Y-113986657D02*
X142384420Y-114072371D01*
X142384420Y-114072371D02*
X142355848Y-114129514D01*
X142355848Y-114129514D02*
X142327277Y-114158085D01*
X142327277Y-114158085D02*
X142270134Y-114186657D01*
X142270134Y-114186657D02*
X142041563Y-114186657D01*
X142584420Y-113872371D02*
X142955848Y-113872371D01*
X142955848Y-113872371D02*
X142755848Y-114100942D01*
X142755848Y-114100942D02*
X142841563Y-114100942D01*
X142841563Y-114100942D02*
X142898706Y-114129514D01*
X142898706Y-114129514D02*
X142927277Y-114158085D01*
X142927277Y-114158085D02*
X142955848Y-114215228D01*
X142955848Y-114215228D02*
X142955848Y-114358085D01*
X142955848Y-114358085D02*
X142927277Y-114415228D01*
X142927277Y-114415228D02*
X142898706Y-114443800D01*
X142898706Y-114443800D02*
X142841563Y-114472371D01*
X142841563Y-114472371D02*
X142670134Y-114472371D01*
X142670134Y-114472371D02*
X142612991Y-114443800D01*
X142612991Y-114443800D02*
X142584420Y-114415228D01*
X147342857Y-115472371D02*
X147342857Y-115958085D01*
X147342857Y-115958085D02*
X147371428Y-116015228D01*
X147371428Y-116015228D02*
X147400000Y-116043800D01*
X147400000Y-116043800D02*
X147457142Y-116072371D01*
X147457142Y-116072371D02*
X147571428Y-116072371D01*
X147571428Y-116072371D02*
X147628571Y-116043800D01*
X147628571Y-116043800D02*
X147657142Y-116015228D01*
X147657142Y-116015228D02*
X147685714Y-115958085D01*
X147685714Y-115958085D02*
X147685714Y-115472371D01*
X148285713Y-116072371D02*
X147942856Y-116072371D01*
X148114285Y-116072371D02*
X148114285Y-115472371D01*
X148114285Y-115472371D02*
X148057142Y-115558085D01*
X148057142Y-115558085D02*
X147999999Y-115615228D01*
X147999999Y-115615228D02*
X147942856Y-115643800D01*
X121914285Y-104372371D02*
X121714285Y-104086657D01*
X121571428Y-104372371D02*
X121571428Y-103772371D01*
X121571428Y-103772371D02*
X121799999Y-103772371D01*
X121799999Y-103772371D02*
X121857142Y-103800942D01*
X121857142Y-103800942D02*
X121885713Y-103829514D01*
X121885713Y-103829514D02*
X121914285Y-103886657D01*
X121914285Y-103886657D02*
X121914285Y-103972371D01*
X121914285Y-103972371D02*
X121885713Y-104029514D01*
X121885713Y-104029514D02*
X121857142Y-104058085D01*
X121857142Y-104058085D02*
X121799999Y-104086657D01*
X121799999Y-104086657D02*
X121571428Y-104086657D01*
X122485713Y-104372371D02*
X122142856Y-104372371D01*
X122314285Y-104372371D02*
X122314285Y-103772371D01*
X122314285Y-103772371D02*
X122257142Y-103858085D01*
X122257142Y-103858085D02*
X122199999Y-103915228D01*
X122199999Y-103915228D02*
X122142856Y-103943800D01*
X123057142Y-104372371D02*
X122714285Y-104372371D01*
X122885714Y-104372371D02*
X122885714Y-103772371D01*
X122885714Y-103772371D02*
X122828571Y-103858085D01*
X122828571Y-103858085D02*
X122771428Y-103915228D01*
X122771428Y-103915228D02*
X122714285Y-103943800D01*
X151500000Y-112715228D02*
X151471428Y-112743800D01*
X151471428Y-112743800D02*
X151385714Y-112772371D01*
X151385714Y-112772371D02*
X151328571Y-112772371D01*
X151328571Y-112772371D02*
X151242857Y-112743800D01*
X151242857Y-112743800D02*
X151185714Y-112686657D01*
X151185714Y-112686657D02*
X151157143Y-112629514D01*
X151157143Y-112629514D02*
X151128571Y-112515228D01*
X151128571Y-112515228D02*
X151128571Y-112429514D01*
X151128571Y-112429514D02*
X151157143Y-112315228D01*
X151157143Y-112315228D02*
X151185714Y-112258085D01*
X151185714Y-112258085D02*
X151242857Y-112200942D01*
X151242857Y-112200942D02*
X151328571Y-112172371D01*
X151328571Y-112172371D02*
X151385714Y-112172371D01*
X151385714Y-112172371D02*
X151471428Y-112200942D01*
X151471428Y-112200942D02*
X151500000Y-112229514D01*
X151700000Y-112172371D02*
X152071428Y-112172371D01*
X152071428Y-112172371D02*
X151871428Y-112400942D01*
X151871428Y-112400942D02*
X151957143Y-112400942D01*
X151957143Y-112400942D02*
X152014286Y-112429514D01*
X152014286Y-112429514D02*
X152042857Y-112458085D01*
X152042857Y-112458085D02*
X152071428Y-112515228D01*
X152071428Y-112515228D02*
X152071428Y-112658085D01*
X152071428Y-112658085D02*
X152042857Y-112715228D01*
X152042857Y-112715228D02*
X152014286Y-112743800D01*
X152014286Y-112743800D02*
X151957143Y-112772371D01*
X151957143Y-112772371D02*
X151785714Y-112772371D01*
X151785714Y-112772371D02*
X151728571Y-112743800D01*
X151728571Y-112743800D02*
X151700000Y-112715228D01*
X161684420Y-105615228D02*
X161655848Y-105643800D01*
X161655848Y-105643800D02*
X161570134Y-105672371D01*
X161570134Y-105672371D02*
X161512991Y-105672371D01*
X161512991Y-105672371D02*
X161427277Y-105643800D01*
X161427277Y-105643800D02*
X161370134Y-105586657D01*
X161370134Y-105586657D02*
X161341563Y-105529514D01*
X161341563Y-105529514D02*
X161312991Y-105415228D01*
X161312991Y-105415228D02*
X161312991Y-105329514D01*
X161312991Y-105329514D02*
X161341563Y-105215228D01*
X161341563Y-105215228D02*
X161370134Y-105158085D01*
X161370134Y-105158085D02*
X161427277Y-105100942D01*
X161427277Y-105100942D02*
X161512991Y-105072371D01*
X161512991Y-105072371D02*
X161570134Y-105072371D01*
X161570134Y-105072371D02*
X161655848Y-105100942D01*
X161655848Y-105100942D02*
X161684420Y-105129514D01*
X161912991Y-105129514D02*
X161941563Y-105100942D01*
X161941563Y-105100942D02*
X161998706Y-105072371D01*
X161998706Y-105072371D02*
X162141563Y-105072371D01*
X162141563Y-105072371D02*
X162198706Y-105100942D01*
X162198706Y-105100942D02*
X162227277Y-105129514D01*
X162227277Y-105129514D02*
X162255848Y-105186657D01*
X162255848Y-105186657D02*
X162255848Y-105243800D01*
X162255848Y-105243800D02*
X162227277Y-105329514D01*
X162227277Y-105329514D02*
X161884420Y-105672371D01*
X161884420Y-105672371D02*
X162255848Y-105672371D01*
X160200000Y-114184648D02*
X160171428Y-114213220D01*
X160171428Y-114213220D02*
X160085714Y-114241791D01*
X160085714Y-114241791D02*
X160028571Y-114241791D01*
X160028571Y-114241791D02*
X159942857Y-114213220D01*
X159942857Y-114213220D02*
X159885714Y-114156077D01*
X159885714Y-114156077D02*
X159857143Y-114098934D01*
X159857143Y-114098934D02*
X159828571Y-113984648D01*
X159828571Y-113984648D02*
X159828571Y-113898934D01*
X159828571Y-113898934D02*
X159857143Y-113784648D01*
X159857143Y-113784648D02*
X159885714Y-113727505D01*
X159885714Y-113727505D02*
X159942857Y-113670362D01*
X159942857Y-113670362D02*
X160028571Y-113641791D01*
X160028571Y-113641791D02*
X160085714Y-113641791D01*
X160085714Y-113641791D02*
X160171428Y-113670362D01*
X160171428Y-113670362D02*
X160200000Y-113698934D01*
X160714286Y-113641791D02*
X160600000Y-113641791D01*
X160600000Y-113641791D02*
X160542857Y-113670362D01*
X160542857Y-113670362D02*
X160514286Y-113698934D01*
X160514286Y-113698934D02*
X160457143Y-113784648D01*
X160457143Y-113784648D02*
X160428571Y-113898934D01*
X160428571Y-113898934D02*
X160428571Y-114127505D01*
X160428571Y-114127505D02*
X160457143Y-114184648D01*
X160457143Y-114184648D02*
X160485714Y-114213220D01*
X160485714Y-114213220D02*
X160542857Y-114241791D01*
X160542857Y-114241791D02*
X160657143Y-114241791D01*
X160657143Y-114241791D02*
X160714286Y-114213220D01*
X160714286Y-114213220D02*
X160742857Y-114184648D01*
X160742857Y-114184648D02*
X160771428Y-114127505D01*
X160771428Y-114127505D02*
X160771428Y-113984648D01*
X160771428Y-113984648D02*
X160742857Y-113927505D01*
X160742857Y-113927505D02*
X160714286Y-113898934D01*
X160714286Y-113898934D02*
X160657143Y-113870362D01*
X160657143Y-113870362D02*
X160542857Y-113870362D01*
X160542857Y-113870362D02*
X160485714Y-113898934D01*
X160485714Y-113898934D02*
X160457143Y-113927505D01*
X160457143Y-113927505D02*
X160428571Y-113984648D01*
X122514285Y-110856791D02*
X122314285Y-110571077D01*
X122171428Y-110856791D02*
X122171428Y-110256791D01*
X122171428Y-110256791D02*
X122399999Y-110256791D01*
X122399999Y-110256791D02*
X122457142Y-110285362D01*
X122457142Y-110285362D02*
X122485713Y-110313934D01*
X122485713Y-110313934D02*
X122514285Y-110371077D01*
X122514285Y-110371077D02*
X122514285Y-110456791D01*
X122514285Y-110456791D02*
X122485713Y-110513934D01*
X122485713Y-110513934D02*
X122457142Y-110542505D01*
X122457142Y-110542505D02*
X122399999Y-110571077D01*
X122399999Y-110571077D02*
X122171428Y-110571077D01*
X123085713Y-110856791D02*
X122742856Y-110856791D01*
X122914285Y-110856791D02*
X122914285Y-110256791D01*
X122914285Y-110256791D02*
X122857142Y-110342505D01*
X122857142Y-110342505D02*
X122799999Y-110399648D01*
X122799999Y-110399648D02*
X122742856Y-110428220D01*
X123457142Y-110256791D02*
X123514285Y-110256791D01*
X123514285Y-110256791D02*
X123571428Y-110285362D01*
X123571428Y-110285362D02*
X123600000Y-110313934D01*
X123600000Y-110313934D02*
X123628571Y-110371077D01*
X123628571Y-110371077D02*
X123657142Y-110485362D01*
X123657142Y-110485362D02*
X123657142Y-110628220D01*
X123657142Y-110628220D02*
X123628571Y-110742505D01*
X123628571Y-110742505D02*
X123600000Y-110799648D01*
X123600000Y-110799648D02*
X123571428Y-110828220D01*
X123571428Y-110828220D02*
X123514285Y-110856791D01*
X123514285Y-110856791D02*
X123457142Y-110856791D01*
X123457142Y-110856791D02*
X123400000Y-110828220D01*
X123400000Y-110828220D02*
X123371428Y-110799648D01*
X123371428Y-110799648D02*
X123342857Y-110742505D01*
X123342857Y-110742505D02*
X123314285Y-110628220D01*
X123314285Y-110628220D02*
X123314285Y-110485362D01*
X123314285Y-110485362D02*
X123342857Y-110371077D01*
X123342857Y-110371077D02*
X123371428Y-110313934D01*
X123371428Y-110313934D02*
X123400000Y-110285362D01*
X123400000Y-110285362D02*
X123457142Y-110256791D01*
X132200000Y-104372371D02*
X132000000Y-104086657D01*
X131857143Y-104372371D02*
X131857143Y-103772371D01*
X131857143Y-103772371D02*
X132085714Y-103772371D01*
X132085714Y-103772371D02*
X132142857Y-103800942D01*
X132142857Y-103800942D02*
X132171428Y-103829514D01*
X132171428Y-103829514D02*
X132200000Y-103886657D01*
X132200000Y-103886657D02*
X132200000Y-103972371D01*
X132200000Y-103972371D02*
X132171428Y-104029514D01*
X132171428Y-104029514D02*
X132142857Y-104058085D01*
X132142857Y-104058085D02*
X132085714Y-104086657D01*
X132085714Y-104086657D02*
X131857143Y-104086657D01*
X132714286Y-103772371D02*
X132600000Y-103772371D01*
X132600000Y-103772371D02*
X132542857Y-103800942D01*
X132542857Y-103800942D02*
X132514286Y-103829514D01*
X132514286Y-103829514D02*
X132457143Y-103915228D01*
X132457143Y-103915228D02*
X132428571Y-104029514D01*
X132428571Y-104029514D02*
X132428571Y-104258085D01*
X132428571Y-104258085D02*
X132457143Y-104315228D01*
X132457143Y-104315228D02*
X132485714Y-104343800D01*
X132485714Y-104343800D02*
X132542857Y-104372371D01*
X132542857Y-104372371D02*
X132657143Y-104372371D01*
X132657143Y-104372371D02*
X132714286Y-104343800D01*
X132714286Y-104343800D02*
X132742857Y-104315228D01*
X132742857Y-104315228D02*
X132771428Y-104258085D01*
X132771428Y-104258085D02*
X132771428Y-104115228D01*
X132771428Y-104115228D02*
X132742857Y-104058085D01*
X132742857Y-104058085D02*
X132714286Y-104029514D01*
X132714286Y-104029514D02*
X132657143Y-104000942D01*
X132657143Y-104000942D02*
X132542857Y-104000942D01*
X132542857Y-104000942D02*
X132485714Y-104029514D01*
X132485714Y-104029514D02*
X132457143Y-104058085D01*
X132457143Y-104058085D02*
X132428571Y-104115228D01*
X168700000Y-106572371D02*
X168414286Y-106572371D01*
X168414286Y-106572371D02*
X168414286Y-105972371D01*
X169214285Y-106572371D02*
X168871428Y-106572371D01*
X169042857Y-106572371D02*
X169042857Y-105972371D01*
X169042857Y-105972371D02*
X168985714Y-106058085D01*
X168985714Y-106058085D02*
X168928571Y-106115228D01*
X168928571Y-106115228D02*
X168871428Y-106143800D01*
X145184420Y-114472371D02*
X144984420Y-114186657D01*
X144841563Y-114472371D02*
X144841563Y-113872371D01*
X144841563Y-113872371D02*
X145070134Y-113872371D01*
X145070134Y-113872371D02*
X145127277Y-113900942D01*
X145127277Y-113900942D02*
X145155848Y-113929514D01*
X145155848Y-113929514D02*
X145184420Y-113986657D01*
X145184420Y-113986657D02*
X145184420Y-114072371D01*
X145184420Y-114072371D02*
X145155848Y-114129514D01*
X145155848Y-114129514D02*
X145127277Y-114158085D01*
X145127277Y-114158085D02*
X145070134Y-114186657D01*
X145070134Y-114186657D02*
X144841563Y-114186657D01*
X145698706Y-114072371D02*
X145698706Y-114472371D01*
X145555848Y-113843800D02*
X145412991Y-114272371D01*
X145412991Y-114272371D02*
X145784420Y-114272371D01*
X150900000Y-111359648D02*
X150871428Y-111388220D01*
X150871428Y-111388220D02*
X150785714Y-111416791D01*
X150785714Y-111416791D02*
X150728571Y-111416791D01*
X150728571Y-111416791D02*
X150642857Y-111388220D01*
X150642857Y-111388220D02*
X150585714Y-111331077D01*
X150585714Y-111331077D02*
X150557143Y-111273934D01*
X150557143Y-111273934D02*
X150528571Y-111159648D01*
X150528571Y-111159648D02*
X150528571Y-111073934D01*
X150528571Y-111073934D02*
X150557143Y-110959648D01*
X150557143Y-110959648D02*
X150585714Y-110902505D01*
X150585714Y-110902505D02*
X150642857Y-110845362D01*
X150642857Y-110845362D02*
X150728571Y-110816791D01*
X150728571Y-110816791D02*
X150785714Y-110816791D01*
X150785714Y-110816791D02*
X150871428Y-110845362D01*
X150871428Y-110845362D02*
X150900000Y-110873934D01*
X151414286Y-111016791D02*
X151414286Y-111416791D01*
X151271428Y-110788220D02*
X151128571Y-111216791D01*
X151128571Y-111216791D02*
X151500000Y-111216791D01*
X137300000Y-103216791D02*
X137100000Y-102931077D01*
X136957143Y-103216791D02*
X136957143Y-102616791D01*
X136957143Y-102616791D02*
X137185714Y-102616791D01*
X137185714Y-102616791D02*
X137242857Y-102645362D01*
X137242857Y-102645362D02*
X137271428Y-102673934D01*
X137271428Y-102673934D02*
X137300000Y-102731077D01*
X137300000Y-102731077D02*
X137300000Y-102816791D01*
X137300000Y-102816791D02*
X137271428Y-102873934D01*
X137271428Y-102873934D02*
X137242857Y-102902505D01*
X137242857Y-102902505D02*
X137185714Y-102931077D01*
X137185714Y-102931077D02*
X136957143Y-102931077D01*
X137642857Y-102873934D02*
X137585714Y-102845362D01*
X137585714Y-102845362D02*
X137557143Y-102816791D01*
X137557143Y-102816791D02*
X137528571Y-102759648D01*
X137528571Y-102759648D02*
X137528571Y-102731077D01*
X137528571Y-102731077D02*
X137557143Y-102673934D01*
X137557143Y-102673934D02*
X137585714Y-102645362D01*
X137585714Y-102645362D02*
X137642857Y-102616791D01*
X137642857Y-102616791D02*
X137757143Y-102616791D01*
X137757143Y-102616791D02*
X137814286Y-102645362D01*
X137814286Y-102645362D02*
X137842857Y-102673934D01*
X137842857Y-102673934D02*
X137871428Y-102731077D01*
X137871428Y-102731077D02*
X137871428Y-102759648D01*
X137871428Y-102759648D02*
X137842857Y-102816791D01*
X137842857Y-102816791D02*
X137814286Y-102845362D01*
X137814286Y-102845362D02*
X137757143Y-102873934D01*
X137757143Y-102873934D02*
X137642857Y-102873934D01*
X137642857Y-102873934D02*
X137585714Y-102902505D01*
X137585714Y-102902505D02*
X137557143Y-102931077D01*
X137557143Y-102931077D02*
X137528571Y-102988220D01*
X137528571Y-102988220D02*
X137528571Y-103102505D01*
X137528571Y-103102505D02*
X137557143Y-103159648D01*
X137557143Y-103159648D02*
X137585714Y-103188220D01*
X137585714Y-103188220D02*
X137642857Y-103216791D01*
X137642857Y-103216791D02*
X137757143Y-103216791D01*
X137757143Y-103216791D02*
X137814286Y-103188220D01*
X137814286Y-103188220D02*
X137842857Y-103159648D01*
X137842857Y-103159648D02*
X137871428Y-103102505D01*
X137871428Y-103102505D02*
X137871428Y-102988220D01*
X137871428Y-102988220D02*
X137842857Y-102931077D01*
X137842857Y-102931077D02*
X137814286Y-102902505D01*
X137814286Y-102902505D02*
X137757143Y-102873934D01*
X156742857Y-110204291D02*
X156742857Y-110690005D01*
X156742857Y-110690005D02*
X156771428Y-110747148D01*
X156771428Y-110747148D02*
X156800000Y-110775720D01*
X156800000Y-110775720D02*
X156857142Y-110804291D01*
X156857142Y-110804291D02*
X156971428Y-110804291D01*
X156971428Y-110804291D02*
X157028571Y-110775720D01*
X157028571Y-110775720D02*
X157057142Y-110747148D01*
X157057142Y-110747148D02*
X157085714Y-110690005D01*
X157085714Y-110690005D02*
X157085714Y-110204291D01*
X157342856Y-110261434D02*
X157371428Y-110232862D01*
X157371428Y-110232862D02*
X157428571Y-110204291D01*
X157428571Y-110204291D02*
X157571428Y-110204291D01*
X157571428Y-110204291D02*
X157628571Y-110232862D01*
X157628571Y-110232862D02*
X157657142Y-110261434D01*
X157657142Y-110261434D02*
X157685713Y-110318577D01*
X157685713Y-110318577D02*
X157685713Y-110375720D01*
X157685713Y-110375720D02*
X157657142Y-110461434D01*
X157657142Y-110461434D02*
X157314285Y-110804291D01*
X157314285Y-110804291D02*
X157685713Y-110804291D01*
X149209420Y-105215228D02*
X149180848Y-105243800D01*
X149180848Y-105243800D02*
X149095134Y-105272371D01*
X149095134Y-105272371D02*
X149037991Y-105272371D01*
X149037991Y-105272371D02*
X148952277Y-105243800D01*
X148952277Y-105243800D02*
X148895134Y-105186657D01*
X148895134Y-105186657D02*
X148866563Y-105129514D01*
X148866563Y-105129514D02*
X148837991Y-105015228D01*
X148837991Y-105015228D02*
X148837991Y-104929514D01*
X148837991Y-104929514D02*
X148866563Y-104815228D01*
X148866563Y-104815228D02*
X148895134Y-104758085D01*
X148895134Y-104758085D02*
X148952277Y-104700942D01*
X148952277Y-104700942D02*
X149037991Y-104672371D01*
X149037991Y-104672371D02*
X149095134Y-104672371D01*
X149095134Y-104672371D02*
X149180848Y-104700942D01*
X149180848Y-104700942D02*
X149209420Y-104729514D01*
X149552277Y-104929514D02*
X149495134Y-104900942D01*
X149495134Y-104900942D02*
X149466563Y-104872371D01*
X149466563Y-104872371D02*
X149437991Y-104815228D01*
X149437991Y-104815228D02*
X149437991Y-104786657D01*
X149437991Y-104786657D02*
X149466563Y-104729514D01*
X149466563Y-104729514D02*
X149495134Y-104700942D01*
X149495134Y-104700942D02*
X149552277Y-104672371D01*
X149552277Y-104672371D02*
X149666563Y-104672371D01*
X149666563Y-104672371D02*
X149723706Y-104700942D01*
X149723706Y-104700942D02*
X149752277Y-104729514D01*
X149752277Y-104729514D02*
X149780848Y-104786657D01*
X149780848Y-104786657D02*
X149780848Y-104815228D01*
X149780848Y-104815228D02*
X149752277Y-104872371D01*
X149752277Y-104872371D02*
X149723706Y-104900942D01*
X149723706Y-104900942D02*
X149666563Y-104929514D01*
X149666563Y-104929514D02*
X149552277Y-104929514D01*
X149552277Y-104929514D02*
X149495134Y-104958085D01*
X149495134Y-104958085D02*
X149466563Y-104986657D01*
X149466563Y-104986657D02*
X149437991Y-105043800D01*
X149437991Y-105043800D02*
X149437991Y-105158085D01*
X149437991Y-105158085D02*
X149466563Y-105215228D01*
X149466563Y-105215228D02*
X149495134Y-105243800D01*
X149495134Y-105243800D02*
X149552277Y-105272371D01*
X149552277Y-105272371D02*
X149666563Y-105272371D01*
X149666563Y-105272371D02*
X149723706Y-105243800D01*
X149723706Y-105243800D02*
X149752277Y-105215228D01*
X149752277Y-105215228D02*
X149780848Y-105158085D01*
X149780848Y-105158085D02*
X149780848Y-105043800D01*
X149780848Y-105043800D02*
X149752277Y-104986657D01*
X149752277Y-104986657D02*
X149723706Y-104958085D01*
X149723706Y-104958085D02*
X149666563Y-104929514D01*
X145586205Y-100086657D02*
X145586205Y-100372371D01*
X145386205Y-99772371D02*
X145586205Y-100086657D01*
X145586205Y-100086657D02*
X145786205Y-99772371D01*
X146300491Y-100372371D02*
X145957634Y-100372371D01*
X146129063Y-100372371D02*
X146129063Y-99772371D01*
X146129063Y-99772371D02*
X146071920Y-99858085D01*
X146071920Y-99858085D02*
X146014777Y-99915228D01*
X146014777Y-99915228D02*
X145957634Y-99943800D01*
X165257143Y-98272371D02*
X165257143Y-97672371D01*
X165257143Y-97672371D02*
X165400000Y-97672371D01*
X165400000Y-97672371D02*
X165485714Y-97700942D01*
X165485714Y-97700942D02*
X165542857Y-97758085D01*
X165542857Y-97758085D02*
X165571428Y-97815228D01*
X165571428Y-97815228D02*
X165600000Y-97929514D01*
X165600000Y-97929514D02*
X165600000Y-98015228D01*
X165600000Y-98015228D02*
X165571428Y-98129514D01*
X165571428Y-98129514D02*
X165542857Y-98186657D01*
X165542857Y-98186657D02*
X165485714Y-98243800D01*
X165485714Y-98243800D02*
X165400000Y-98272371D01*
X165400000Y-98272371D02*
X165257143Y-98272371D01*
X166171428Y-98272371D02*
X165828571Y-98272371D01*
X166000000Y-98272371D02*
X166000000Y-97672371D01*
X166000000Y-97672371D02*
X165942857Y-97758085D01*
X165942857Y-97758085D02*
X165885714Y-97815228D01*
X165885714Y-97815228D02*
X165828571Y-97843800D01*
X122242857Y-100976434D02*
X122185714Y-100947862D01*
X122185714Y-100947862D02*
X122128571Y-100890720D01*
X122128571Y-100890720D02*
X122042857Y-100805005D01*
X122042857Y-100805005D02*
X121985714Y-100776434D01*
X121985714Y-100776434D02*
X121928571Y-100776434D01*
X121957142Y-100919291D02*
X121900000Y-100890720D01*
X121900000Y-100890720D02*
X121842857Y-100833577D01*
X121842857Y-100833577D02*
X121814285Y-100719291D01*
X121814285Y-100719291D02*
X121814285Y-100519291D01*
X121814285Y-100519291D02*
X121842857Y-100405005D01*
X121842857Y-100405005D02*
X121900000Y-100347862D01*
X121900000Y-100347862D02*
X121957142Y-100319291D01*
X121957142Y-100319291D02*
X122071428Y-100319291D01*
X122071428Y-100319291D02*
X122128571Y-100347862D01*
X122128571Y-100347862D02*
X122185714Y-100405005D01*
X122185714Y-100405005D02*
X122214285Y-100519291D01*
X122214285Y-100519291D02*
X122214285Y-100719291D01*
X122214285Y-100719291D02*
X122185714Y-100833577D01*
X122185714Y-100833577D02*
X122128571Y-100890720D01*
X122128571Y-100890720D02*
X122071428Y-100919291D01*
X122071428Y-100919291D02*
X121957142Y-100919291D01*
X122442856Y-100376434D02*
X122471428Y-100347862D01*
X122471428Y-100347862D02*
X122528571Y-100319291D01*
X122528571Y-100319291D02*
X122671428Y-100319291D01*
X122671428Y-100319291D02*
X122728571Y-100347862D01*
X122728571Y-100347862D02*
X122757142Y-100376434D01*
X122757142Y-100376434D02*
X122785713Y-100433577D01*
X122785713Y-100433577D02*
X122785713Y-100490720D01*
X122785713Y-100490720D02*
X122757142Y-100576434D01*
X122757142Y-100576434D02*
X122414285Y-100919291D01*
X122414285Y-100919291D02*
X122785713Y-100919291D01*
X164616791Y-120984420D02*
X165045362Y-120984420D01*
X165045362Y-120984420D02*
X165131077Y-121012991D01*
X165131077Y-121012991D02*
X165188220Y-121070134D01*
X165188220Y-121070134D02*
X165216791Y-121155848D01*
X165216791Y-121155848D02*
X165216791Y-121212991D01*
X164616791Y-120784420D02*
X164616791Y-120441563D01*
X165216791Y-120612991D02*
X164616791Y-120612991D01*
X165045362Y-120270134D02*
X165045362Y-119984420D01*
X165216791Y-120327277D02*
X164616791Y-120127277D01*
X164616791Y-120127277D02*
X165216791Y-119927277D01*
X164645362Y-119412991D02*
X164616791Y-119470134D01*
X164616791Y-119470134D02*
X164616791Y-119555848D01*
X164616791Y-119555848D02*
X164645362Y-119641562D01*
X164645362Y-119641562D02*
X164702505Y-119698705D01*
X164702505Y-119698705D02*
X164759648Y-119727276D01*
X164759648Y-119727276D02*
X164873934Y-119755848D01*
X164873934Y-119755848D02*
X164959648Y-119755848D01*
X164959648Y-119755848D02*
X165073934Y-119727276D01*
X165073934Y-119727276D02*
X165131077Y-119698705D01*
X165131077Y-119698705D02*
X165188220Y-119641562D01*
X165188220Y-119641562D02*
X165216791Y-119555848D01*
X165216791Y-119555848D02*
X165216791Y-119498705D01*
X165216791Y-119498705D02*
X165188220Y-119412991D01*
X165188220Y-119412991D02*
X165159648Y-119384419D01*
X165159648Y-119384419D02*
X164959648Y-119384419D01*
X164959648Y-119384419D02*
X164959648Y-119498705D01*
X132542857Y-100976434D02*
X132485714Y-100947862D01*
X132485714Y-100947862D02*
X132428571Y-100890720D01*
X132428571Y-100890720D02*
X132342857Y-100805005D01*
X132342857Y-100805005D02*
X132285714Y-100776434D01*
X132285714Y-100776434D02*
X132228571Y-100776434D01*
X132257142Y-100919291D02*
X132200000Y-100890720D01*
X132200000Y-100890720D02*
X132142857Y-100833577D01*
X132142857Y-100833577D02*
X132114285Y-100719291D01*
X132114285Y-100719291D02*
X132114285Y-100519291D01*
X132114285Y-100519291D02*
X132142857Y-100405005D01*
X132142857Y-100405005D02*
X132200000Y-100347862D01*
X132200000Y-100347862D02*
X132257142Y-100319291D01*
X132257142Y-100319291D02*
X132371428Y-100319291D01*
X132371428Y-100319291D02*
X132428571Y-100347862D01*
X132428571Y-100347862D02*
X132485714Y-100405005D01*
X132485714Y-100405005D02*
X132514285Y-100519291D01*
X132514285Y-100519291D02*
X132514285Y-100719291D01*
X132514285Y-100719291D02*
X132485714Y-100833577D01*
X132485714Y-100833577D02*
X132428571Y-100890720D01*
X132428571Y-100890720D02*
X132371428Y-100919291D01*
X132371428Y-100919291D02*
X132257142Y-100919291D01*
X133028571Y-100519291D02*
X133028571Y-100919291D01*
X132885713Y-100290720D02*
X132742856Y-100719291D01*
X132742856Y-100719291D02*
X133114285Y-100719291D01*
X157100000Y-107666791D02*
X156900000Y-107381077D01*
X156757143Y-107666791D02*
X156757143Y-107066791D01*
X156757143Y-107066791D02*
X156985714Y-107066791D01*
X156985714Y-107066791D02*
X157042857Y-107095362D01*
X157042857Y-107095362D02*
X157071428Y-107123934D01*
X157071428Y-107123934D02*
X157100000Y-107181077D01*
X157100000Y-107181077D02*
X157100000Y-107266791D01*
X157100000Y-107266791D02*
X157071428Y-107323934D01*
X157071428Y-107323934D02*
X157042857Y-107352505D01*
X157042857Y-107352505D02*
X156985714Y-107381077D01*
X156985714Y-107381077D02*
X156757143Y-107381077D01*
X157328571Y-107123934D02*
X157357143Y-107095362D01*
X157357143Y-107095362D02*
X157414286Y-107066791D01*
X157414286Y-107066791D02*
X157557143Y-107066791D01*
X157557143Y-107066791D02*
X157614286Y-107095362D01*
X157614286Y-107095362D02*
X157642857Y-107123934D01*
X157642857Y-107123934D02*
X157671428Y-107181077D01*
X157671428Y-107181077D02*
X157671428Y-107238220D01*
X157671428Y-107238220D02*
X157642857Y-107323934D01*
X157642857Y-107323934D02*
X157300000Y-107666791D01*
X157300000Y-107666791D02*
X157671428Y-107666791D01*
X137300000Y-101716791D02*
X137100000Y-101431077D01*
X136957143Y-101716791D02*
X136957143Y-101116791D01*
X136957143Y-101116791D02*
X137185714Y-101116791D01*
X137185714Y-101116791D02*
X137242857Y-101145362D01*
X137242857Y-101145362D02*
X137271428Y-101173934D01*
X137271428Y-101173934D02*
X137300000Y-101231077D01*
X137300000Y-101231077D02*
X137300000Y-101316791D01*
X137300000Y-101316791D02*
X137271428Y-101373934D01*
X137271428Y-101373934D02*
X137242857Y-101402505D01*
X137242857Y-101402505D02*
X137185714Y-101431077D01*
X137185714Y-101431077D02*
X136957143Y-101431077D01*
X137585714Y-101716791D02*
X137700000Y-101716791D01*
X137700000Y-101716791D02*
X137757143Y-101688220D01*
X137757143Y-101688220D02*
X137785714Y-101659648D01*
X137785714Y-101659648D02*
X137842857Y-101573934D01*
X137842857Y-101573934D02*
X137871428Y-101459648D01*
X137871428Y-101459648D02*
X137871428Y-101231077D01*
X137871428Y-101231077D02*
X137842857Y-101173934D01*
X137842857Y-101173934D02*
X137814286Y-101145362D01*
X137814286Y-101145362D02*
X137757143Y-101116791D01*
X137757143Y-101116791D02*
X137642857Y-101116791D01*
X137642857Y-101116791D02*
X137585714Y-101145362D01*
X137585714Y-101145362D02*
X137557143Y-101173934D01*
X137557143Y-101173934D02*
X137528571Y-101231077D01*
X137528571Y-101231077D02*
X137528571Y-101373934D01*
X137528571Y-101373934D02*
X137557143Y-101431077D01*
X137557143Y-101431077D02*
X137585714Y-101459648D01*
X137585714Y-101459648D02*
X137642857Y-101488220D01*
X137642857Y-101488220D02*
X137757143Y-101488220D01*
X137757143Y-101488220D02*
X137814286Y-101459648D01*
X137814286Y-101459648D02*
X137842857Y-101431077D01*
X137842857Y-101431077D02*
X137871428Y-101373934D01*
X147709420Y-105272371D02*
X147509420Y-104986657D01*
X147366563Y-105272371D02*
X147366563Y-104672371D01*
X147366563Y-104672371D02*
X147595134Y-104672371D01*
X147595134Y-104672371D02*
X147652277Y-104700942D01*
X147652277Y-104700942D02*
X147680848Y-104729514D01*
X147680848Y-104729514D02*
X147709420Y-104786657D01*
X147709420Y-104786657D02*
X147709420Y-104872371D01*
X147709420Y-104872371D02*
X147680848Y-104929514D01*
X147680848Y-104929514D02*
X147652277Y-104958085D01*
X147652277Y-104958085D02*
X147595134Y-104986657D01*
X147595134Y-104986657D02*
X147366563Y-104986657D01*
X148252277Y-104672371D02*
X147966563Y-104672371D01*
X147966563Y-104672371D02*
X147937991Y-104958085D01*
X147937991Y-104958085D02*
X147966563Y-104929514D01*
X147966563Y-104929514D02*
X148023706Y-104900942D01*
X148023706Y-104900942D02*
X148166563Y-104900942D01*
X148166563Y-104900942D02*
X148223706Y-104929514D01*
X148223706Y-104929514D02*
X148252277Y-104958085D01*
X148252277Y-104958085D02*
X148280848Y-105015228D01*
X148280848Y-105015228D02*
X148280848Y-105158085D01*
X148280848Y-105158085D02*
X148252277Y-105215228D01*
X148252277Y-105215228D02*
X148223706Y-105243800D01*
X148223706Y-105243800D02*
X148166563Y-105272371D01*
X148166563Y-105272371D02*
X148023706Y-105272371D01*
X148023706Y-105272371D02*
X147966563Y-105243800D01*
X147966563Y-105243800D02*
X147937991Y-105215228D01*
X128400000Y-110872371D02*
X128200000Y-110586657D01*
X128057143Y-110872371D02*
X128057143Y-110272371D01*
X128057143Y-110272371D02*
X128285714Y-110272371D01*
X128285714Y-110272371D02*
X128342857Y-110300942D01*
X128342857Y-110300942D02*
X128371428Y-110329514D01*
X128371428Y-110329514D02*
X128400000Y-110386657D01*
X128400000Y-110386657D02*
X128400000Y-110472371D01*
X128400000Y-110472371D02*
X128371428Y-110529514D01*
X128371428Y-110529514D02*
X128342857Y-110558085D01*
X128342857Y-110558085D02*
X128285714Y-110586657D01*
X128285714Y-110586657D02*
X128057143Y-110586657D01*
X128600000Y-110272371D02*
X129000000Y-110272371D01*
X129000000Y-110272371D02*
X128742857Y-110872371D01*
X131742857Y-107829514D02*
X131685714Y-107800942D01*
X131685714Y-107800942D02*
X131628571Y-107743800D01*
X131628571Y-107743800D02*
X131542857Y-107658085D01*
X131542857Y-107658085D02*
X131485714Y-107629514D01*
X131485714Y-107629514D02*
X131428571Y-107629514D01*
X131457142Y-107772371D02*
X131400000Y-107743800D01*
X131400000Y-107743800D02*
X131342857Y-107686657D01*
X131342857Y-107686657D02*
X131314285Y-107572371D01*
X131314285Y-107572371D02*
X131314285Y-107372371D01*
X131314285Y-107372371D02*
X131342857Y-107258085D01*
X131342857Y-107258085D02*
X131400000Y-107200942D01*
X131400000Y-107200942D02*
X131457142Y-107172371D01*
X131457142Y-107172371D02*
X131571428Y-107172371D01*
X131571428Y-107172371D02*
X131628571Y-107200942D01*
X131628571Y-107200942D02*
X131685714Y-107258085D01*
X131685714Y-107258085D02*
X131714285Y-107372371D01*
X131714285Y-107372371D02*
X131714285Y-107572371D01*
X131714285Y-107572371D02*
X131685714Y-107686657D01*
X131685714Y-107686657D02*
X131628571Y-107743800D01*
X131628571Y-107743800D02*
X131571428Y-107772371D01*
X131571428Y-107772371D02*
X131457142Y-107772371D01*
X132285713Y-107772371D02*
X131942856Y-107772371D01*
X132114285Y-107772371D02*
X132114285Y-107172371D01*
X132114285Y-107172371D02*
X132057142Y-107258085D01*
X132057142Y-107258085D02*
X131999999Y-107315228D01*
X131999999Y-107315228D02*
X131942856Y-107343800D01*
X135157143Y-106856791D02*
X135157143Y-106256791D01*
X135157143Y-106256791D02*
X135300000Y-106256791D01*
X135300000Y-106256791D02*
X135385714Y-106285362D01*
X135385714Y-106285362D02*
X135442857Y-106342505D01*
X135442857Y-106342505D02*
X135471428Y-106399648D01*
X135471428Y-106399648D02*
X135500000Y-106513934D01*
X135500000Y-106513934D02*
X135500000Y-106599648D01*
X135500000Y-106599648D02*
X135471428Y-106713934D01*
X135471428Y-106713934D02*
X135442857Y-106771077D01*
X135442857Y-106771077D02*
X135385714Y-106828220D01*
X135385714Y-106828220D02*
X135300000Y-106856791D01*
X135300000Y-106856791D02*
X135157143Y-106856791D01*
X135728571Y-106313934D02*
X135757143Y-106285362D01*
X135757143Y-106285362D02*
X135814286Y-106256791D01*
X135814286Y-106256791D02*
X135957143Y-106256791D01*
X135957143Y-106256791D02*
X136014286Y-106285362D01*
X136014286Y-106285362D02*
X136042857Y-106313934D01*
X136042857Y-106313934D02*
X136071428Y-106371077D01*
X136071428Y-106371077D02*
X136071428Y-106428220D01*
X136071428Y-106428220D02*
X136042857Y-106513934D01*
X136042857Y-106513934D02*
X135700000Y-106856791D01*
X135700000Y-106856791D02*
X136071428Y-106856791D01*
X142900000Y-100315228D02*
X142871428Y-100343800D01*
X142871428Y-100343800D02*
X142785714Y-100372371D01*
X142785714Y-100372371D02*
X142728571Y-100372371D01*
X142728571Y-100372371D02*
X142642857Y-100343800D01*
X142642857Y-100343800D02*
X142585714Y-100286657D01*
X142585714Y-100286657D02*
X142557143Y-100229514D01*
X142557143Y-100229514D02*
X142528571Y-100115228D01*
X142528571Y-100115228D02*
X142528571Y-100029514D01*
X142528571Y-100029514D02*
X142557143Y-99915228D01*
X142557143Y-99915228D02*
X142585714Y-99858085D01*
X142585714Y-99858085D02*
X142642857Y-99800942D01*
X142642857Y-99800942D02*
X142728571Y-99772371D01*
X142728571Y-99772371D02*
X142785714Y-99772371D01*
X142785714Y-99772371D02*
X142871428Y-99800942D01*
X142871428Y-99800942D02*
X142900000Y-99829514D01*
X143442857Y-99772371D02*
X143157143Y-99772371D01*
X143157143Y-99772371D02*
X143128571Y-100058085D01*
X143128571Y-100058085D02*
X143157143Y-100029514D01*
X143157143Y-100029514D02*
X143214286Y-100000942D01*
X143214286Y-100000942D02*
X143357143Y-100000942D01*
X143357143Y-100000942D02*
X143414286Y-100029514D01*
X143414286Y-100029514D02*
X143442857Y-100058085D01*
X143442857Y-100058085D02*
X143471428Y-100115228D01*
X143471428Y-100115228D02*
X143471428Y-100258085D01*
X143471428Y-100258085D02*
X143442857Y-100315228D01*
X143442857Y-100315228D02*
X143414286Y-100343800D01*
X143414286Y-100343800D02*
X143357143Y-100372371D01*
X143357143Y-100372371D02*
X143214286Y-100372371D01*
X143214286Y-100372371D02*
X143157143Y-100343800D01*
X143157143Y-100343800D02*
X143128571Y-100315228D01*
X157100000Y-105116791D02*
X156900000Y-104831077D01*
X156757143Y-105116791D02*
X156757143Y-104516791D01*
X156757143Y-104516791D02*
X156985714Y-104516791D01*
X156985714Y-104516791D02*
X157042857Y-104545362D01*
X157042857Y-104545362D02*
X157071428Y-104573934D01*
X157071428Y-104573934D02*
X157100000Y-104631077D01*
X157100000Y-104631077D02*
X157100000Y-104716791D01*
X157100000Y-104716791D02*
X157071428Y-104773934D01*
X157071428Y-104773934D02*
X157042857Y-104802505D01*
X157042857Y-104802505D02*
X156985714Y-104831077D01*
X156985714Y-104831077D02*
X156757143Y-104831077D01*
X157671428Y-105116791D02*
X157328571Y-105116791D01*
X157500000Y-105116791D02*
X157500000Y-104516791D01*
X157500000Y-104516791D02*
X157442857Y-104602505D01*
X157442857Y-104602505D02*
X157385714Y-104659648D01*
X157385714Y-104659648D02*
X157328571Y-104688220D01*
X150900000Y-109609648D02*
X150871428Y-109638220D01*
X150871428Y-109638220D02*
X150785714Y-109666791D01*
X150785714Y-109666791D02*
X150728571Y-109666791D01*
X150728571Y-109666791D02*
X150642857Y-109638220D01*
X150642857Y-109638220D02*
X150585714Y-109581077D01*
X150585714Y-109581077D02*
X150557143Y-109523934D01*
X150557143Y-109523934D02*
X150528571Y-109409648D01*
X150528571Y-109409648D02*
X150528571Y-109323934D01*
X150528571Y-109323934D02*
X150557143Y-109209648D01*
X150557143Y-109209648D02*
X150585714Y-109152505D01*
X150585714Y-109152505D02*
X150642857Y-109095362D01*
X150642857Y-109095362D02*
X150728571Y-109066791D01*
X150728571Y-109066791D02*
X150785714Y-109066791D01*
X150785714Y-109066791D02*
X150871428Y-109095362D01*
X150871428Y-109095362D02*
X150900000Y-109123934D01*
X151100000Y-109066791D02*
X151500000Y-109066791D01*
X151500000Y-109066791D02*
X151242857Y-109666791D01*
D12*
%TO.C,C1*%
X148199420Y-102053840D02*
X148199420Y-102335000D01*
X149219420Y-102053840D02*
X149219420Y-102335000D01*
%TO.C,Q3*%
X122524420Y-107521920D02*
X122524420Y-106871920D01*
X122524420Y-107521920D02*
X122524420Y-108171920D01*
X125644420Y-107521920D02*
X125644420Y-106871920D01*
X125644420Y-107521920D02*
X125644420Y-108171920D01*
X122574420Y-108684420D02*
X122244420Y-108924420D01*
X122244420Y-108444420D01*
X122574420Y-108684420D01*
G36*
X122574420Y-108684420D02*
G01*
X122244420Y-108924420D01*
X122244420Y-108444420D01*
X122574420Y-108684420D01*
G37*
%TO.C,R3*%
X141961920Y-116047162D02*
X141961920Y-116521678D01*
X143006920Y-116047162D02*
X143006920Y-116521678D01*
%TO.C,U1*%
X147349420Y-114206920D02*
X147349420Y-113406920D01*
X147349420Y-114206920D02*
X147349420Y-115006920D01*
X150469420Y-114206920D02*
X150469420Y-113406920D01*
X150469420Y-114206920D02*
X150469420Y-115006920D01*
X150749420Y-113146920D02*
X150419420Y-112906920D01*
X150749420Y-112666920D01*
X150749420Y-113146920D01*
G36*
X150749420Y-113146920D02*
G01*
X150419420Y-112906920D01*
X150749420Y-112666920D01*
X150749420Y-113146920D01*
G37*
%TO.C,U3*%
X140199420Y-109431920D02*
X140199420Y-107231920D01*
X140199420Y-109431920D02*
X140199420Y-111631920D01*
X146969420Y-109431920D02*
X146969420Y-107231920D01*
X146969420Y-109431920D02*
X146969420Y-111631920D01*
X146509420Y-105571920D02*
X146269420Y-105241920D01*
X146749420Y-105241920D01*
X146509420Y-105571920D01*
G36*
X146509420Y-105571920D02*
G01*
X146269420Y-105241920D01*
X146749420Y-105241920D01*
X146509420Y-105571920D01*
G37*
%TO.C,R11*%
X125121678Y-103561920D02*
X124647162Y-103561920D01*
X125121678Y-104606920D02*
X124647162Y-104606920D01*
D13*
%TO.C,G\u002A\u002A\u002A*%
G36*
X175884957Y-106868733D02*
G01*
X175879123Y-106874567D01*
X175873289Y-106868733D01*
X175879123Y-106862900D01*
X175884957Y-106868733D01*
G37*
G36*
X175881067Y-102468167D02*
G01*
X175882464Y-102482013D01*
X175881067Y-102483723D01*
X175874131Y-102482122D01*
X175873289Y-102475945D01*
X175877558Y-102466342D01*
X175881067Y-102468167D01*
G37*
G36*
X175881067Y-102526504D02*
G01*
X175882464Y-102540351D01*
X175881067Y-102542061D01*
X175874131Y-102540459D01*
X175873289Y-102534282D01*
X175877558Y-102524679D01*
X175881067Y-102526504D01*
G37*
G36*
X175208769Y-105882206D02*
G01*
X175254604Y-105910137D01*
X175288007Y-105951934D01*
X175309483Y-106005776D01*
X175309691Y-106056552D01*
X175295698Y-106096920D01*
X175262163Y-106142270D01*
X175215571Y-106172187D01*
X175161748Y-106184944D01*
X175106523Y-106178813D01*
X175071720Y-106163326D01*
X175028510Y-106124741D01*
X175004523Y-106075722D01*
X175000683Y-106020310D01*
X175017910Y-105962549D01*
X175023477Y-105951934D01*
X175060181Y-105907285D01*
X175106601Y-105880780D01*
X175157782Y-105872421D01*
X175208769Y-105882206D01*
G37*
G36*
X177409705Y-101859618D02*
G01*
X177443322Y-101865123D01*
X177457726Y-101871572D01*
X177463602Y-101887035D01*
X177467816Y-101920916D01*
X177470464Y-101974670D01*
X177471643Y-102049751D01*
X177471727Y-102081586D01*
X177471727Y-102277599D01*
X177499648Y-102277599D01*
X177523999Y-102284483D01*
X177534650Y-102296054D01*
X177537190Y-102313919D01*
X177539326Y-102350381D01*
X177540879Y-102400703D01*
X177541669Y-102460148D01*
X177541732Y-102482733D01*
X177541732Y-102650957D01*
X177366720Y-102650957D01*
X177191709Y-102650957D01*
X177191709Y-102476789D01*
X177191709Y-102302622D01*
X177238379Y-102282031D01*
X177285048Y-102261441D01*
X177285048Y-102059506D01*
X177285048Y-101857571D01*
X177364387Y-101857571D01*
X177409705Y-101859618D01*
G37*
G36*
X177968086Y-101859487D02*
G01*
X178002033Y-101864401D01*
X178015205Y-101870020D01*
X178021567Y-101880062D01*
X178026159Y-101900063D01*
X178029220Y-101933085D01*
X178030992Y-101982192D01*
X178031714Y-102050445D01*
X178031764Y-102080681D01*
X178031764Y-102277599D01*
X178059684Y-102277599D01*
X178084036Y-102284483D01*
X178094687Y-102296054D01*
X178097226Y-102313919D01*
X178099362Y-102350381D01*
X178100915Y-102400703D01*
X178101706Y-102460148D01*
X178101769Y-102482733D01*
X178101769Y-102650957D01*
X177926757Y-102650957D01*
X177751746Y-102650957D01*
X177751746Y-102476789D01*
X177751746Y-102302622D01*
X177798415Y-102282031D01*
X177845085Y-102261441D01*
X177845085Y-102061345D01*
X177845085Y-101861249D01*
X177921865Y-101858763D01*
X177968086Y-101859487D01*
G37*
G36*
X177033891Y-104763296D02*
G01*
X177053699Y-104766277D01*
X177059802Y-104773774D01*
X177057013Y-104787855D01*
X177056649Y-104789014D01*
X177050688Y-104806977D01*
X177038280Y-104843700D01*
X177020551Y-104895874D01*
X176998629Y-104960185D01*
X176973639Y-105033324D01*
X176952430Y-105095284D01*
X176856501Y-105375302D01*
X176783446Y-105378814D01*
X176743203Y-105379821D01*
X176722005Y-105377384D01*
X176715708Y-105370689D01*
X176716762Y-105365724D01*
X176722207Y-105350347D01*
X176734040Y-105316185D01*
X176751124Y-105266542D01*
X176772323Y-105204724D01*
X176796501Y-105134033D01*
X176812208Y-105088028D01*
X176838065Y-105012419D01*
X176862050Y-104942628D01*
X176882931Y-104882214D01*
X176899473Y-104834740D01*
X176910444Y-104803765D01*
X176913736Y-104794847D01*
X176922516Y-104776890D01*
X176935400Y-104767280D01*
X176958981Y-104763433D01*
X176995564Y-104762762D01*
X177033891Y-104763296D01*
G37*
G36*
X177541732Y-106838424D02*
G01*
X177541732Y-107012294D01*
X177506730Y-107024495D01*
X177471727Y-107036697D01*
X177471727Y-107228475D01*
X177471637Y-107299365D01*
X177471032Y-107350572D01*
X177469416Y-107385748D01*
X177466288Y-107408544D01*
X177461151Y-107422612D01*
X177453506Y-107431604D01*
X177442969Y-107439096D01*
X177407263Y-107452908D01*
X177364171Y-107456932D01*
X177324392Y-107450964D01*
X177305466Y-107441697D01*
X177297534Y-107433142D01*
X177291936Y-107419025D01*
X177288280Y-107395652D01*
X177286175Y-107359328D01*
X177285231Y-107306357D01*
X177285048Y-107248789D01*
X177284321Y-107185303D01*
X177282320Y-107128933D01*
X177279312Y-107084354D01*
X177275566Y-107056237D01*
X177273627Y-107050039D01*
X177254830Y-107031087D01*
X177226958Y-107016411D01*
X177191709Y-107004123D01*
X177191709Y-106834338D01*
X177191709Y-106664553D01*
X177366720Y-106664553D01*
X177541732Y-106664553D01*
X177541732Y-106838424D01*
G37*
G36*
X178712313Y-103633624D02*
G01*
X178877502Y-103636855D01*
X178898087Y-103680608D01*
X178918673Y-103724360D01*
X179116398Y-103724360D01*
X179314124Y-103724360D01*
X179321800Y-103765274D01*
X179324879Y-103803651D01*
X179322961Y-103847968D01*
X179321614Y-103858614D01*
X179313752Y-103911039D01*
X179115870Y-103911039D01*
X178917989Y-103911039D01*
X178903797Y-103943125D01*
X178891990Y-103966393D01*
X178877860Y-103982813D01*
X178857396Y-103993581D01*
X178826588Y-103999895D01*
X178781423Y-104002950D01*
X178717892Y-104003944D01*
X178699725Y-104004008D01*
X178637195Y-104004022D01*
X178594265Y-104003298D01*
X178567198Y-104001216D01*
X178552260Y-103997157D01*
X178545715Y-103990502D01*
X178543827Y-103980630D01*
X178543675Y-103978127D01*
X178541255Y-103923539D01*
X178539538Y-103862809D01*
X178538565Y-103801444D01*
X178538378Y-103744951D01*
X178539019Y-103698834D01*
X178540530Y-103668601D01*
X178541272Y-103662792D01*
X178547123Y-103630392D01*
X178712313Y-103633624D01*
G37*
G36*
X176768586Y-106658642D02*
G01*
X176844471Y-106660146D01*
X176902940Y-106661904D01*
X176981695Y-106664553D01*
X176981695Y-106838424D01*
X176981695Y-107012294D01*
X176946693Y-107024495D01*
X176911691Y-107036697D01*
X176911691Y-107228475D01*
X176911600Y-107299365D01*
X176910996Y-107350572D01*
X176909379Y-107385748D01*
X176906251Y-107408544D01*
X176901114Y-107422612D01*
X176893469Y-107431604D01*
X176882932Y-107439096D01*
X176847422Y-107452850D01*
X176804501Y-107456953D01*
X176764851Y-107451185D01*
X176745728Y-107441915D01*
X176738088Y-107433367D01*
X176732469Y-107418732D01*
X176728475Y-107394510D01*
X176725711Y-107357204D01*
X176723783Y-107303316D01*
X176722393Y-107235198D01*
X176719178Y-107043762D01*
X176675457Y-107020419D01*
X176631735Y-106997075D01*
X176631704Y-106832063D01*
X176632305Y-106761345D01*
X176634280Y-106711489D01*
X176637838Y-106680050D01*
X176643188Y-106664582D01*
X176646256Y-106662175D01*
X176667018Y-106659659D01*
X176708615Y-106658480D01*
X176768586Y-106658642D01*
G37*
G36*
X178712319Y-105311163D02*
G01*
X178877653Y-105311194D01*
X178900996Y-105354916D01*
X178924340Y-105398637D01*
X179116341Y-105401854D01*
X179196577Y-105403848D01*
X179255148Y-105406855D01*
X179293707Y-105411018D01*
X179313906Y-105416481D01*
X179317417Y-105419356D01*
X179323938Y-105442789D01*
X179326379Y-105479546D01*
X179324911Y-105520004D01*
X179319703Y-105554543D01*
X179314771Y-105568582D01*
X179308798Y-105576876D01*
X179298814Y-105582853D01*
X179281343Y-105586888D01*
X179252909Y-105589357D01*
X179210034Y-105590637D01*
X179149244Y-105591103D01*
X179106216Y-105591150D01*
X178909738Y-105591150D01*
X178902738Y-105626152D01*
X178895737Y-105661154D01*
X178720434Y-105661154D01*
X178545131Y-105661154D01*
X178544046Y-105629069D01*
X178543139Y-105603334D01*
X178541624Y-105561494D01*
X178539764Y-105510760D01*
X178538854Y-105486143D01*
X178537672Y-105433748D01*
X178537969Y-105386883D01*
X178539643Y-105352755D01*
X178540866Y-105343217D01*
X178546985Y-105311131D01*
X178712319Y-105311163D01*
G37*
G36*
X174531534Y-103817700D02*
G01*
X174531534Y-104004379D01*
X174376941Y-104003912D01*
X174304564Y-104002834D01*
X174251973Y-103999884D01*
X174215670Y-103994724D01*
X174192156Y-103987021D01*
X174190262Y-103986038D01*
X174163830Y-103962188D01*
X174158177Y-103939835D01*
X174158177Y-103911039D01*
X173955245Y-103911039D01*
X173879082Y-103911103D01*
X173823140Y-103910297D01*
X173784311Y-103907121D01*
X173759489Y-103900078D01*
X173745568Y-103887669D01*
X173739441Y-103868397D01*
X173738002Y-103840761D01*
X173738149Y-103806327D01*
X173739960Y-103764417D01*
X173746170Y-103740880D01*
X173756604Y-103731442D01*
X173774082Y-103729056D01*
X173810528Y-103727013D01*
X173861577Y-103725459D01*
X173922863Y-103724544D01*
X173966618Y-103724360D01*
X174158177Y-103724360D01*
X174158177Y-103694358D01*
X174160027Y-103671419D01*
X174167687Y-103654757D01*
X174184324Y-103643386D01*
X174213104Y-103636321D01*
X174257193Y-103632575D01*
X174319757Y-103631161D01*
X174361523Y-103631021D01*
X174531534Y-103631021D01*
X174531534Y-103817700D01*
G37*
G36*
X174531534Y-105486143D02*
G01*
X174531534Y-105661154D01*
X174359440Y-105660233D01*
X174297590Y-105659524D01*
X174243548Y-105658196D01*
X174201856Y-105656414D01*
X174177051Y-105654343D01*
X174172761Y-105653427D01*
X174161483Y-105638509D01*
X174158177Y-105619346D01*
X174158177Y-105591150D01*
X173955245Y-105591150D01*
X173879082Y-105591214D01*
X173823140Y-105590407D01*
X173784311Y-105587231D01*
X173759489Y-105580188D01*
X173745568Y-105567780D01*
X173739441Y-105548507D01*
X173738002Y-105520872D01*
X173738149Y-105486437D01*
X173739960Y-105444527D01*
X173746170Y-105420990D01*
X173756604Y-105411553D01*
X173774082Y-105409166D01*
X173810528Y-105407123D01*
X173861577Y-105405570D01*
X173922863Y-105404654D01*
X173966618Y-105404471D01*
X174158177Y-105404471D01*
X174158177Y-105374469D01*
X174160027Y-105351529D01*
X174167687Y-105334867D01*
X174184324Y-105323497D01*
X174213104Y-105316431D01*
X174257193Y-105312685D01*
X174319757Y-105311272D01*
X174361523Y-105311131D01*
X174531534Y-105311131D01*
X174531534Y-105486143D01*
G37*
G36*
X175155797Y-106659620D02*
G01*
X175216707Y-106662446D01*
X175219913Y-106662688D01*
X175319086Y-106670387D01*
X175322655Y-106798729D01*
X175322952Y-106879600D01*
X175318313Y-106939933D01*
X175308118Y-106982119D01*
X175291743Y-107008552D01*
X175268567Y-107021627D01*
X175264480Y-107022581D01*
X175231580Y-107029161D01*
X175231580Y-107224707D01*
X175231494Y-107296385D01*
X175230914Y-107348338D01*
X175229355Y-107384175D01*
X175226333Y-107407506D01*
X175221365Y-107421939D01*
X175213965Y-107431085D01*
X175203650Y-107438553D01*
X175202822Y-107439096D01*
X175167312Y-107452850D01*
X175124391Y-107456953D01*
X175084741Y-107451185D01*
X175065617Y-107441915D01*
X175057978Y-107433367D01*
X175052359Y-107418732D01*
X175048365Y-107394510D01*
X175045601Y-107357204D01*
X175043673Y-107303316D01*
X175042282Y-107235198D01*
X175039068Y-107043762D01*
X174995346Y-107020419D01*
X174951625Y-106997075D01*
X174951593Y-106832424D01*
X174951562Y-106667772D01*
X175036151Y-106661381D01*
X175091119Y-106659233D01*
X175155797Y-106659620D01*
G37*
G36*
X176313258Y-106659478D02*
G01*
X176361756Y-106662130D01*
X176398651Y-106666138D01*
X176418719Y-106671292D01*
X176420461Y-106672690D01*
X176422761Y-106687174D01*
X176424240Y-106720493D01*
X176424805Y-106768162D01*
X176424367Y-106825691D01*
X176423988Y-106845979D01*
X176420484Y-107009904D01*
X176386069Y-107022894D01*
X176351654Y-107035884D01*
X176351654Y-107226817D01*
X176351460Y-107298150D01*
X176350606Y-107349840D01*
X176348680Y-107385581D01*
X176345272Y-107409063D01*
X176339972Y-107423978D01*
X176332369Y-107434018D01*
X176328186Y-107437845D01*
X176297863Y-107451841D01*
X176256600Y-107457277D01*
X176215287Y-107453843D01*
X176185691Y-107441915D01*
X176178052Y-107433367D01*
X176172432Y-107418732D01*
X176168438Y-107394510D01*
X176165675Y-107357204D01*
X176163746Y-107303316D01*
X176162356Y-107235198D01*
X176159141Y-107043762D01*
X176115420Y-107020419D01*
X176071698Y-106997075D01*
X176071667Y-106832490D01*
X176071635Y-106667904D01*
X176150391Y-106661774D01*
X176202351Y-106659089D01*
X176258382Y-106658395D01*
X176313258Y-106659478D01*
G37*
G36*
X177241550Y-104764278D02*
G01*
X177266298Y-104768211D01*
X177273381Y-104772534D01*
X177269828Y-104785392D01*
X177260062Y-104816333D01*
X177245421Y-104861361D01*
X177227242Y-104916479D01*
X177206863Y-104977690D01*
X177185624Y-105040999D01*
X177164861Y-105102409D01*
X177145913Y-105157923D01*
X177130117Y-105203546D01*
X177118812Y-105235281D01*
X177115516Y-105244044D01*
X177113939Y-105252490D01*
X177119341Y-105258231D01*
X177135238Y-105261780D01*
X177165145Y-105263656D01*
X177212576Y-105264373D01*
X177254632Y-105264462D01*
X177317380Y-105264566D01*
X177360024Y-105266042D01*
X177385793Y-105270637D01*
X177397914Y-105280096D01*
X177399615Y-105296166D01*
X177394124Y-105320593D01*
X177389442Y-105337383D01*
X177377291Y-105381136D01*
X177154798Y-105381136D01*
X176932305Y-105381136D01*
X176938193Y-105354884D01*
X176943469Y-105336958D01*
X176955232Y-105300250D01*
X176972394Y-105248051D01*
X176993867Y-105183651D01*
X177018561Y-105110339D01*
X177040514Y-105045697D01*
X177136946Y-104762762D01*
X177205164Y-104762762D01*
X177241550Y-104764278D01*
G37*
G36*
X178877653Y-105871231D02*
G01*
X178900997Y-105914952D01*
X178924341Y-105958674D01*
X179118473Y-105961867D01*
X179189865Y-105963153D01*
X179241347Y-105964628D01*
X179276341Y-105966788D01*
X179298269Y-105970130D01*
X179310553Y-105975151D01*
X179316616Y-105982346D01*
X179319567Y-105991035D01*
X179326340Y-106042309D01*
X179321937Y-106093812D01*
X179313309Y-106121469D01*
X179299769Y-106151186D01*
X179105853Y-106151186D01*
X178911937Y-106151186D01*
X178898725Y-106186189D01*
X178885514Y-106221191D01*
X178715322Y-106221191D01*
X178644750Y-106220662D01*
X178594953Y-106218932D01*
X178563391Y-106215783D01*
X178547524Y-106210999D01*
X178544399Y-106206607D01*
X178542125Y-106150974D01*
X178540489Y-106090353D01*
X178539533Y-106029991D01*
X178539299Y-105975138D01*
X178539829Y-105931039D01*
X178541165Y-105902944D01*
X178541922Y-105897420D01*
X178545026Y-105887084D01*
X178551522Y-105879895D01*
X178565119Y-105875282D01*
X178589524Y-105872675D01*
X178628448Y-105871506D01*
X178685599Y-105871205D01*
X178712657Y-105871200D01*
X178877653Y-105871231D01*
G37*
G36*
X175624421Y-106659854D02*
G01*
X175683564Y-106660771D01*
X175762742Y-106662343D01*
X175768282Y-106662460D01*
X175867455Y-106664557D01*
X175866306Y-106824982D01*
X175865852Y-106894635D01*
X175865177Y-106944521D01*
X175863570Y-106978203D01*
X175860324Y-106999244D01*
X175854730Y-107011207D01*
X175846078Y-107017654D01*
X175833661Y-107022148D01*
X175826619Y-107024495D01*
X175791617Y-107036697D01*
X175791526Y-107232734D01*
X175791435Y-107428770D01*
X175760031Y-107443354D01*
X175719608Y-107454797D01*
X175675486Y-107456526D01*
X175637863Y-107448651D01*
X175625654Y-107441915D01*
X175618015Y-107433367D01*
X175612396Y-107418732D01*
X175608402Y-107394510D01*
X175605638Y-107357204D01*
X175603710Y-107303316D01*
X175602319Y-107235198D01*
X175599104Y-107043762D01*
X175555383Y-107020419D01*
X175511662Y-106997075D01*
X175511630Y-106832063D01*
X175512221Y-106761571D01*
X175514165Y-106711921D01*
X175517676Y-106680646D01*
X175522964Y-106665279D01*
X175526183Y-106662833D01*
X175536195Y-106661082D01*
X175553838Y-106660004D01*
X175582213Y-106659597D01*
X175624421Y-106659854D01*
G37*
G36*
X174531534Y-104377737D02*
G01*
X174531534Y-104564416D01*
X174392214Y-104564416D01*
X174328327Y-104563374D01*
X174280794Y-104560397D01*
X174252251Y-104555708D01*
X174245191Y-104551953D01*
X174229300Y-104544453D01*
X174220322Y-104546077D01*
X174192533Y-104546048D01*
X174169032Y-104529318D01*
X174158239Y-104502151D01*
X174158177Y-104499834D01*
X174158177Y-104471076D01*
X173954219Y-104471076D01*
X173877333Y-104471137D01*
X173820775Y-104470225D01*
X173781548Y-104466695D01*
X173756654Y-104458904D01*
X173743096Y-104445207D01*
X173737876Y-104423959D01*
X173737998Y-104393518D01*
X173740377Y-104353778D01*
X173743983Y-104290231D01*
X173951080Y-104287045D01*
X174025087Y-104285826D01*
X174078965Y-104284490D01*
X174115916Y-104282586D01*
X174139142Y-104279664D01*
X174151846Y-104275274D01*
X174157232Y-104268965D01*
X174158501Y-104260287D01*
X174158548Y-104257876D01*
X174160595Y-104233590D01*
X174168080Y-104215991D01*
X174184216Y-104204015D01*
X174212216Y-104196602D01*
X174255293Y-104192689D01*
X174316660Y-104191214D01*
X174360726Y-104191058D01*
X174531534Y-104191058D01*
X174531534Y-104377737D01*
G37*
G36*
X178712248Y-104753697D02*
G01*
X178877372Y-104756928D01*
X178893898Y-104791931D01*
X178909045Y-104818752D01*
X178922831Y-104835243D01*
X178923207Y-104835505D01*
X178938719Y-104838418D01*
X178973317Y-104840930D01*
X179022755Y-104842854D01*
X179082786Y-104844008D01*
X179124338Y-104844255D01*
X179195944Y-104844613D01*
X179247540Y-104845739D01*
X179282446Y-104847950D01*
X179303983Y-104851563D01*
X179315471Y-104856895D01*
X179319767Y-104862889D01*
X179325795Y-104895716D01*
X179326054Y-104939208D01*
X179320911Y-104981517D01*
X179315470Y-105001185D01*
X179304092Y-105031113D01*
X179106384Y-105031113D01*
X178908676Y-105031113D01*
X178901117Y-105065525D01*
X178893559Y-105099936D01*
X178724040Y-105103444D01*
X178660433Y-105104028D01*
X178607616Y-105103086D01*
X178569393Y-105100777D01*
X178549567Y-105097260D01*
X178547792Y-105096024D01*
X178544452Y-105079571D01*
X178541563Y-105045386D01*
X178539254Y-104999070D01*
X178537652Y-104946223D01*
X178536887Y-104892447D01*
X178537086Y-104843343D01*
X178538380Y-104804510D01*
X178540606Y-104782866D01*
X178547123Y-104750466D01*
X178712248Y-104753697D01*
G37*
G36*
X175168636Y-101859500D02*
G01*
X175201254Y-101864607D01*
X175217579Y-101871572D01*
X175223455Y-101887035D01*
X175227669Y-101920916D01*
X175230317Y-101974670D01*
X175231496Y-102049751D01*
X175231580Y-102081586D01*
X175231580Y-102277599D01*
X175259784Y-102277599D01*
X175285475Y-102286940D01*
X175304314Y-102315535D01*
X175316532Y-102364241D01*
X175322359Y-102433916D01*
X175322441Y-102510948D01*
X175319086Y-102645123D01*
X175135324Y-102648336D01*
X174951562Y-102651549D01*
X174951562Y-102487909D01*
X174951877Y-102421844D01*
X174953147Y-102375023D01*
X174955861Y-102343362D01*
X174960505Y-102322773D01*
X174967568Y-102309172D01*
X174973745Y-102302086D01*
X175000253Y-102281862D01*
X175020415Y-102272131D01*
X175029381Y-102268277D01*
X175035841Y-102261014D01*
X175040205Y-102246926D01*
X175042884Y-102222598D01*
X175044286Y-102184616D01*
X175044822Y-102129566D01*
X175044901Y-102068047D01*
X175045172Y-101994801D01*
X175046180Y-101941630D01*
X175048221Y-101905280D01*
X175051590Y-101882495D01*
X175056583Y-101870020D01*
X175063357Y-101864653D01*
X175091122Y-101859139D01*
X175129070Y-101857549D01*
X175168636Y-101859500D01*
G37*
G36*
X176848746Y-101859500D02*
G01*
X176881365Y-101864607D01*
X176897690Y-101871572D01*
X176903566Y-101887035D01*
X176907779Y-101920916D01*
X176910427Y-101974670D01*
X176911607Y-102049751D01*
X176911691Y-102081586D01*
X176911691Y-102277599D01*
X176939718Y-102277599D01*
X176958196Y-102281709D01*
X176971490Y-102295835D01*
X176980148Y-102322675D01*
X176984715Y-102364923D01*
X176985740Y-102425277D01*
X176984117Y-102496363D01*
X176978936Y-102650957D01*
X176805304Y-102650957D01*
X176631672Y-102650957D01*
X176631672Y-102483587D01*
X176632131Y-102412500D01*
X176634291Y-102361037D01*
X176639330Y-102325497D01*
X176648423Y-102302174D01*
X176662746Y-102287367D01*
X176683476Y-102277370D01*
X176698760Y-102272359D01*
X176708362Y-102268709D01*
X176715280Y-102262237D01*
X176719956Y-102249524D01*
X176722827Y-102227149D01*
X176724334Y-102191692D01*
X176724915Y-102139733D01*
X176725012Y-102068047D01*
X176725282Y-101994801D01*
X176726290Y-101941630D01*
X176728331Y-101905280D01*
X176731700Y-101882495D01*
X176736694Y-101870020D01*
X176743467Y-101864653D01*
X176771232Y-101859139D01*
X176809180Y-101857549D01*
X176848746Y-101859500D01*
G37*
G36*
X178898279Y-104237727D02*
G01*
X178916612Y-104284397D01*
X179115368Y-104284397D01*
X179314124Y-104284397D01*
X179321954Y-104326135D01*
X179324555Y-104365798D01*
X179320849Y-104409538D01*
X179319525Y-104416557D01*
X179309265Y-104465242D01*
X179112755Y-104468446D01*
X178916245Y-104471651D01*
X178903142Y-104506366D01*
X178887060Y-104532300D01*
X178869261Y-104541081D01*
X178851737Y-104546499D01*
X178848484Y-104552748D01*
X178837726Y-104557933D01*
X178808988Y-104561643D01*
X178767580Y-104563909D01*
X178718809Y-104564757D01*
X178667982Y-104564218D01*
X178620408Y-104562319D01*
X178581394Y-104559089D01*
X178556248Y-104554556D01*
X178549973Y-104551143D01*
X178546494Y-104534513D01*
X178543404Y-104499986D01*
X178540841Y-104452996D01*
X178538942Y-104398978D01*
X178537845Y-104343367D01*
X178537690Y-104291600D01*
X178538612Y-104249112D01*
X178540752Y-104221337D01*
X178541497Y-104217309D01*
X178544765Y-104207003D01*
X178551378Y-104199823D01*
X178565039Y-104195204D01*
X178589453Y-104192582D01*
X178628325Y-104191392D01*
X178685359Y-104191070D01*
X178713804Y-104191058D01*
X178879947Y-104191058D01*
X178898279Y-104237727D01*
G37*
G36*
X174358494Y-105871168D02*
G01*
X174531534Y-105871168D01*
X174531534Y-106046179D01*
X174531534Y-106221191D01*
X174359440Y-106220270D01*
X174297590Y-106219561D01*
X174243548Y-106218233D01*
X174201856Y-106216451D01*
X174177051Y-106214380D01*
X174172761Y-106213464D01*
X174161483Y-106198545D01*
X174158177Y-106179383D01*
X174158177Y-106151186D01*
X173955245Y-106151186D01*
X173879082Y-106151250D01*
X173823140Y-106150444D01*
X173784311Y-106147268D01*
X173759489Y-106140225D01*
X173745568Y-106127816D01*
X173739441Y-106108544D01*
X173738002Y-106080908D01*
X173738149Y-106046474D01*
X173740367Y-106002644D01*
X173747490Y-105978635D01*
X173754875Y-105972253D01*
X173771785Y-105969943D01*
X173807670Y-105967716D01*
X173858168Y-105965756D01*
X173918920Y-105964246D01*
X173960018Y-105963615D01*
X174031461Y-105962493D01*
X174082883Y-105960831D01*
X174117598Y-105958270D01*
X174138918Y-105954451D01*
X174150158Y-105949014D01*
X174154364Y-105942533D01*
X174163009Y-105915599D01*
X174171821Y-105896462D01*
X174184604Y-105883791D01*
X174205164Y-105876257D01*
X174237306Y-105872528D01*
X174284835Y-105871275D01*
X174351556Y-105871167D01*
X174358494Y-105871168D01*
G37*
G36*
X175841405Y-103807547D02*
G01*
X175866180Y-103811476D01*
X175873289Y-103815805D01*
X175869736Y-103828663D01*
X175859970Y-103859604D01*
X175845329Y-103904632D01*
X175827150Y-103959749D01*
X175806772Y-104020961D01*
X175785532Y-104084270D01*
X175764769Y-104145679D01*
X175745821Y-104201194D01*
X175730025Y-104246817D01*
X175718720Y-104278552D01*
X175715424Y-104287314D01*
X175713847Y-104295761D01*
X175719249Y-104301501D01*
X175735146Y-104305051D01*
X175765053Y-104306926D01*
X175812484Y-104307643D01*
X175854540Y-104307732D01*
X175917288Y-104307836D01*
X175959932Y-104309313D01*
X175985701Y-104313908D01*
X175997822Y-104323367D01*
X175999523Y-104339437D01*
X175994033Y-104363864D01*
X175989350Y-104380654D01*
X175977199Y-104424406D01*
X175756066Y-104424406D01*
X175687115Y-104423968D01*
X175626926Y-104422749D01*
X175579090Y-104420890D01*
X175547198Y-104418533D01*
X175534841Y-104415821D01*
X175534799Y-104415656D01*
X175538343Y-104402705D01*
X175548408Y-104370600D01*
X175564030Y-104322291D01*
X175584249Y-104260725D01*
X175608101Y-104188853D01*
X175634624Y-104109622D01*
X175635684Y-104106469D01*
X175736703Y-103806032D01*
X175804996Y-103806032D01*
X175841405Y-103807547D01*
G37*
G36*
X174531534Y-103257663D02*
G01*
X174531534Y-103444342D01*
X174376941Y-103443875D01*
X174304564Y-103442798D01*
X174251973Y-103439847D01*
X174215670Y-103434687D01*
X174192156Y-103426984D01*
X174190262Y-103426001D01*
X174163830Y-103402151D01*
X174158177Y-103379799D01*
X174158177Y-103351003D01*
X173962164Y-103351003D01*
X173879214Y-103350318D01*
X173818106Y-103348199D01*
X173777384Y-103344548D01*
X173755592Y-103339270D01*
X173752150Y-103337002D01*
X173744534Y-103317932D01*
X173739729Y-103284218D01*
X173738120Y-103244426D01*
X173740090Y-103207121D01*
X173745231Y-103182779D01*
X173750657Y-103176004D01*
X173763087Y-103171084D01*
X173785722Y-103167737D01*
X173821765Y-103165683D01*
X173874419Y-103164640D01*
X173946884Y-103164326D01*
X173955245Y-103164324D01*
X174028397Y-103164251D01*
X174081450Y-103163755D01*
X174117641Y-103162418D01*
X174140207Y-103159822D01*
X174152382Y-103155548D01*
X174157405Y-103149180D01*
X174158510Y-103140298D01*
X174158548Y-103138072D01*
X174160581Y-103113691D01*
X174168030Y-103096022D01*
X174184108Y-103083999D01*
X174212028Y-103076556D01*
X174255006Y-103072626D01*
X174316253Y-103071143D01*
X174360726Y-103070984D01*
X174531534Y-103070984D01*
X174531534Y-103257663D01*
G37*
G36*
X176291182Y-101860089D02*
G01*
X176324198Y-101865034D01*
X176335171Y-101870084D01*
X176341512Y-101880184D01*
X176346088Y-101900389D01*
X176349138Y-101933745D01*
X176350899Y-101983292D01*
X176351609Y-102052075D01*
X176351654Y-102080681D01*
X176351654Y-102277599D01*
X176380036Y-102277599D01*
X176393185Y-102278311D01*
X176403563Y-102282064D01*
X176411453Y-102291284D01*
X176417139Y-102308399D01*
X176420903Y-102335835D01*
X176423028Y-102376018D01*
X176423797Y-102431375D01*
X176423492Y-102504332D01*
X176422398Y-102597315D01*
X176421861Y-102636372D01*
X176415751Y-102642330D01*
X176395922Y-102646555D01*
X176359843Y-102649257D01*
X176304982Y-102650647D01*
X176246647Y-102650957D01*
X176071635Y-102650957D01*
X176071635Y-102483587D01*
X176072096Y-102412492D01*
X176074259Y-102361024D01*
X176079296Y-102325482D01*
X176088377Y-102302163D01*
X176102675Y-102287367D01*
X176123361Y-102277391D01*
X176138451Y-102272445D01*
X176147882Y-102268751D01*
X176154770Y-102262032D01*
X176159588Y-102248910D01*
X176162807Y-102226004D01*
X176164901Y-102189936D01*
X176166343Y-102137327D01*
X176167606Y-102064798D01*
X176167619Y-102063968D01*
X176170809Y-101863405D01*
X176244749Y-101859905D01*
X176291182Y-101860089D01*
G37*
G36*
X177623389Y-103806059D02*
G01*
X177681995Y-103806785D01*
X177722521Y-103809180D01*
X177747595Y-103814212D01*
X177759843Y-103822852D01*
X177761891Y-103836068D01*
X177756367Y-103854829D01*
X177745898Y-103880106D01*
X177745755Y-103880446D01*
X177728098Y-103922707D01*
X177653979Y-103922707D01*
X177579861Y-103922707D01*
X177555875Y-103989795D01*
X177543773Y-104024306D01*
X177526188Y-104075312D01*
X177505051Y-104137180D01*
X177482287Y-104204278D01*
X177470017Y-104240644D01*
X177408144Y-104424406D01*
X177340763Y-104424406D01*
X177304631Y-104422722D01*
X177280175Y-104418359D01*
X177273381Y-104413678D01*
X177276942Y-104400495D01*
X177286729Y-104369260D01*
X177301396Y-104323990D01*
X177319596Y-104268706D01*
X177339984Y-104207426D01*
X177361213Y-104144169D01*
X177381939Y-104082956D01*
X177400815Y-104027804D01*
X177416495Y-103982734D01*
X177427633Y-103951764D01*
X177430955Y-103943125D01*
X177432990Y-103931863D01*
X177424475Y-103925693D01*
X177400852Y-103923140D01*
X177367969Y-103922707D01*
X177325067Y-103921102D01*
X177302280Y-103913427D01*
X177296457Y-103895392D01*
X177304446Y-103862706D01*
X177310727Y-103844780D01*
X177324738Y-103806032D01*
X177544076Y-103806032D01*
X177623389Y-103806059D01*
G37*
G36*
X174528921Y-104928876D02*
G01*
X174527329Y-104998258D01*
X174525221Y-105047501D01*
X174522228Y-105079801D01*
X174517978Y-105098353D01*
X174512100Y-105106354D01*
X174508200Y-105107408D01*
X174490620Y-105107239D01*
X174454511Y-105106254D01*
X174404660Y-105104605D01*
X174345851Y-105102441D01*
X174327354Y-105101721D01*
X174164010Y-105095284D01*
X174160318Y-105063198D01*
X174156627Y-105031113D01*
X173954470Y-105031113D01*
X173878463Y-105031176D01*
X173822671Y-105030360D01*
X173783981Y-105027159D01*
X173759281Y-105020067D01*
X173745460Y-105007576D01*
X173739405Y-104988182D01*
X173738003Y-104960376D01*
X173738149Y-104926400D01*
X173739960Y-104884491D01*
X173746170Y-104860953D01*
X173756604Y-104851516D01*
X173774082Y-104849129D01*
X173810528Y-104847086D01*
X173861577Y-104845533D01*
X173922863Y-104844617D01*
X173966618Y-104844434D01*
X174037391Y-104844351D01*
X174088160Y-104843800D01*
X174122257Y-104842323D01*
X174143013Y-104839467D01*
X174153760Y-104834774D01*
X174157828Y-104827790D01*
X174158548Y-104818182D01*
X174160576Y-104793817D01*
X174168009Y-104776156D01*
X174184058Y-104764133D01*
X174211936Y-104756685D01*
X174254853Y-104752748D01*
X174316021Y-104751257D01*
X174361030Y-104751094D01*
X174532142Y-104751094D01*
X174528921Y-104928876D01*
G37*
G36*
X175593492Y-104811837D02*
G01*
X175592920Y-104838188D01*
X175591194Y-104883626D01*
X175588506Y-104943943D01*
X175585047Y-105014930D01*
X175581008Y-105092379D01*
X175579422Y-105121535D01*
X175565129Y-105381136D01*
X175490855Y-105381136D01*
X175416580Y-105381136D01*
X175424598Y-105316965D01*
X175432615Y-105252794D01*
X175346230Y-105252794D01*
X175259846Y-105252794D01*
X175220954Y-105316965D01*
X175182062Y-105381136D01*
X175107238Y-105381136D01*
X175067234Y-105380568D01*
X175046304Y-105377936D01*
X175040196Y-105371852D01*
X175044660Y-105360924D01*
X175044784Y-105360718D01*
X175054089Y-105345932D01*
X175074299Y-105314187D01*
X175103705Y-105268155D01*
X175140598Y-105210511D01*
X175183269Y-105143924D01*
X175188276Y-105136120D01*
X175335236Y-105136120D01*
X175381742Y-105136120D01*
X175428248Y-105136120D01*
X175435534Y-105069032D01*
X175440504Y-105026406D01*
X175445427Y-104989120D01*
X175447956Y-104972776D01*
X175453092Y-104943607D01*
X175432759Y-104971787D01*
X175416270Y-104996831D01*
X175393818Y-105033650D01*
X175373831Y-105068043D01*
X175335236Y-105136120D01*
X175188276Y-105136120D01*
X175230008Y-105071069D01*
X175240678Y-105054448D01*
X175424201Y-104768596D01*
X175508736Y-104765168D01*
X175593271Y-104761740D01*
X175593492Y-104811837D01*
G37*
G36*
X178898279Y-103117654D02*
G01*
X178916612Y-103164324D01*
X179114970Y-103164324D01*
X179313328Y-103164324D01*
X179319359Y-103196409D01*
X179322792Y-103233228D01*
X179322112Y-103263497D01*
X179319024Y-103298779D01*
X179317008Y-103324751D01*
X179315771Y-103334189D01*
X179311406Y-103341041D01*
X179300664Y-103345721D01*
X179280295Y-103348643D01*
X179247050Y-103350221D01*
X179197680Y-103350869D01*
X179128934Y-103351002D01*
X179111002Y-103351003D01*
X179037529Y-103351119D01*
X178984179Y-103351712D01*
X178947738Y-103353150D01*
X178924994Y-103355799D01*
X178912735Y-103360026D01*
X178907749Y-103366199D01*
X178906821Y-103374337D01*
X178898903Y-103399737D01*
X178883487Y-103421007D01*
X178871910Y-103430506D01*
X178856695Y-103437031D01*
X178833604Y-103441128D01*
X178798402Y-103443344D01*
X178746855Y-103444226D01*
X178702641Y-103444342D01*
X178639427Y-103444210D01*
X178595848Y-103443407D01*
X178568205Y-103441321D01*
X178552798Y-103437342D01*
X178545927Y-103430858D01*
X178543893Y-103421259D01*
X178543695Y-103418090D01*
X178541068Y-103359273D01*
X178539214Y-103296067D01*
X178538181Y-103233803D01*
X178538017Y-103177815D01*
X178538767Y-103133435D01*
X178540479Y-103105994D01*
X178540929Y-103103070D01*
X178546985Y-103070984D01*
X178713466Y-103070984D01*
X178879947Y-103070984D01*
X178898279Y-103117654D01*
G37*
G36*
X175731146Y-101860089D02*
G01*
X175764161Y-101865034D01*
X175775135Y-101870084D01*
X175781475Y-101880184D01*
X175786051Y-101900389D01*
X175789101Y-101933745D01*
X175790862Y-101983292D01*
X175791572Y-102052075D01*
X175791617Y-102080681D01*
X175791617Y-102277599D01*
X175819689Y-102277599D01*
X175838510Y-102281744D01*
X175852408Y-102297803D01*
X175866027Y-102331210D01*
X175866359Y-102332181D01*
X175879107Y-102376536D01*
X175884512Y-102410999D01*
X175882379Y-102431653D01*
X175872513Y-102434580D01*
X175871438Y-102433965D01*
X175865325Y-102436116D01*
X175862554Y-102453979D01*
X175862985Y-102490147D01*
X175865840Y-102538284D01*
X175873760Y-102650957D01*
X175692679Y-102650957D01*
X175511599Y-102650957D01*
X175511599Y-102483587D01*
X175512059Y-102412492D01*
X175512089Y-102411774D01*
X175861622Y-102411774D01*
X175867455Y-102417608D01*
X175873289Y-102411774D01*
X175867455Y-102405941D01*
X175861622Y-102411774D01*
X175512089Y-102411774D01*
X175514222Y-102361024D01*
X175519259Y-102325482D01*
X175528340Y-102302163D01*
X175542638Y-102287367D01*
X175563324Y-102277391D01*
X175578414Y-102272445D01*
X175587845Y-102268751D01*
X175594733Y-102262032D01*
X175599551Y-102248910D01*
X175602770Y-102226004D01*
X175604865Y-102189936D01*
X175606307Y-102137327D01*
X175607569Y-102064798D01*
X175607583Y-102063968D01*
X175610772Y-101863405D01*
X175684712Y-101859905D01*
X175731146Y-101860089D01*
G37*
G36*
X177243736Y-103832284D02*
G01*
X177233415Y-103865772D01*
X177223252Y-103889076D01*
X177209080Y-103904226D01*
X177186735Y-103913251D01*
X177152051Y-103918180D01*
X177100861Y-103921045D01*
X177058146Y-103922707D01*
X176907332Y-103928541D01*
X176887236Y-103986789D01*
X176876874Y-104021136D01*
X176872034Y-104046225D01*
X176872602Y-104053876D01*
X176885945Y-104057802D01*
X176917025Y-104060832D01*
X176960248Y-104062517D01*
X176982384Y-104062716D01*
X177032125Y-104063130D01*
X177062979Y-104065018D01*
X177079387Y-104069351D01*
X177085792Y-104077098D01*
X177086702Y-104085502D01*
X177081889Y-104113544D01*
X177073339Y-104137616D01*
X177066048Y-104150961D01*
X177055641Y-104159667D01*
X177037370Y-104164919D01*
X177006486Y-104167900D01*
X176958240Y-104169795D01*
X176942453Y-104170250D01*
X176824929Y-104173557D01*
X176782830Y-104296065D01*
X176740730Y-104418573D01*
X176667223Y-104422085D01*
X176626823Y-104423095D01*
X176605474Y-104420688D01*
X176599040Y-104414055D01*
X176600087Y-104408995D01*
X176605533Y-104393618D01*
X176617366Y-104359456D01*
X176634450Y-104309813D01*
X176655648Y-104247994D01*
X176679827Y-104177304D01*
X176695533Y-104131298D01*
X176721391Y-104055690D01*
X176745376Y-103985898D01*
X176766256Y-103925485D01*
X176782799Y-103878010D01*
X176793770Y-103847035D01*
X176797062Y-103838118D01*
X176809515Y-103806032D01*
X177030567Y-103806032D01*
X177251619Y-103806032D01*
X177243736Y-103832284D01*
G37*
G36*
X177897589Y-104765317D02*
G01*
X177979261Y-104768596D01*
X177976622Y-104844434D01*
X177975404Y-104880389D01*
X177973614Y-104934436D01*
X177971425Y-105001343D01*
X177969006Y-105075878D01*
X177966597Y-105150704D01*
X177959210Y-105381136D01*
X177884646Y-105381136D01*
X177810083Y-105381136D01*
X177810083Y-105316965D01*
X177810083Y-105252794D01*
X177729982Y-105252794D01*
X177649882Y-105252794D01*
X177610391Y-105314048D01*
X177570900Y-105375302D01*
X177497979Y-105378776D01*
X177460225Y-105379769D01*
X177433875Y-105378925D01*
X177425058Y-105376715D01*
X177431036Y-105365131D01*
X177447011Y-105338896D01*
X177470041Y-105302778D01*
X177481158Y-105285736D01*
X177504606Y-105249699D01*
X177537688Y-105198408D01*
X177577546Y-105136319D01*
X177580546Y-105131629D01*
X177728411Y-105131629D01*
X177738751Y-105134483D01*
X177764478Y-105136029D01*
X177773495Y-105136120D01*
X177800968Y-105135014D01*
X177815181Y-105127581D01*
X177822125Y-105107646D01*
X177825998Y-105081988D01*
X177830681Y-105038074D01*
X177833192Y-104995484D01*
X177833331Y-104985732D01*
X177832773Y-104966811D01*
X177829739Y-104959712D01*
X177822036Y-104966507D01*
X177807474Y-104989266D01*
X177783861Y-105030063D01*
X177780828Y-105035372D01*
X177757724Y-105076283D01*
X177739819Y-105108867D01*
X177729720Y-105128339D01*
X177728411Y-105131629D01*
X177580546Y-105131629D01*
X177621321Y-105067886D01*
X177666154Y-104997565D01*
X177676587Y-104981165D01*
X177815917Y-104762038D01*
X177897589Y-104765317D01*
G37*
G36*
X177876883Y-106661868D02*
G01*
X177929910Y-106663934D01*
X177983368Y-106666716D01*
X178032228Y-106669961D01*
X178071464Y-106673417D01*
X178096048Y-106676830D01*
X178101853Y-106679138D01*
X178101822Y-106693409D01*
X178101797Y-106726519D01*
X178101778Y-106773971D01*
X178101769Y-106831271D01*
X178101769Y-106850091D01*
X178101769Y-107012294D01*
X178066766Y-107024495D01*
X178031764Y-107036697D01*
X178031764Y-107228475D01*
X178031673Y-107299365D01*
X178031069Y-107350572D01*
X178029452Y-107385748D01*
X178026325Y-107408544D01*
X178021188Y-107422612D01*
X178013543Y-107431604D01*
X178003006Y-107439096D01*
X177967090Y-107453048D01*
X177923557Y-107457344D01*
X177883136Y-107451724D01*
X177863396Y-107442472D01*
X177855229Y-107434349D01*
X177849526Y-107421421D01*
X177845905Y-107399956D01*
X177843984Y-107366220D01*
X177843380Y-107316480D01*
X177843685Y-107250072D01*
X177844039Y-107181752D01*
X177843492Y-107132690D01*
X177841570Y-107098812D01*
X177837800Y-107076046D01*
X177831705Y-107060319D01*
X177822813Y-107047557D01*
X177819667Y-107043857D01*
X177795918Y-107023474D01*
X177773633Y-107014590D01*
X177772977Y-107014576D01*
X177764777Y-107012929D01*
X177759002Y-107005690D01*
X177755232Y-106989415D01*
X177753046Y-106960658D01*
X177752025Y-106915975D01*
X177751749Y-106851921D01*
X177751746Y-106840420D01*
X177752033Y-106772385D01*
X177753138Y-106724251D01*
X177755426Y-106692591D01*
X177759260Y-106673974D01*
X177765007Y-106664972D01*
X177770667Y-106662492D01*
X177792234Y-106660894D01*
X177829315Y-106660770D01*
X177876883Y-106661868D01*
G37*
G36*
X176707767Y-103806787D02*
G01*
X176727651Y-103810060D01*
X176733424Y-103817365D01*
X176731242Y-103826450D01*
X176725276Y-103843154D01*
X176713031Y-103878442D01*
X176695715Y-103928800D01*
X176674534Y-103990712D01*
X176650698Y-104060661D01*
X176640683Y-104090124D01*
X176558057Y-104333379D01*
X176500477Y-104378892D01*
X176442898Y-104424406D01*
X176293306Y-104424406D01*
X176143714Y-104424406D01*
X176113509Y-104388509D01*
X176094210Y-104362219D01*
X176083859Y-104341583D01*
X176083303Y-104338162D01*
X176086886Y-104323377D01*
X176096935Y-104289810D01*
X176112397Y-104240767D01*
X176132221Y-104179556D01*
X176155353Y-104109485D01*
X176169300Y-104067789D01*
X176255297Y-103811866D01*
X176326810Y-103808393D01*
X176364153Y-103807305D01*
X176390031Y-103807940D01*
X176398324Y-103809822D01*
X176394737Y-103821851D01*
X176384728Y-103852573D01*
X176369424Y-103898602D01*
X176349953Y-103956551D01*
X176327443Y-104023033D01*
X176322485Y-104037614D01*
X176299300Y-104106891D01*
X176278977Y-104169787D01*
X176262673Y-104222540D01*
X176251545Y-104261392D01*
X176246749Y-104282585D01*
X176246647Y-104284117D01*
X176248789Y-104296536D01*
X176258553Y-104303643D01*
X176280946Y-104306888D01*
X176320974Y-104307724D01*
X176328050Y-104307732D01*
X176372226Y-104306834D01*
X176399362Y-104303026D01*
X176415720Y-104294642D01*
X176426615Y-104281480D01*
X176435783Y-104262271D01*
X176450747Y-104224979D01*
X176469978Y-104173675D01*
X176491946Y-104112432D01*
X176513178Y-104051049D01*
X176535746Y-103984861D01*
X176556170Y-103925354D01*
X176573095Y-103876442D01*
X176585166Y-103842042D01*
X176590872Y-103826450D01*
X176600703Y-103814530D01*
X176621530Y-103808223D01*
X176658888Y-103806086D01*
X176669171Y-103806032D01*
X176707767Y-103806787D01*
G37*
G36*
X176824442Y-104763517D02*
G01*
X176844326Y-104766790D01*
X176850099Y-104774094D01*
X176847917Y-104783180D01*
X176841951Y-104799883D01*
X176829705Y-104835172D01*
X176812389Y-104885530D01*
X176791209Y-104947441D01*
X176767372Y-105017390D01*
X176757357Y-105046853D01*
X176674731Y-105290108D01*
X176617152Y-105335622D01*
X176559572Y-105381136D01*
X176409980Y-105381136D01*
X176260389Y-105381136D01*
X176230183Y-105345238D01*
X176210885Y-105318948D01*
X176200534Y-105298312D01*
X176199977Y-105294891D01*
X176203561Y-105280107D01*
X176213609Y-105246539D01*
X176229072Y-105197497D01*
X176248895Y-105136286D01*
X176272028Y-105066215D01*
X176285974Y-105024518D01*
X176371972Y-104768596D01*
X176443485Y-104765122D01*
X176480827Y-104764035D01*
X176506705Y-104764670D01*
X176514998Y-104766552D01*
X176511411Y-104778581D01*
X176501402Y-104809303D01*
X176486098Y-104855332D01*
X176466628Y-104913280D01*
X176444117Y-104979762D01*
X176439160Y-104994343D01*
X176415974Y-105063621D01*
X176395651Y-105126516D01*
X176379347Y-105179269D01*
X176368219Y-105218122D01*
X176363424Y-105239315D01*
X176363321Y-105240846D01*
X176365463Y-105253266D01*
X176375228Y-105260372D01*
X176397620Y-105263617D01*
X176437649Y-105264454D01*
X176444724Y-105264462D01*
X176488900Y-105263563D01*
X176516036Y-105259756D01*
X176532394Y-105251371D01*
X176543289Y-105238210D01*
X176552457Y-105219001D01*
X176567421Y-105181708D01*
X176586652Y-105130405D01*
X176608620Y-105069162D01*
X176629852Y-105007778D01*
X176652420Y-104941591D01*
X176672844Y-104882083D01*
X176689769Y-104833171D01*
X176701840Y-104798772D01*
X176707547Y-104783180D01*
X176717378Y-104771259D01*
X176738205Y-104764952D01*
X176775562Y-104762816D01*
X176785845Y-104762762D01*
X176824442Y-104763517D01*
G37*
G36*
X176066862Y-104762906D02*
G01*
X176217478Y-104763051D01*
X176243730Y-104803579D01*
X176260241Y-104831542D01*
X176269355Y-104851784D01*
X176269982Y-104855149D01*
X176266395Y-104869215D01*
X176256418Y-104901702D01*
X176241226Y-104948956D01*
X176221994Y-105007324D01*
X176199895Y-105073152D01*
X176199700Y-105073727D01*
X176166943Y-105166893D01*
X176139312Y-105237813D01*
X176116876Y-105286326D01*
X176100164Y-105311799D01*
X176081143Y-105338541D01*
X176077726Y-105360069D01*
X176077896Y-105360539D01*
X176073495Y-105381115D01*
X176047325Y-105407370D01*
X176045072Y-105409109D01*
X176008700Y-105432441D01*
X175981988Y-105437315D01*
X175960393Y-105423789D01*
X175950200Y-105410304D01*
X175940141Y-105396941D01*
X175927778Y-105388437D01*
X175908069Y-105383699D01*
X175875975Y-105381631D01*
X175826453Y-105381141D01*
X175815835Y-105381136D01*
X175700583Y-105381136D01*
X175674553Y-105337383D01*
X175648523Y-105293630D01*
X175666866Y-105238210D01*
X175815036Y-105238210D01*
X175819657Y-105258692D01*
X175827406Y-105264462D01*
X175834873Y-105255537D01*
X175833428Y-105244044D01*
X175837132Y-105223152D01*
X175862088Y-105199833D01*
X175864727Y-105198014D01*
X175901782Y-105174501D01*
X175926205Y-105165558D01*
X175943732Y-105171360D01*
X175960099Y-105192083D01*
X175965562Y-105201104D01*
X175982412Y-105225687D01*
X175995129Y-105237227D01*
X175998062Y-105236917D01*
X176005741Y-105221932D01*
X176018384Y-105189638D01*
X176034326Y-105145102D01*
X176051901Y-105093388D01*
X176069447Y-105039563D01*
X176085299Y-104988691D01*
X176097791Y-104945839D01*
X176105260Y-104916072D01*
X176106638Y-104906488D01*
X176104957Y-104891759D01*
X176096364Y-104883646D01*
X176075533Y-104880191D01*
X176037139Y-104879438D01*
X176033029Y-104879436D01*
X175990259Y-104881726D01*
X175955501Y-104887701D01*
X175939225Y-104894204D01*
X175928555Y-104910097D01*
X175912938Y-104943344D01*
X175894171Y-104988965D01*
X175874053Y-105041975D01*
X175854383Y-105097392D01*
X175836959Y-105150232D01*
X175823582Y-105195515D01*
X175816049Y-105228255D01*
X175815036Y-105238210D01*
X175666866Y-105238210D01*
X175721049Y-105074505D01*
X175793574Y-104855380D01*
X175854910Y-104809071D01*
X175916246Y-104762762D01*
X176066862Y-104762906D01*
G37*
G36*
X175907594Y-102746336D02*
G01*
X176131018Y-102746491D01*
X176376630Y-102746790D01*
X176546890Y-102747058D01*
X178358065Y-102750130D01*
X178402012Y-102794076D01*
X178445958Y-102838023D01*
X178448894Y-104643364D01*
X178449280Y-104883306D01*
X178449613Y-105101018D01*
X178449879Y-105297608D01*
X178450068Y-105474181D01*
X178450167Y-105631844D01*
X178450163Y-105771702D01*
X178450045Y-105894861D01*
X178449801Y-106002428D01*
X178449417Y-106095509D01*
X178448882Y-106175209D01*
X178448184Y-106242635D01*
X178447311Y-106298893D01*
X178446250Y-106345089D01*
X178444989Y-106382328D01*
X178443516Y-106411718D01*
X178441819Y-106434363D01*
X178439885Y-106451371D01*
X178437703Y-106463846D01*
X178435261Y-106472896D01*
X178432545Y-106479626D01*
X178429544Y-106485142D01*
X178428583Y-106486732D01*
X178401684Y-106519706D01*
X178368619Y-106547130D01*
X178367309Y-106547942D01*
X178361901Y-106551031D01*
X178355553Y-106553832D01*
X178347158Y-106556359D01*
X178335606Y-106558628D01*
X178319789Y-106560650D01*
X178298598Y-106562442D01*
X178270924Y-106564015D01*
X178235658Y-106565385D01*
X178191692Y-106566564D01*
X178137917Y-106567568D01*
X178073224Y-106568410D01*
X177996504Y-106569104D01*
X177906648Y-106569663D01*
X177802548Y-106570102D01*
X177683095Y-106570435D01*
X177547180Y-106570675D01*
X177393694Y-106570837D01*
X177221528Y-106570935D01*
X177029575Y-106570981D01*
X176816724Y-106570991D01*
X176581868Y-106570978D01*
X176532499Y-106570974D01*
X174735714Y-106570821D01*
X174697360Y-106546261D01*
X174687820Y-106540733D01*
X174679152Y-106536217D01*
X174671314Y-106531627D01*
X174664265Y-106525875D01*
X174657963Y-106517874D01*
X174652366Y-106506537D01*
X174647433Y-106490777D01*
X174643123Y-106469506D01*
X174639393Y-106441637D01*
X174636203Y-106406084D01*
X174635603Y-106396202D01*
X174799885Y-106396202D01*
X176544166Y-106396202D01*
X178288448Y-106396202D01*
X178288448Y-104651921D01*
X178288448Y-102907640D01*
X176544166Y-102907640D01*
X174799885Y-102907640D01*
X174799885Y-104651921D01*
X174799885Y-106396202D01*
X174635603Y-106396202D01*
X174633510Y-106361759D01*
X174631273Y-106307575D01*
X174629450Y-106242445D01*
X174628000Y-106165282D01*
X174626882Y-106074998D01*
X174626053Y-105970507D01*
X174625472Y-105850720D01*
X174625098Y-105714552D01*
X174624889Y-105560915D01*
X174624803Y-105388722D01*
X174624799Y-105196885D01*
X174624835Y-104984318D01*
X174624870Y-104749934D01*
X174624874Y-104651921D01*
X174624874Y-104650961D01*
X174624878Y-104411069D01*
X174624899Y-104193406D01*
X174624951Y-103996865D01*
X174625048Y-103820340D01*
X174625205Y-103662726D01*
X174625435Y-103522915D01*
X174625753Y-103399802D01*
X174626172Y-103292281D01*
X174626706Y-103199245D01*
X174627371Y-103119588D01*
X174628179Y-103052205D01*
X174629145Y-102995988D01*
X174630282Y-102949831D01*
X174631606Y-102912629D01*
X174633130Y-102883276D01*
X174634868Y-102860664D01*
X174636834Y-102843688D01*
X174639042Y-102831242D01*
X174641506Y-102822219D01*
X174644241Y-102815514D01*
X174647261Y-102810020D01*
X174648312Y-102808300D01*
X174672643Y-102779151D01*
X174700831Y-102758488D01*
X174703732Y-102757182D01*
X174715215Y-102755298D01*
X174740529Y-102753606D01*
X174780370Y-102752100D01*
X174835435Y-102750778D01*
X174906420Y-102749635D01*
X174994022Y-102748667D01*
X175098937Y-102747872D01*
X175221862Y-102747244D01*
X175363494Y-102746780D01*
X175524529Y-102746477D01*
X175705663Y-102746330D01*
X175907594Y-102746336D01*
G37*
D12*
%TO.C,J3*%
X155784420Y-95145420D02*
X155784420Y-85224420D01*
X157109420Y-90953420D02*
X157156420Y-90907420D01*
X157314420Y-91159420D02*
X157349420Y-91123420D01*
X159418420Y-88645420D02*
X159453420Y-88610420D01*
X159611420Y-88861420D02*
X159658420Y-88815420D01*
X162189420Y-90953420D02*
X162236420Y-90907420D01*
X162394420Y-91159420D02*
X162429420Y-91123420D01*
X164498420Y-88645420D02*
X164533420Y-88610420D01*
X164691420Y-88861420D02*
X164738420Y-88815420D01*
X171144420Y-85224420D02*
X155784420Y-85224420D01*
X171144420Y-85784420D02*
X155784420Y-85784420D01*
X171144420Y-87284420D02*
X155784420Y-87284420D01*
X171144420Y-92185420D02*
X155784420Y-92185420D01*
X171144420Y-95145420D02*
X155784420Y-95145420D01*
X171144420Y-95145420D02*
X171144420Y-85224420D01*
X171384420Y-84984420D02*
X170884420Y-84984420D01*
X171384420Y-85724420D02*
X171384420Y-84984420D01*
X167008993Y-90567462D02*
G75*
G02*
X167009420Y-89200420I1535427J683042D01*
G01*
X167861102Y-88349664D02*
G75*
G02*
X168544420Y-88204420I683318J-1534756D01*
G01*
X168515615Y-88204167D02*
G75*
G02*
X169228420Y-88349420I28806J-1680254D01*
G01*
X169227462Y-91419847D02*
G75*
G02*
X167860420Y-91419420I-683041J1535420D01*
G01*
X170079847Y-89201378D02*
G75*
G02*
X170079420Y-90568420I-1535420J-683041D01*
G01*
X160064420Y-89884420D02*
G75*
G02*
X156704420Y-89884420I-1680000J0D01*
G01*
X156704420Y-89884420D02*
G75*
G02*
X160064420Y-89884420I1680000J0D01*
G01*
X165144420Y-89884420D02*
G75*
G02*
X161784420Y-89884420I-1680000J0D01*
G01*
X161784420Y-89884420D02*
G75*
G02*
X165144420Y-89884420I1680000J0D01*
G01*
%TO.C,C3*%
X151074420Y-114685000D02*
X151074420Y-114403840D01*
X152094420Y-114685000D02*
X152094420Y-114403840D01*
%TO.C,C2*%
X161049420Y-103245672D02*
X161049420Y-102723168D01*
X162519420Y-103245672D02*
X162519420Y-102723168D01*
%TO.C,C6*%
X158045672Y-113234420D02*
X157523168Y-113234420D01*
X158045672Y-114704420D02*
X157523168Y-114704420D01*
%TO.C,R10*%
X125247162Y-110061920D02*
X125721678Y-110061920D01*
X125247162Y-111106920D02*
X125721678Y-111106920D01*
%TO.C,J5*%
X117224420Y-95145420D02*
X117224420Y-85224420D01*
X118549420Y-90953420D02*
X118596420Y-90907420D01*
X118754420Y-91159420D02*
X118789420Y-91123420D01*
X120858420Y-88645420D02*
X120893420Y-88610420D01*
X121051420Y-88861420D02*
X121098420Y-88815420D01*
X123629420Y-90953420D02*
X123676420Y-90907420D01*
X123834420Y-91159420D02*
X123869420Y-91123420D01*
X125938420Y-88645420D02*
X125973420Y-88610420D01*
X126131420Y-88861420D02*
X126178420Y-88815420D01*
X132584420Y-85224420D02*
X117224420Y-85224420D01*
X132584420Y-85784420D02*
X117224420Y-85784420D01*
X132584420Y-87284420D02*
X117224420Y-87284420D01*
X132584420Y-92185420D02*
X117224420Y-92185420D01*
X132584420Y-95145420D02*
X117224420Y-95145420D01*
X132584420Y-95145420D02*
X132584420Y-85224420D01*
X132824420Y-84984420D02*
X132324420Y-84984420D01*
X132824420Y-85724420D02*
X132824420Y-84984420D01*
X128448993Y-90567462D02*
G75*
G02*
X128449420Y-89200420I1535427J683042D01*
G01*
X129301102Y-88349664D02*
G75*
G02*
X129984420Y-88204420I683318J-1534756D01*
G01*
X129955615Y-88204167D02*
G75*
G02*
X130668420Y-88349420I28806J-1680254D01*
G01*
X130667462Y-91419847D02*
G75*
G02*
X129300420Y-91419420I-683041J1535420D01*
G01*
X131519847Y-89201378D02*
G75*
G02*
X131519420Y-90568420I-1535420J-683041D01*
G01*
X121504420Y-89884420D02*
G75*
G02*
X118144420Y-89884420I-1680000J0D01*
G01*
X118144420Y-89884420D02*
G75*
G02*
X121504420Y-89884420I1680000J0D01*
G01*
X126584420Y-89884420D02*
G75*
G02*
X123224420Y-89884420I-1680000J0D01*
G01*
X123224420Y-89884420D02*
G75*
G02*
X126584420Y-89884420I1680000J0D01*
G01*
%TO.C,R6*%
X129747162Y-103561920D02*
X130221678Y-103561920D01*
X129747162Y-104606920D02*
X130221678Y-104606920D01*
%TO.C,L1*%
X162124420Y-107059420D02*
X163674420Y-107059420D01*
X162124420Y-114029420D02*
X162124420Y-107059420D01*
X162124420Y-114029420D02*
X163674420Y-114029420D01*
X169244420Y-107059420D02*
X167694420Y-107059420D01*
X169244420Y-114029420D02*
X167694420Y-114029420D01*
X169244420Y-114029420D02*
X169244420Y-107059420D01*
%TO.C,R4*%
X144761920Y-116047162D02*
X144761920Y-116521678D01*
X145806920Y-116047162D02*
X145806920Y-116521678D01*
%TO.C,C4*%
X148568840Y-110634420D02*
X148850000Y-110634420D01*
X148568840Y-111654420D02*
X148850000Y-111654420D01*
%TO.C,R8*%
X139946678Y-102421920D02*
X139472162Y-102421920D01*
X139946678Y-103466920D02*
X139472162Y-103466920D01*
%TO.C,U2*%
X158174420Y-110531920D02*
X158174420Y-109731920D01*
X158174420Y-110531920D02*
X158174420Y-111331920D01*
X161294420Y-110531920D02*
X161294420Y-109731920D01*
X161294420Y-110531920D02*
X161294420Y-111331920D01*
X161574420Y-109471920D02*
X161244420Y-109231920D01*
X161574420Y-108991920D01*
X161574420Y-109471920D01*
G36*
X161574420Y-109471920D02*
G01*
X161244420Y-109231920D01*
X161574420Y-108991920D01*
X161574420Y-109471920D01*
G37*
%TO.C,C8*%
X148799420Y-107260000D02*
X148799420Y-106978840D01*
X149819420Y-107260000D02*
X149819420Y-106978840D01*
%TO.C,Y1*%
X143871920Y-100794420D02*
X143871920Y-104094420D01*
X143871920Y-104094420D02*
X147871920Y-104094420D01*
%TO.C,D1*%
X164034420Y-98759420D02*
X164034420Y-104269420D01*
X167334420Y-98759420D02*
X164034420Y-98759420D01*
X167334420Y-98759420D02*
X167334420Y-104269420D01*
%TO.C,Q2*%
X123324420Y-100646920D02*
X123324420Y-99996920D01*
X123324420Y-100646920D02*
X123324420Y-101296920D01*
X126444420Y-100646920D02*
X126444420Y-99996920D01*
X126444420Y-100646920D02*
X126444420Y-101296920D01*
X123374420Y-101809420D02*
X123044420Y-102049420D01*
X123044420Y-101569420D01*
X123374420Y-101809420D01*
G36*
X123374420Y-101809420D02*
G01*
X123044420Y-102049420D01*
X123044420Y-101569420D01*
X123374420Y-101809420D01*
G37*
%TO.C,J2*%
X138914420Y-122659420D02*
X138914420Y-120959420D01*
X148254420Y-122659420D02*
X148254420Y-120959420D01*
%TO.C,J1*%
X153514420Y-118954420D02*
X153514420Y-121614420D01*
X161194420Y-118954420D02*
X153514420Y-118954420D01*
X161194420Y-118954420D02*
X161194420Y-121614420D01*
X161194420Y-121614420D02*
X153514420Y-121614420D01*
X162464420Y-118954420D02*
X163794420Y-118954420D01*
X163794420Y-118954420D02*
X163794420Y-120284420D01*
%TO.C,Q4*%
X128474420Y-100646920D02*
X128474420Y-99996920D01*
X128474420Y-100646920D02*
X128474420Y-101296920D01*
X131594420Y-100646920D02*
X131594420Y-99996920D01*
X131594420Y-100646920D02*
X131594420Y-101296920D01*
X128524420Y-101809420D02*
X128194420Y-102049420D01*
X128194420Y-101569420D01*
X128524420Y-101809420D01*
G36*
X128524420Y-101809420D02*
G01*
X128194420Y-102049420D01*
X128194420Y-101569420D01*
X128524420Y-101809420D01*
G37*
%TO.C,R2*%
X159272162Y-106871920D02*
X159746678Y-106871920D01*
X159272162Y-107916920D02*
X159746678Y-107916920D01*
%TO.C,R9*%
X139946678Y-100921920D02*
X139472162Y-100921920D01*
X139946678Y-101966920D02*
X139472162Y-101966920D01*
%TO.C,R5*%
X147286920Y-106857162D02*
X147286920Y-107331678D01*
X148331920Y-106857162D02*
X148331920Y-107331678D01*
%TO.C,R7*%
X130547162Y-110061920D02*
X131021678Y-110061920D01*
X130547162Y-111106920D02*
X131021678Y-111106920D01*
%TO.C,Q1*%
X127624420Y-107521920D02*
X127624420Y-106871920D01*
X127624420Y-107521920D02*
X127624420Y-108171920D01*
X130744420Y-107521920D02*
X130744420Y-106871920D01*
X130744420Y-107521920D02*
X130744420Y-108171920D01*
X127674420Y-108684420D02*
X127344420Y-108924420D01*
X127344420Y-108444420D01*
X127674420Y-108684420D01*
G36*
X127674420Y-108684420D02*
G01*
X127344420Y-108924420D01*
X127344420Y-108444420D01*
X127674420Y-108684420D01*
G37*
%TO.C,D2*%
X136511920Y-105849420D02*
X136511920Y-107319420D01*
X136511920Y-107319420D02*
X138796920Y-107319420D01*
X138796920Y-105849420D02*
X136511920Y-105849420D01*
%TO.C,J4*%
X136504420Y-95145420D02*
X136504420Y-85224420D01*
X137829420Y-90953420D02*
X137876420Y-90907420D01*
X138034420Y-91159420D02*
X138069420Y-91123420D01*
X140138420Y-88645420D02*
X140173420Y-88610420D01*
X140331420Y-88861420D02*
X140378420Y-88815420D01*
X142909420Y-90953420D02*
X142956420Y-90907420D01*
X143114420Y-91159420D02*
X143149420Y-91123420D01*
X145218420Y-88645420D02*
X145253420Y-88610420D01*
X145411420Y-88861420D02*
X145458420Y-88815420D01*
X151864420Y-85224420D02*
X136504420Y-85224420D01*
X151864420Y-85784420D02*
X136504420Y-85784420D01*
X151864420Y-87284420D02*
X136504420Y-87284420D01*
X151864420Y-92185420D02*
X136504420Y-92185420D01*
X151864420Y-95145420D02*
X136504420Y-95145420D01*
X151864420Y-95145420D02*
X151864420Y-85224420D01*
X152104420Y-84984420D02*
X151604420Y-84984420D01*
X152104420Y-85724420D02*
X152104420Y-84984420D01*
X147728993Y-90567462D02*
G75*
G02*
X147729420Y-89200420I1535427J683042D01*
G01*
X148581102Y-88349664D02*
G75*
G02*
X149264420Y-88204420I683318J-1534756D01*
G01*
X149235615Y-88204167D02*
G75*
G02*
X149948420Y-88349420I28806J-1680254D01*
G01*
X149947462Y-91419847D02*
G75*
G02*
X148580420Y-91419420I-683041J1535420D01*
G01*
X150799847Y-89201378D02*
G75*
G02*
X150799420Y-90568420I-1535420J-683041D01*
G01*
X140784420Y-89884420D02*
G75*
G02*
X137424420Y-89884420I-1680000J0D01*
G01*
X137424420Y-89884420D02*
G75*
G02*
X140784420Y-89884420I1680000J0D01*
G01*
X145864420Y-89884420D02*
G75*
G02*
X142504420Y-89884420I-1680000J0D01*
G01*
X142504420Y-89884420D02*
G75*
G02*
X145864420Y-89884420I1680000J0D01*
G01*
%TO.C,C5*%
X142511920Y-102335000D02*
X142511920Y-102053840D01*
X143531920Y-102335000D02*
X143531920Y-102053840D01*
%TO.C,R1*%
X158261920Y-104607162D02*
X158261920Y-105081678D01*
X159306920Y-104607162D02*
X159306920Y-105081678D01*
%TO.C,C7*%
X148568840Y-108884420D02*
X148850000Y-108884420D01*
X148568840Y-109904420D02*
X148850000Y-109904420D01*
%TD*%
%LPC*%
D14*
%TO.C,C1*%
X148709420Y-101419420D03*
X148709420Y-102969420D03*
%TD*%
D15*
%TO.C,Q3*%
X123134420Y-108459420D03*
X125034420Y-108459420D03*
X124084420Y-106584420D03*
%TD*%
D16*
%TO.C,R3*%
X142484420Y-115459420D03*
X142484420Y-117109420D03*
%TD*%
D17*
%TO.C,U1*%
X149859420Y-113069420D03*
X147959420Y-113069420D03*
X148909420Y-115344420D03*
%TD*%
D18*
%TO.C,U3*%
X146509420Y-106569420D03*
X145859420Y-106569420D03*
X145209420Y-106569420D03*
X144559420Y-106569420D03*
X143909420Y-106569420D03*
X143259420Y-106569420D03*
X142609420Y-106569420D03*
X141959420Y-106569420D03*
X141309420Y-106569420D03*
X140659420Y-106569420D03*
X140659420Y-112294420D03*
X141309420Y-112294420D03*
X141959420Y-112294420D03*
X142609420Y-112294420D03*
X143259420Y-112294420D03*
X143909420Y-112294420D03*
X144559420Y-112294420D03*
X145209420Y-112294420D03*
X145859420Y-112294420D03*
X146509420Y-112294420D03*
%TD*%
D19*
%TO.C,R11*%
X125709420Y-104084420D03*
X124059420Y-104084420D03*
%TD*%
D20*
%TO.C,J3*%
X168544420Y-89884420D03*
D21*
X163464420Y-89884420D03*
X158384420Y-89884420D03*
%TD*%
D22*
%TO.C,C3*%
X151584420Y-115319420D03*
X151584420Y-113769420D03*
%TD*%
D23*
%TO.C,C2*%
X161784420Y-103934420D03*
X161784420Y-102034420D03*
%TD*%
D24*
%TO.C,C6*%
X158734420Y-113969420D03*
X156834420Y-113969420D03*
%TD*%
D25*
%TO.C,R10*%
X124659420Y-110584420D03*
X126309420Y-110584420D03*
%TD*%
D20*
%TO.C,J5*%
X129984420Y-89884420D03*
D21*
X124904420Y-89884420D03*
X119824420Y-89884420D03*
%TD*%
D25*
%TO.C,R6*%
X129159420Y-104084420D03*
X130809420Y-104084420D03*
%TD*%
D26*
%TO.C,L1*%
X165684420Y-113569420D03*
X165684420Y-107519420D03*
%TD*%
D16*
%TO.C,R4*%
X145284420Y-115459420D03*
X145284420Y-117109420D03*
%TD*%
D27*
%TO.C,C4*%
X147934420Y-111144420D03*
X149484420Y-111144420D03*
%TD*%
D28*
%TO.C,REF\u002A\u002A*%
X110684420Y-87484420D03*
X112381476Y-88187364D03*
X108987364Y-88187364D03*
X113084420Y-89884420D03*
D29*
X110684420Y-89884420D03*
D28*
X108284420Y-89884420D03*
X112381476Y-91581476D03*
X108987364Y-91581476D03*
X110684420Y-92284420D03*
%TD*%
D19*
%TO.C,R8*%
X140534420Y-102944420D03*
X138884420Y-102944420D03*
%TD*%
D17*
%TO.C,U2*%
X160684420Y-109394420D03*
X159734420Y-109394420D03*
X158784420Y-109394420D03*
X158784420Y-111669420D03*
X159734420Y-111669420D03*
X160684420Y-111669420D03*
%TD*%
D22*
%TO.C,C8*%
X149309420Y-107894420D03*
X149309420Y-106344420D03*
%TD*%
D30*
%TO.C,Y1*%
X144771920Y-103294420D03*
X146971920Y-103294420D03*
X146971920Y-101594420D03*
X144771920Y-101594420D03*
%TD*%
D31*
%TO.C,D1*%
X165684420Y-100269420D03*
X165684420Y-104269420D03*
%TD*%
D15*
%TO.C,Q2*%
X123934420Y-101584420D03*
X125834420Y-101584420D03*
X124884420Y-99709420D03*
%TD*%
D28*
%TO.C,REF\u002A\u002A*%
X177684420Y-87484420D03*
X179381476Y-88187364D03*
X175987364Y-88187364D03*
X180084420Y-89884420D03*
D29*
X177684420Y-89884420D03*
D28*
X175284420Y-89884420D03*
X179381476Y-91581476D03*
X175987364Y-91581476D03*
X177684420Y-92284420D03*
%TD*%
%TO.C,REF\u002A\u002A*%
X113084420Y-119384420D03*
X112381476Y-121081476D03*
X112381476Y-117687364D03*
X110684420Y-121784420D03*
D29*
X110684420Y-119384420D03*
D28*
X110684420Y-116984420D03*
X108987364Y-121081476D03*
X108987364Y-117687364D03*
X108284420Y-119384420D03*
%TD*%
D32*
%TO.C,J2*%
X140694420Y-120154420D03*
X146474420Y-120154420D03*
D33*
X140384420Y-119079420D03*
X141184420Y-119079420D03*
D34*
X142334420Y-119079420D03*
X143334420Y-119079420D03*
X143834420Y-119079420D03*
X144834420Y-119079420D03*
D33*
X145984420Y-119079420D03*
X146784420Y-119079420D03*
X146784420Y-119079420D03*
X145984420Y-119079420D03*
D34*
X145334420Y-119079420D03*
X144334420Y-119079420D03*
X142834420Y-119079420D03*
X141834420Y-119079420D03*
D33*
X141184420Y-119079420D03*
X140384420Y-119079420D03*
D35*
X139264420Y-119654420D03*
D36*
X139264420Y-123834420D03*
D35*
X147904420Y-119654420D03*
D36*
X147904420Y-123834420D03*
%TD*%
D37*
%TO.C,J1*%
X162464420Y-120284420D03*
D38*
X159924420Y-120284420D03*
X157384420Y-120284420D03*
X154844420Y-120284420D03*
%TD*%
D15*
%TO.C,Q4*%
X129084420Y-101584420D03*
X130984420Y-101584420D03*
X130034420Y-99709420D03*
%TD*%
D25*
%TO.C,R2*%
X158684420Y-107394420D03*
X160334420Y-107394420D03*
%TD*%
D19*
%TO.C,R9*%
X140534420Y-101444420D03*
X138884420Y-101444420D03*
%TD*%
D16*
%TO.C,R5*%
X147809420Y-106269420D03*
X147809420Y-107919420D03*
%TD*%
D25*
%TO.C,R7*%
X129959420Y-110584420D03*
X131609420Y-110584420D03*
%TD*%
D15*
%TO.C,Q1*%
X128234420Y-108459420D03*
X130134420Y-108459420D03*
X129184420Y-106584420D03*
%TD*%
D39*
%TO.C,D2*%
X137209420Y-106584420D03*
X138784420Y-106584420D03*
%TD*%
D20*
%TO.C,J4*%
X149264420Y-89884420D03*
D21*
X144184420Y-89884420D03*
X139104420Y-89884420D03*
%TD*%
D22*
%TO.C,C5*%
X143021920Y-102969420D03*
X143021920Y-101419420D03*
%TD*%
D16*
%TO.C,R1*%
X158784420Y-104019420D03*
X158784420Y-105669420D03*
%TD*%
D28*
%TO.C,REF\u002A\u002A*%
X177684420Y-116984420D03*
X179381476Y-117687364D03*
X175987364Y-117687364D03*
X180084420Y-119384420D03*
D29*
X177684420Y-119384420D03*
D28*
X175284420Y-119384420D03*
X179381476Y-121081476D03*
X175987364Y-121081476D03*
X177684420Y-121784420D03*
%TD*%
D27*
%TO.C,C7*%
X147934420Y-109394420D03*
X149484420Y-109394420D03*
%TD*%
%LPD*%
M02*
