%TF.GenerationSoftware,KiCad,Pcbnew,8.0.8*%
%TF.CreationDate,2025-06-06T07:34:51+09:00*%
%TF.ProjectId,fsk-traffic,66736b2d-7472-4616-9666-69632e6b6963,rev?*%
%TF.SameCoordinates,Original*%
%TF.FileFunction,Legend,Bot*%
%TF.FilePolarity,Positive*%
%FSLAX46Y46*%
G04 Gerber Fmt 4.6, Leading zero omitted, Abs format (unit mm)*
G04 Created by KiCad (PCBNEW 8.0.8) date 2025-06-06 07:34:51*
%MOMM*%
%LPD*%
G01*
G04 APERTURE LIST*
%ADD10R,2.600000X2.600000*%
%ADD11C,2.600000*%
%ADD12C,0.800000*%
%ADD13C,6.400000*%
%ADD14C,0.650000*%
%ADD15O,1.000000X2.100000*%
%ADD16O,1.000000X1.800000*%
%ADD17R,1.700000X1.700000*%
%ADD18O,1.700000X1.700000*%
G04 APERTURE END LIST*
%LPC*%
D10*
%TO.C,J3*%
X168544420Y-89884420D03*
D11*
X163464420Y-89884420D03*
X158384420Y-89884420D03*
%TD*%
D10*
%TO.C,J5*%
X129984420Y-89884420D03*
D11*
X124904420Y-89884420D03*
X119824420Y-89884420D03*
%TD*%
D12*
%TO.C,REF\u002A\u002A*%
X110684420Y-87484420D03*
X112381476Y-88187364D03*
X108987364Y-88187364D03*
X113084420Y-89884420D03*
D13*
X110684420Y-89884420D03*
D12*
X108284420Y-89884420D03*
X112381476Y-91581476D03*
X108987364Y-91581476D03*
X110684420Y-92284420D03*
%TD*%
%TO.C,REF\u002A\u002A*%
X177684420Y-87484420D03*
X179381476Y-88187364D03*
X175987364Y-88187364D03*
X180084420Y-89884420D03*
D13*
X177684420Y-89884420D03*
D12*
X175284420Y-89884420D03*
X179381476Y-91581476D03*
X175987364Y-91581476D03*
X177684420Y-92284420D03*
%TD*%
%TO.C,REF\u002A\u002A*%
X113084420Y-119384420D03*
X112381476Y-121081476D03*
X112381476Y-117687364D03*
X110684420Y-121784420D03*
D13*
X110684420Y-119384420D03*
D12*
X110684420Y-116984420D03*
X108987364Y-121081476D03*
X108987364Y-117687364D03*
X108284420Y-119384420D03*
%TD*%
D14*
%TO.C,J2*%
X140694420Y-120154420D03*
X146474420Y-120154420D03*
D15*
X139264420Y-119654420D03*
D16*
X139264420Y-123834420D03*
D15*
X147904420Y-119654420D03*
D16*
X147904420Y-123834420D03*
%TD*%
D17*
%TO.C,J1*%
X162464420Y-120284420D03*
D18*
X159924420Y-120284420D03*
X157384420Y-120284420D03*
X154844420Y-120284420D03*
%TD*%
D10*
%TO.C,J4*%
X149264420Y-89884420D03*
D11*
X144184420Y-89884420D03*
X139104420Y-89884420D03*
%TD*%
D12*
%TO.C,REF\u002A\u002A*%
X177684420Y-116984420D03*
X179381476Y-117687364D03*
X175987364Y-117687364D03*
X180084420Y-119384420D03*
D13*
X177684420Y-119384420D03*
D12*
X175284420Y-119384420D03*
X179381476Y-121081476D03*
X175987364Y-121081476D03*
X177684420Y-121784420D03*
%TD*%
%LPD*%
M02*
