M48
; DRILL file {KiCad 9.0.6} date 2025-12-26T10:16:47+0900
; FORMAT={-:-/ absolute / inch / decimal}
; #@! TF.CreationDate,2025-12-26T10:16:47+09:00
; #@! TF.GenerationSoftware,Kicad,Pcbnew,9.0.6
; #@! TF.FileFunction,Plated,1,2,PTH
FMAT,2
INCH
; #@! TA.AperFunction,Plated,PTH,ViaDrill
T1C0.0118
; #@! TA.AperFunction,Plated,PTH,ComponentDrill
T2C0.0197
; #@! TA.AperFunction,Plated,PTH,ComponentDrill
T3C0.0236
; #@! TA.AperFunction,Plated,PTH,ComponentDrill
T4C0.0394
; #@! TA.AperFunction,Plated,PTH,ComponentDrill
T5C0.0709
; #@! TA.AperFunction,Plated,PTH,ComponentDrill
T6C0.1260
%
G90
G05
T1
X4.8258Y-4.0965
X4.8524Y-4.2165
X4.9232Y-4.0965
X5.0157Y-4.2165
X5.2205Y-4.1949
X5.2374Y-4.0224
X5.4508Y-4.1201
X5.4587Y-4.0768
X5.5506Y-4.5456
X5.6368Y-4.2549
X5.6791Y-3.9193
X5.6811Y-4.0787
X5.7435Y-4.4876
X5.7681Y-4.5092
X5.8262Y-4.5998
X5.9266Y-4.1868
X5.9513Y-4.0325
X6.0165Y-4.4791
X6.0681Y-4.0236
X6.1244Y-4.4862
X6.3089Y-4.1738
X6.3659Y-3.9612
T2
X4.185Y-3.3819
X4.185Y-4.7008
X4.2127Y-3.3151
X4.2127Y-3.4487
X4.2127Y-4.634
X4.2127Y-4.7676
X4.2795Y-3.2874
X4.2795Y-3.4764
X4.2795Y-4.6063
X4.2795Y-4.7953
X4.3463Y-3.3151
X4.3463Y-3.4487
X4.3463Y-4.634
X4.3463Y-4.7676
X4.374Y-3.3819
X4.374Y-4.7008
X6.9803Y-3.3819
X6.9803Y-4.7008
X7.008Y-3.3151
X7.008Y-3.4487
X7.008Y-4.634
X7.008Y-4.7676
X7.0748Y-3.2874
X7.0748Y-3.4764
X7.0748Y-4.6063
X7.0748Y-4.7953
X7.1416Y-3.3151
X7.1416Y-3.4487
X7.1416Y-4.634
X7.1416Y-4.7676
X7.1693Y-3.3819
X7.1693Y-4.7008
T4
X6.0962Y-4.7356
X6.1962Y-4.7356
X6.2962Y-4.7356
X6.3962Y-4.7356
T5
X4.7638Y-3.4882
X4.7638Y-3.7047
X4.9291Y-3.4882
X4.9291Y-3.7047
X5.5945Y-3.4882
X5.5945Y-3.7047
X5.7598Y-3.4882
X5.7598Y-3.7047
X6.425Y-3.4882
X6.425Y-3.7047
X6.5904Y-3.4882
X6.5904Y-3.7047
T6
X4.2795Y-3.3819
X4.2795Y-4.7008
X7.0748Y-3.3819
X7.0748Y-4.7008
T3
G00X5.4829Y-4.6892
M15
G01X5.4829Y-4.7325
M16
G05
G00X5.4829Y-4.8596
M15
G01X5.4829Y-4.8911
M16
G05
G00X5.823Y-4.6892
M15
G01X5.823Y-4.7325
M16
G05
G00X5.823Y-4.8596
M15
G01X5.823Y-4.8911
M16
G05
M30
