%TF.GenerationSoftware,KiCad,Pcbnew,8.0.8*%
%TF.CreationDate,2025-05-15T08:13:23+09:00*%
%TF.ProjectId,fsk-traffic,66736b2d-7472-4616-9666-69632e6b6963,rev?*%
%TF.SameCoordinates,Original*%
%TF.FileFunction,Legend,Top*%
%TF.FilePolarity,Positive*%
%FSLAX46Y46*%
G04 Gerber Fmt 4.6, Leading zero omitted, Abs format (unit mm)*
G04 Created by KiCad (PCBNEW 8.0.8) date 2025-05-15 08:13:23*
%MOMM*%
%LPD*%
G01*
G04 APERTURE LIST*
G04 Aperture macros list*
%AMRoundRect*
0 Rectangle with rounded corners*
0 $1 Rounding radius*
0 $2 $3 $4 $5 $6 $7 $8 $9 X,Y pos of 4 corners*
0 Add a 4 corners polygon primitive as box body*
4,1,4,$2,$3,$4,$5,$6,$7,$8,$9,$2,$3,0*
0 Add four circle primitives for the rounded corners*
1,1,$1+$1,$2,$3*
1,1,$1+$1,$4,$5*
1,1,$1+$1,$6,$7*
1,1,$1+$1,$8,$9*
0 Add four rect primitives between the rounded corners*
20,1,$1+$1,$2,$3,$4,$5,0*
20,1,$1+$1,$4,$5,$6,$7,0*
20,1,$1+$1,$6,$7,$8,$9,0*
20,1,$1+$1,$8,$9,$2,$3,0*%
G04 Aperture macros list end*
%ADD10C,0.100000*%
%ADD11C,0.120000*%
%ADD12C,0.000000*%
%ADD13RoundRect,0.250000X0.250000X0.475000X-0.250000X0.475000X-0.250000X-0.475000X0.250000X-0.475000X0*%
%ADD14RoundRect,0.250000X0.475000X-0.250000X0.475000X0.250000X-0.475000X0.250000X-0.475000X-0.250000X0*%
%ADD15RoundRect,0.225000X-0.225000X-0.250000X0.225000X-0.250000X0.225000X0.250000X-0.225000X0.250000X0*%
%ADD16RoundRect,0.150000X0.587500X0.150000X-0.587500X0.150000X-0.587500X-0.150000X0.587500X-0.150000X0*%
%ADD17RoundRect,0.200000X-0.200000X-0.275000X0.200000X-0.275000X0.200000X0.275000X-0.200000X0.275000X0*%
%ADD18RoundRect,0.100000X-0.637500X-0.100000X0.637500X-0.100000X0.637500X0.100000X-0.637500X0.100000X0*%
%ADD19RoundRect,0.200000X0.200000X0.275000X-0.200000X0.275000X-0.200000X-0.275000X0.200000X-0.275000X0*%
%ADD20RoundRect,0.250000X-0.675000X0.600000X-0.675000X-0.600000X0.675000X-0.600000X0.675000X0.600000X0*%
%ADD21O,1.850000X1.700000*%
%ADD22C,2.200000*%
%ADD23RoundRect,0.250000X-1.000000X-0.650000X1.000000X-0.650000X1.000000X0.650000X-1.000000X0.650000X0*%
%ADD24RoundRect,0.250000X0.925000X1.500000X-0.925000X1.500000X-0.925000X-1.500000X0.925000X-1.500000X0*%
%ADD25RoundRect,0.150000X-0.512500X-0.150000X0.512500X-0.150000X0.512500X0.150000X-0.512500X0.150000X0*%
%ADD26RoundRect,0.200000X-0.275000X0.200000X-0.275000X-0.200000X0.275000X-0.200000X0.275000X0.200000X0*%
%ADD27RoundRect,0.225000X0.225000X0.250000X-0.225000X0.250000X-0.225000X-0.250000X0.225000X-0.250000X0*%
%ADD28RoundRect,0.225000X0.250000X-0.225000X0.250000X0.225000X-0.250000X0.225000X-0.250000X-0.225000X0*%
%ADD29RoundRect,0.225000X-0.250000X0.225000X-0.250000X-0.225000X0.250000X-0.225000X0.250000X0.225000X0*%
%ADD30R,1.200000X1.400000*%
%ADD31C,0.650000*%
%ADD32RoundRect,0.150000X0.425000X-0.150000X0.425000X0.150000X-0.425000X0.150000X-0.425000X-0.150000X0*%
%ADD33RoundRect,0.075000X0.500000X-0.075000X0.500000X0.075000X-0.500000X0.075000X-0.500000X-0.075000X0*%
%ADD34O,2.100000X1.000000*%
%ADD35O,1.800000X1.000000*%
%ADD36RoundRect,0.150000X-0.150000X0.512500X-0.150000X-0.512500X0.150000X-0.512500X0.150000X0.512500X0*%
%ADD37R,1.700000X1.700000*%
%ADD38O,1.700000X1.700000*%
%ADD39RoundRect,0.218750X-0.218750X-0.256250X0.218750X-0.256250X0.218750X0.256250X-0.218750X0.256250X0*%
G04 APERTURE END LIST*
D10*
X161200000Y-125900000D02*
X166200000Y-125900000D01*
X166200000Y-130900000D01*
X161200000Y-130900000D01*
X161200000Y-125900000D01*
G36*
X161200000Y-125900000D02*
G01*
X166200000Y-125900000D01*
X166200000Y-130900000D01*
X161200000Y-130900000D01*
X161200000Y-125900000D01*
G37*
X170909800Y-104238972D02*
X170933609Y-104167544D01*
X170933609Y-104167544D02*
X170933609Y-104048496D01*
X170933609Y-104048496D02*
X170909800Y-104000877D01*
X170909800Y-104000877D02*
X170885990Y-103977068D01*
X170885990Y-103977068D02*
X170838371Y-103953258D01*
X170838371Y-103953258D02*
X170790752Y-103953258D01*
X170790752Y-103953258D02*
X170743133Y-103977068D01*
X170743133Y-103977068D02*
X170719323Y-104000877D01*
X170719323Y-104000877D02*
X170695514Y-104048496D01*
X170695514Y-104048496D02*
X170671704Y-104143734D01*
X170671704Y-104143734D02*
X170647895Y-104191353D01*
X170647895Y-104191353D02*
X170624085Y-104215163D01*
X170624085Y-104215163D02*
X170576466Y-104238972D01*
X170576466Y-104238972D02*
X170528847Y-104238972D01*
X170528847Y-104238972D02*
X170481228Y-104215163D01*
X170481228Y-104215163D02*
X170457419Y-104191353D01*
X170457419Y-104191353D02*
X170433609Y-104143734D01*
X170433609Y-104143734D02*
X170433609Y-104024687D01*
X170433609Y-104024687D02*
X170457419Y-103953258D01*
X170433609Y-103786592D02*
X170933609Y-103667544D01*
X170933609Y-103667544D02*
X170576466Y-103572306D01*
X170576466Y-103572306D02*
X170933609Y-103477068D01*
X170933609Y-103477068D02*
X170433609Y-103358021D01*
X170933609Y-103167544D02*
X170433609Y-103167544D01*
X170433609Y-103167544D02*
X170433609Y-103048496D01*
X170433609Y-103048496D02*
X170457419Y-102977068D01*
X170457419Y-102977068D02*
X170505038Y-102929449D01*
X170505038Y-102929449D02*
X170552657Y-102905639D01*
X170552657Y-102905639D02*
X170647895Y-102881830D01*
X170647895Y-102881830D02*
X170719323Y-102881830D01*
X170719323Y-102881830D02*
X170814561Y-102905639D01*
X170814561Y-102905639D02*
X170862180Y-102929449D01*
X170862180Y-102929449D02*
X170909800Y-102977068D01*
X170909800Y-102977068D02*
X170933609Y-103048496D01*
X170933609Y-103048496D02*
X170933609Y-103167544D01*
X170933609Y-102667544D02*
X170433609Y-102667544D01*
X170433609Y-102334211D02*
X170433609Y-102238973D01*
X170433609Y-102238973D02*
X170457419Y-102191354D01*
X170457419Y-102191354D02*
X170505038Y-102143735D01*
X170505038Y-102143735D02*
X170600276Y-102119925D01*
X170600276Y-102119925D02*
X170766942Y-102119925D01*
X170766942Y-102119925D02*
X170862180Y-102143735D01*
X170862180Y-102143735D02*
X170909800Y-102191354D01*
X170909800Y-102191354D02*
X170933609Y-102238973D01*
X170933609Y-102238973D02*
X170933609Y-102334211D01*
X170933609Y-102334211D02*
X170909800Y-102381830D01*
X170909800Y-102381830D02*
X170862180Y-102429449D01*
X170862180Y-102429449D02*
X170766942Y-102453258D01*
X170766942Y-102453258D02*
X170600276Y-102453258D01*
X170600276Y-102453258D02*
X170505038Y-102429449D01*
X170505038Y-102429449D02*
X170457419Y-102381830D01*
X170457419Y-102381830D02*
X170433609Y-102334211D01*
X170433609Y-101362782D02*
X170433609Y-101053258D01*
X170433609Y-101053258D02*
X170624085Y-101219925D01*
X170624085Y-101219925D02*
X170624085Y-101148496D01*
X170624085Y-101148496D02*
X170647895Y-101100877D01*
X170647895Y-101100877D02*
X170671704Y-101077068D01*
X170671704Y-101077068D02*
X170719323Y-101053258D01*
X170719323Y-101053258D02*
X170838371Y-101053258D01*
X170838371Y-101053258D02*
X170885990Y-101077068D01*
X170885990Y-101077068D02*
X170909800Y-101100877D01*
X170909800Y-101100877D02*
X170933609Y-101148496D01*
X170933609Y-101148496D02*
X170933609Y-101291353D01*
X170933609Y-101291353D02*
X170909800Y-101338972D01*
X170909800Y-101338972D02*
X170885990Y-101362782D01*
X170433609Y-100910401D02*
X170933609Y-100743735D01*
X170933609Y-100743735D02*
X170433609Y-100577068D01*
X170433609Y-100458021D02*
X170433609Y-100148497D01*
X170433609Y-100148497D02*
X170624085Y-100315164D01*
X170624085Y-100315164D02*
X170624085Y-100243735D01*
X170624085Y-100243735D02*
X170647895Y-100196116D01*
X170647895Y-100196116D02*
X170671704Y-100172307D01*
X170671704Y-100172307D02*
X170719323Y-100148497D01*
X170719323Y-100148497D02*
X170838371Y-100148497D01*
X170838371Y-100148497D02*
X170885990Y-100172307D01*
X170885990Y-100172307D02*
X170909800Y-100196116D01*
X170909800Y-100196116D02*
X170933609Y-100243735D01*
X170933609Y-100243735D02*
X170933609Y-100386592D01*
X170933609Y-100386592D02*
X170909800Y-100434211D01*
X170909800Y-100434211D02*
X170885990Y-100458021D01*
X170909800Y-107138972D02*
X170933609Y-107067544D01*
X170933609Y-107067544D02*
X170933609Y-106948496D01*
X170933609Y-106948496D02*
X170909800Y-106900877D01*
X170909800Y-106900877D02*
X170885990Y-106877068D01*
X170885990Y-106877068D02*
X170838371Y-106853258D01*
X170838371Y-106853258D02*
X170790752Y-106853258D01*
X170790752Y-106853258D02*
X170743133Y-106877068D01*
X170743133Y-106877068D02*
X170719323Y-106900877D01*
X170719323Y-106900877D02*
X170695514Y-106948496D01*
X170695514Y-106948496D02*
X170671704Y-107043734D01*
X170671704Y-107043734D02*
X170647895Y-107091353D01*
X170647895Y-107091353D02*
X170624085Y-107115163D01*
X170624085Y-107115163D02*
X170576466Y-107138972D01*
X170576466Y-107138972D02*
X170528847Y-107138972D01*
X170528847Y-107138972D02*
X170481228Y-107115163D01*
X170481228Y-107115163D02*
X170457419Y-107091353D01*
X170457419Y-107091353D02*
X170433609Y-107043734D01*
X170433609Y-107043734D02*
X170433609Y-106924687D01*
X170433609Y-106924687D02*
X170457419Y-106853258D01*
X170433609Y-106686592D02*
X170933609Y-106567544D01*
X170933609Y-106567544D02*
X170576466Y-106472306D01*
X170576466Y-106472306D02*
X170933609Y-106377068D01*
X170933609Y-106377068D02*
X170433609Y-106258021D01*
X170885990Y-105781830D02*
X170909800Y-105805639D01*
X170909800Y-105805639D02*
X170933609Y-105877068D01*
X170933609Y-105877068D02*
X170933609Y-105924687D01*
X170933609Y-105924687D02*
X170909800Y-105996115D01*
X170909800Y-105996115D02*
X170862180Y-106043734D01*
X170862180Y-106043734D02*
X170814561Y-106067544D01*
X170814561Y-106067544D02*
X170719323Y-106091353D01*
X170719323Y-106091353D02*
X170647895Y-106091353D01*
X170647895Y-106091353D02*
X170552657Y-106067544D01*
X170552657Y-106067544D02*
X170505038Y-106043734D01*
X170505038Y-106043734D02*
X170457419Y-105996115D01*
X170457419Y-105996115D02*
X170433609Y-105924687D01*
X170433609Y-105924687D02*
X170433609Y-105877068D01*
X170433609Y-105877068D02*
X170457419Y-105805639D01*
X170457419Y-105805639D02*
X170481228Y-105781830D01*
X170933609Y-105329449D02*
X170933609Y-105567544D01*
X170933609Y-105567544D02*
X170433609Y-105567544D01*
X170933609Y-105162782D02*
X170433609Y-105162782D01*
X170933609Y-104877068D02*
X170647895Y-105091353D01*
X170433609Y-104877068D02*
X170719323Y-105162782D01*
X146492800Y-106819925D02*
X146521371Y-106734211D01*
X146521371Y-106734211D02*
X146521371Y-106591353D01*
X146521371Y-106591353D02*
X146492800Y-106534211D01*
X146492800Y-106534211D02*
X146464228Y-106505639D01*
X146464228Y-106505639D02*
X146407085Y-106477068D01*
X146407085Y-106477068D02*
X146349942Y-106477068D01*
X146349942Y-106477068D02*
X146292800Y-106505639D01*
X146292800Y-106505639D02*
X146264228Y-106534211D01*
X146264228Y-106534211D02*
X146235657Y-106591353D01*
X146235657Y-106591353D02*
X146207085Y-106705639D01*
X146207085Y-106705639D02*
X146178514Y-106762782D01*
X146178514Y-106762782D02*
X146149942Y-106791353D01*
X146149942Y-106791353D02*
X146092800Y-106819925D01*
X146092800Y-106819925D02*
X146035657Y-106819925D01*
X146035657Y-106819925D02*
X145978514Y-106791353D01*
X145978514Y-106791353D02*
X145949942Y-106762782D01*
X145949942Y-106762782D02*
X145921371Y-106705639D01*
X145921371Y-106705639D02*
X145921371Y-106562782D01*
X145921371Y-106562782D02*
X145949942Y-106477068D01*
X146207085Y-106219924D02*
X146207085Y-106019924D01*
X146521371Y-105934210D02*
X146521371Y-106219924D01*
X146521371Y-106219924D02*
X145921371Y-106219924D01*
X145921371Y-106219924D02*
X145921371Y-105934210D01*
X146521371Y-105677067D02*
X145921371Y-105677067D01*
X145921371Y-105677067D02*
X146521371Y-105334210D01*
X146521371Y-105334210D02*
X145921371Y-105334210D01*
X146492800Y-105077068D02*
X146521371Y-104991354D01*
X146521371Y-104991354D02*
X146521371Y-104848496D01*
X146521371Y-104848496D02*
X146492800Y-104791354D01*
X146492800Y-104791354D02*
X146464228Y-104762782D01*
X146464228Y-104762782D02*
X146407085Y-104734211D01*
X146407085Y-104734211D02*
X146349942Y-104734211D01*
X146349942Y-104734211D02*
X146292800Y-104762782D01*
X146292800Y-104762782D02*
X146264228Y-104791354D01*
X146264228Y-104791354D02*
X146235657Y-104848496D01*
X146235657Y-104848496D02*
X146207085Y-104962782D01*
X146207085Y-104962782D02*
X146178514Y-105019925D01*
X146178514Y-105019925D02*
X146149942Y-105048496D01*
X146149942Y-105048496D02*
X146092800Y-105077068D01*
X146092800Y-105077068D02*
X146035657Y-105077068D01*
X146035657Y-105077068D02*
X145978514Y-105048496D01*
X145978514Y-105048496D02*
X145949942Y-105019925D01*
X145949942Y-105019925D02*
X145921371Y-104962782D01*
X145921371Y-104962782D02*
X145921371Y-104819925D01*
X145921371Y-104819925D02*
X145949942Y-104734211D01*
X145921371Y-104362782D02*
X145921371Y-104248496D01*
X145921371Y-104248496D02*
X145949942Y-104191353D01*
X145949942Y-104191353D02*
X146007085Y-104134210D01*
X146007085Y-104134210D02*
X146121371Y-104105639D01*
X146121371Y-104105639D02*
X146321371Y-104105639D01*
X146321371Y-104105639D02*
X146435657Y-104134210D01*
X146435657Y-104134210D02*
X146492800Y-104191353D01*
X146492800Y-104191353D02*
X146521371Y-104248496D01*
X146521371Y-104248496D02*
X146521371Y-104362782D01*
X146521371Y-104362782D02*
X146492800Y-104419925D01*
X146492800Y-104419925D02*
X146435657Y-104477067D01*
X146435657Y-104477067D02*
X146321371Y-104505639D01*
X146321371Y-104505639D02*
X146121371Y-104505639D01*
X146121371Y-104505639D02*
X146007085Y-104477067D01*
X146007085Y-104477067D02*
X145949942Y-104419925D01*
X145949942Y-104419925D02*
X145921371Y-104362782D01*
X146521371Y-103505639D02*
X146235657Y-103705639D01*
X146521371Y-103848496D02*
X145921371Y-103848496D01*
X145921371Y-103848496D02*
X145921371Y-103619925D01*
X145921371Y-103619925D02*
X145949942Y-103562782D01*
X145949942Y-103562782D02*
X145978514Y-103534211D01*
X145978514Y-103534211D02*
X146035657Y-103505639D01*
X146035657Y-103505639D02*
X146121371Y-103505639D01*
X146121371Y-103505639D02*
X146178514Y-103534211D01*
X146178514Y-103534211D02*
X146207085Y-103562782D01*
X146207085Y-103562782D02*
X146235657Y-103619925D01*
X146235657Y-103619925D02*
X146235657Y-103848496D01*
X146521371Y-102477068D02*
X146521371Y-102819925D01*
X146521371Y-102648496D02*
X145921371Y-102648496D01*
X145921371Y-102648496D02*
X146007085Y-102705639D01*
X146007085Y-102705639D02*
X146064228Y-102762782D01*
X146064228Y-102762782D02*
X146092800Y-102819925D01*
X170457419Y-108753258D02*
X170433609Y-108800877D01*
X170433609Y-108800877D02*
X170433609Y-108872306D01*
X170433609Y-108872306D02*
X170457419Y-108943734D01*
X170457419Y-108943734D02*
X170505038Y-108991353D01*
X170505038Y-108991353D02*
X170552657Y-109015163D01*
X170552657Y-109015163D02*
X170647895Y-109038972D01*
X170647895Y-109038972D02*
X170719323Y-109038972D01*
X170719323Y-109038972D02*
X170814561Y-109015163D01*
X170814561Y-109015163D02*
X170862180Y-108991353D01*
X170862180Y-108991353D02*
X170909800Y-108943734D01*
X170909800Y-108943734D02*
X170933609Y-108872306D01*
X170933609Y-108872306D02*
X170933609Y-108824687D01*
X170933609Y-108824687D02*
X170909800Y-108753258D01*
X170909800Y-108753258D02*
X170885990Y-108729449D01*
X170885990Y-108729449D02*
X170719323Y-108729449D01*
X170719323Y-108729449D02*
X170719323Y-108824687D01*
X170933609Y-108515163D02*
X170433609Y-108515163D01*
X170433609Y-108515163D02*
X170933609Y-108229449D01*
X170933609Y-108229449D02*
X170433609Y-108229449D01*
X170933609Y-107991353D02*
X170433609Y-107991353D01*
X170433609Y-107991353D02*
X170433609Y-107872305D01*
X170433609Y-107872305D02*
X170457419Y-107800877D01*
X170457419Y-107800877D02*
X170505038Y-107753258D01*
X170505038Y-107753258D02*
X170552657Y-107729448D01*
X170552657Y-107729448D02*
X170647895Y-107705639D01*
X170647895Y-107705639D02*
X170719323Y-107705639D01*
X170719323Y-107705639D02*
X170814561Y-107729448D01*
X170814561Y-107729448D02*
X170862180Y-107753258D01*
X170862180Y-107753258D02*
X170909800Y-107800877D01*
X170909800Y-107800877D02*
X170933609Y-107872305D01*
X170933609Y-107872305D02*
X170933609Y-107991353D01*
X146492800Y-118119925D02*
X146521371Y-118034211D01*
X146521371Y-118034211D02*
X146521371Y-117891353D01*
X146521371Y-117891353D02*
X146492800Y-117834211D01*
X146492800Y-117834211D02*
X146464228Y-117805639D01*
X146464228Y-117805639D02*
X146407085Y-117777068D01*
X146407085Y-117777068D02*
X146349942Y-117777068D01*
X146349942Y-117777068D02*
X146292800Y-117805639D01*
X146292800Y-117805639D02*
X146264228Y-117834211D01*
X146264228Y-117834211D02*
X146235657Y-117891353D01*
X146235657Y-117891353D02*
X146207085Y-118005639D01*
X146207085Y-118005639D02*
X146178514Y-118062782D01*
X146178514Y-118062782D02*
X146149942Y-118091353D01*
X146149942Y-118091353D02*
X146092800Y-118119925D01*
X146092800Y-118119925D02*
X146035657Y-118119925D01*
X146035657Y-118119925D02*
X145978514Y-118091353D01*
X145978514Y-118091353D02*
X145949942Y-118062782D01*
X145949942Y-118062782D02*
X145921371Y-118005639D01*
X145921371Y-118005639D02*
X145921371Y-117862782D01*
X145921371Y-117862782D02*
X145949942Y-117777068D01*
X146207085Y-117519924D02*
X146207085Y-117319924D01*
X146521371Y-117234210D02*
X146521371Y-117519924D01*
X146521371Y-117519924D02*
X145921371Y-117519924D01*
X145921371Y-117519924D02*
X145921371Y-117234210D01*
X146521371Y-116977067D02*
X145921371Y-116977067D01*
X145921371Y-116977067D02*
X146521371Y-116634210D01*
X146521371Y-116634210D02*
X145921371Y-116634210D01*
X146492800Y-116377068D02*
X146521371Y-116291354D01*
X146521371Y-116291354D02*
X146521371Y-116148496D01*
X146521371Y-116148496D02*
X146492800Y-116091354D01*
X146492800Y-116091354D02*
X146464228Y-116062782D01*
X146464228Y-116062782D02*
X146407085Y-116034211D01*
X146407085Y-116034211D02*
X146349942Y-116034211D01*
X146349942Y-116034211D02*
X146292800Y-116062782D01*
X146292800Y-116062782D02*
X146264228Y-116091354D01*
X146264228Y-116091354D02*
X146235657Y-116148496D01*
X146235657Y-116148496D02*
X146207085Y-116262782D01*
X146207085Y-116262782D02*
X146178514Y-116319925D01*
X146178514Y-116319925D02*
X146149942Y-116348496D01*
X146149942Y-116348496D02*
X146092800Y-116377068D01*
X146092800Y-116377068D02*
X146035657Y-116377068D01*
X146035657Y-116377068D02*
X145978514Y-116348496D01*
X145978514Y-116348496D02*
X145949942Y-116319925D01*
X145949942Y-116319925D02*
X145921371Y-116262782D01*
X145921371Y-116262782D02*
X145921371Y-116119925D01*
X145921371Y-116119925D02*
X145949942Y-116034211D01*
X145921371Y-115662782D02*
X145921371Y-115548496D01*
X145921371Y-115548496D02*
X145949942Y-115491353D01*
X145949942Y-115491353D02*
X146007085Y-115434210D01*
X146007085Y-115434210D02*
X146121371Y-115405639D01*
X146121371Y-115405639D02*
X146321371Y-115405639D01*
X146321371Y-115405639D02*
X146435657Y-115434210D01*
X146435657Y-115434210D02*
X146492800Y-115491353D01*
X146492800Y-115491353D02*
X146521371Y-115548496D01*
X146521371Y-115548496D02*
X146521371Y-115662782D01*
X146521371Y-115662782D02*
X146492800Y-115719925D01*
X146492800Y-115719925D02*
X146435657Y-115777067D01*
X146435657Y-115777067D02*
X146321371Y-115805639D01*
X146321371Y-115805639D02*
X146121371Y-115805639D01*
X146121371Y-115805639D02*
X146007085Y-115777067D01*
X146007085Y-115777067D02*
X145949942Y-115719925D01*
X145949942Y-115719925D02*
X145921371Y-115662782D01*
X146521371Y-114805639D02*
X146235657Y-115005639D01*
X146521371Y-115148496D02*
X145921371Y-115148496D01*
X145921371Y-115148496D02*
X145921371Y-114919925D01*
X145921371Y-114919925D02*
X145949942Y-114862782D01*
X145949942Y-114862782D02*
X145978514Y-114834211D01*
X145978514Y-114834211D02*
X146035657Y-114805639D01*
X146035657Y-114805639D02*
X146121371Y-114805639D01*
X146121371Y-114805639D02*
X146178514Y-114834211D01*
X146178514Y-114834211D02*
X146207085Y-114862782D01*
X146207085Y-114862782D02*
X146235657Y-114919925D01*
X146235657Y-114919925D02*
X146235657Y-115148496D01*
X145978514Y-114119925D02*
X145949942Y-114091353D01*
X145949942Y-114091353D02*
X145921371Y-114034211D01*
X145921371Y-114034211D02*
X145921371Y-113891353D01*
X145921371Y-113891353D02*
X145949942Y-113834211D01*
X145949942Y-113834211D02*
X145978514Y-113805639D01*
X145978514Y-113805639D02*
X146035657Y-113777068D01*
X146035657Y-113777068D02*
X146092800Y-113777068D01*
X146092800Y-113777068D02*
X146178514Y-113805639D01*
X146178514Y-113805639D02*
X146521371Y-114148496D01*
X146521371Y-114148496D02*
X146521371Y-113777068D01*
X146521371Y-129105639D02*
X146521371Y-129391353D01*
X146521371Y-129391353D02*
X145921371Y-129391353D01*
X146521371Y-128905639D02*
X145921371Y-128905639D01*
X145949942Y-128305640D02*
X145921371Y-128362783D01*
X145921371Y-128362783D02*
X145921371Y-128448497D01*
X145921371Y-128448497D02*
X145949942Y-128534211D01*
X145949942Y-128534211D02*
X146007085Y-128591354D01*
X146007085Y-128591354D02*
X146064228Y-128619925D01*
X146064228Y-128619925D02*
X146178514Y-128648497D01*
X146178514Y-128648497D02*
X146264228Y-128648497D01*
X146264228Y-128648497D02*
X146378514Y-128619925D01*
X146378514Y-128619925D02*
X146435657Y-128591354D01*
X146435657Y-128591354D02*
X146492800Y-128534211D01*
X146492800Y-128534211D02*
X146521371Y-128448497D01*
X146521371Y-128448497D02*
X146521371Y-128391354D01*
X146521371Y-128391354D02*
X146492800Y-128305640D01*
X146492800Y-128305640D02*
X146464228Y-128277068D01*
X146464228Y-128277068D02*
X146264228Y-128277068D01*
X146264228Y-128277068D02*
X146264228Y-128391354D01*
X146521371Y-128019925D02*
X145921371Y-128019925D01*
X146207085Y-128019925D02*
X146207085Y-127677068D01*
X146521371Y-127677068D02*
X145921371Y-127677068D01*
X145921371Y-127477069D02*
X145921371Y-127134212D01*
X146521371Y-127305640D02*
X145921371Y-127305640D01*
X160115228Y-109399999D02*
X160143800Y-109428571D01*
X160143800Y-109428571D02*
X160172371Y-109514285D01*
X160172371Y-109514285D02*
X160172371Y-109571428D01*
X160172371Y-109571428D02*
X160143800Y-109657142D01*
X160143800Y-109657142D02*
X160086657Y-109714285D01*
X160086657Y-109714285D02*
X160029514Y-109742856D01*
X160029514Y-109742856D02*
X159915228Y-109771428D01*
X159915228Y-109771428D02*
X159829514Y-109771428D01*
X159829514Y-109771428D02*
X159715228Y-109742856D01*
X159715228Y-109742856D02*
X159658085Y-109714285D01*
X159658085Y-109714285D02*
X159600942Y-109657142D01*
X159600942Y-109657142D02*
X159572371Y-109571428D01*
X159572371Y-109571428D02*
X159572371Y-109514285D01*
X159572371Y-109514285D02*
X159600942Y-109428571D01*
X159600942Y-109428571D02*
X159629514Y-109399999D01*
X159572371Y-108885714D02*
X159572371Y-108999999D01*
X159572371Y-108999999D02*
X159600942Y-109057142D01*
X159600942Y-109057142D02*
X159629514Y-109085714D01*
X159629514Y-109085714D02*
X159715228Y-109142856D01*
X159715228Y-109142856D02*
X159829514Y-109171428D01*
X159829514Y-109171428D02*
X160058085Y-109171428D01*
X160058085Y-109171428D02*
X160115228Y-109142856D01*
X160115228Y-109142856D02*
X160143800Y-109114285D01*
X160143800Y-109114285D02*
X160172371Y-109057142D01*
X160172371Y-109057142D02*
X160172371Y-108942856D01*
X160172371Y-108942856D02*
X160143800Y-108885714D01*
X160143800Y-108885714D02*
X160115228Y-108857142D01*
X160115228Y-108857142D02*
X160058085Y-108828571D01*
X160058085Y-108828571D02*
X159915228Y-108828571D01*
X159915228Y-108828571D02*
X159858085Y-108857142D01*
X159858085Y-108857142D02*
X159829514Y-108885714D01*
X159829514Y-108885714D02*
X159800942Y-108942856D01*
X159800942Y-108942856D02*
X159800942Y-109057142D01*
X159800942Y-109057142D02*
X159829514Y-109114285D01*
X159829514Y-109114285D02*
X159858085Y-109142856D01*
X159858085Y-109142856D02*
X159915228Y-109171428D01*
X147915228Y-104449999D02*
X147943800Y-104478571D01*
X147943800Y-104478571D02*
X147972371Y-104564285D01*
X147972371Y-104564285D02*
X147972371Y-104621428D01*
X147972371Y-104621428D02*
X147943800Y-104707142D01*
X147943800Y-104707142D02*
X147886657Y-104764285D01*
X147886657Y-104764285D02*
X147829514Y-104792856D01*
X147829514Y-104792856D02*
X147715228Y-104821428D01*
X147715228Y-104821428D02*
X147629514Y-104821428D01*
X147629514Y-104821428D02*
X147515228Y-104792856D01*
X147515228Y-104792856D02*
X147458085Y-104764285D01*
X147458085Y-104764285D02*
X147400942Y-104707142D01*
X147400942Y-104707142D02*
X147372371Y-104621428D01*
X147372371Y-104621428D02*
X147372371Y-104564285D01*
X147372371Y-104564285D02*
X147400942Y-104478571D01*
X147400942Y-104478571D02*
X147429514Y-104449999D01*
X147429514Y-104221428D02*
X147400942Y-104192856D01*
X147400942Y-104192856D02*
X147372371Y-104135714D01*
X147372371Y-104135714D02*
X147372371Y-103992856D01*
X147372371Y-103992856D02*
X147400942Y-103935714D01*
X147400942Y-103935714D02*
X147429514Y-103907142D01*
X147429514Y-103907142D02*
X147486657Y-103878571D01*
X147486657Y-103878571D02*
X147543800Y-103878571D01*
X147543800Y-103878571D02*
X147629514Y-103907142D01*
X147629514Y-103907142D02*
X147972371Y-104249999D01*
X147972371Y-104249999D02*
X147972371Y-103878571D01*
X155000000Y-112015228D02*
X154971428Y-112043800D01*
X154971428Y-112043800D02*
X154885714Y-112072371D01*
X154885714Y-112072371D02*
X154828571Y-112072371D01*
X154828571Y-112072371D02*
X154742857Y-112043800D01*
X154742857Y-112043800D02*
X154685714Y-111986657D01*
X154685714Y-111986657D02*
X154657143Y-111929514D01*
X154657143Y-111929514D02*
X154628571Y-111815228D01*
X154628571Y-111815228D02*
X154628571Y-111729514D01*
X154628571Y-111729514D02*
X154657143Y-111615228D01*
X154657143Y-111615228D02*
X154685714Y-111558085D01*
X154685714Y-111558085D02*
X154742857Y-111500942D01*
X154742857Y-111500942D02*
X154828571Y-111472371D01*
X154828571Y-111472371D02*
X154885714Y-111472371D01*
X154885714Y-111472371D02*
X154971428Y-111500942D01*
X154971428Y-111500942D02*
X155000000Y-111529514D01*
X155571428Y-112072371D02*
X155228571Y-112072371D01*
X155400000Y-112072371D02*
X155400000Y-111472371D01*
X155400000Y-111472371D02*
X155342857Y-111558085D01*
X155342857Y-111558085D02*
X155285714Y-111615228D01*
X155285714Y-111615228D02*
X155228571Y-111643800D01*
X155642857Y-128329514D02*
X155585714Y-128300942D01*
X155585714Y-128300942D02*
X155528571Y-128243800D01*
X155528571Y-128243800D02*
X155442857Y-128158085D01*
X155442857Y-128158085D02*
X155385714Y-128129514D01*
X155385714Y-128129514D02*
X155328571Y-128129514D01*
X155357142Y-128272371D02*
X155300000Y-128243800D01*
X155300000Y-128243800D02*
X155242857Y-128186657D01*
X155242857Y-128186657D02*
X155214285Y-128072371D01*
X155214285Y-128072371D02*
X155214285Y-127872371D01*
X155214285Y-127872371D02*
X155242857Y-127758085D01*
X155242857Y-127758085D02*
X155300000Y-127700942D01*
X155300000Y-127700942D02*
X155357142Y-127672371D01*
X155357142Y-127672371D02*
X155471428Y-127672371D01*
X155471428Y-127672371D02*
X155528571Y-127700942D01*
X155528571Y-127700942D02*
X155585714Y-127758085D01*
X155585714Y-127758085D02*
X155614285Y-127872371D01*
X155614285Y-127872371D02*
X155614285Y-128072371D01*
X155614285Y-128072371D02*
X155585714Y-128186657D01*
X155585714Y-128186657D02*
X155528571Y-128243800D01*
X155528571Y-128243800D02*
X155471428Y-128272371D01*
X155471428Y-128272371D02*
X155357142Y-128272371D01*
X155814285Y-127672371D02*
X156185713Y-127672371D01*
X156185713Y-127672371D02*
X155985713Y-127900942D01*
X155985713Y-127900942D02*
X156071428Y-127900942D01*
X156071428Y-127900942D02*
X156128571Y-127929514D01*
X156128571Y-127929514D02*
X156157142Y-127958085D01*
X156157142Y-127958085D02*
X156185713Y-128015228D01*
X156185713Y-128015228D02*
X156185713Y-128158085D01*
X156185713Y-128158085D02*
X156157142Y-128215228D01*
X156157142Y-128215228D02*
X156128571Y-128243800D01*
X156128571Y-128243800D02*
X156071428Y-128272371D01*
X156071428Y-128272371D02*
X155899999Y-128272371D01*
X155899999Y-128272371D02*
X155842856Y-128243800D01*
X155842856Y-128243800D02*
X155814285Y-128215228D01*
X166900000Y-122872371D02*
X166700000Y-122586657D01*
X166557143Y-122872371D02*
X166557143Y-122272371D01*
X166557143Y-122272371D02*
X166785714Y-122272371D01*
X166785714Y-122272371D02*
X166842857Y-122300942D01*
X166842857Y-122300942D02*
X166871428Y-122329514D01*
X166871428Y-122329514D02*
X166900000Y-122386657D01*
X166900000Y-122386657D02*
X166900000Y-122472371D01*
X166900000Y-122472371D02*
X166871428Y-122529514D01*
X166871428Y-122529514D02*
X166842857Y-122558085D01*
X166842857Y-122558085D02*
X166785714Y-122586657D01*
X166785714Y-122586657D02*
X166557143Y-122586657D01*
X167100000Y-122272371D02*
X167471428Y-122272371D01*
X167471428Y-122272371D02*
X167271428Y-122500942D01*
X167271428Y-122500942D02*
X167357143Y-122500942D01*
X167357143Y-122500942D02*
X167414286Y-122529514D01*
X167414286Y-122529514D02*
X167442857Y-122558085D01*
X167442857Y-122558085D02*
X167471428Y-122615228D01*
X167471428Y-122615228D02*
X167471428Y-122758085D01*
X167471428Y-122758085D02*
X167442857Y-122815228D01*
X167442857Y-122815228D02*
X167414286Y-122843800D01*
X167414286Y-122843800D02*
X167357143Y-122872371D01*
X167357143Y-122872371D02*
X167185714Y-122872371D01*
X167185714Y-122872371D02*
X167128571Y-122843800D01*
X167128571Y-122843800D02*
X167100000Y-122815228D01*
X163542857Y-120672371D02*
X163542857Y-121158085D01*
X163542857Y-121158085D02*
X163571428Y-121215228D01*
X163571428Y-121215228D02*
X163600000Y-121243800D01*
X163600000Y-121243800D02*
X163657142Y-121272371D01*
X163657142Y-121272371D02*
X163771428Y-121272371D01*
X163771428Y-121272371D02*
X163828571Y-121243800D01*
X163828571Y-121243800D02*
X163857142Y-121215228D01*
X163857142Y-121215228D02*
X163885714Y-121158085D01*
X163885714Y-121158085D02*
X163885714Y-120672371D01*
X164114285Y-120672371D02*
X164485713Y-120672371D01*
X164485713Y-120672371D02*
X164285713Y-120900942D01*
X164285713Y-120900942D02*
X164371428Y-120900942D01*
X164371428Y-120900942D02*
X164428571Y-120929514D01*
X164428571Y-120929514D02*
X164457142Y-120958085D01*
X164457142Y-120958085D02*
X164485713Y-121015228D01*
X164485713Y-121015228D02*
X164485713Y-121158085D01*
X164485713Y-121158085D02*
X164457142Y-121215228D01*
X164457142Y-121215228D02*
X164428571Y-121243800D01*
X164428571Y-121243800D02*
X164371428Y-121272371D01*
X164371428Y-121272371D02*
X164199999Y-121272371D01*
X164199999Y-121272371D02*
X164142856Y-121243800D01*
X164142856Y-121243800D02*
X164114285Y-121215228D01*
X152200000Y-121142371D02*
X152000000Y-120856657D01*
X151857143Y-121142371D02*
X151857143Y-120542371D01*
X151857143Y-120542371D02*
X152085714Y-120542371D01*
X152085714Y-120542371D02*
X152142857Y-120570942D01*
X152142857Y-120570942D02*
X152171428Y-120599514D01*
X152171428Y-120599514D02*
X152200000Y-120656657D01*
X152200000Y-120656657D02*
X152200000Y-120742371D01*
X152200000Y-120742371D02*
X152171428Y-120799514D01*
X152171428Y-120799514D02*
X152142857Y-120828085D01*
X152142857Y-120828085D02*
X152085714Y-120856657D01*
X152085714Y-120856657D02*
X151857143Y-120856657D01*
X152714286Y-120542371D02*
X152600000Y-120542371D01*
X152600000Y-120542371D02*
X152542857Y-120570942D01*
X152542857Y-120570942D02*
X152514286Y-120599514D01*
X152514286Y-120599514D02*
X152457143Y-120685228D01*
X152457143Y-120685228D02*
X152428571Y-120799514D01*
X152428571Y-120799514D02*
X152428571Y-121028085D01*
X152428571Y-121028085D02*
X152457143Y-121085228D01*
X152457143Y-121085228D02*
X152485714Y-121113800D01*
X152485714Y-121113800D02*
X152542857Y-121142371D01*
X152542857Y-121142371D02*
X152657143Y-121142371D01*
X152657143Y-121142371D02*
X152714286Y-121113800D01*
X152714286Y-121113800D02*
X152742857Y-121085228D01*
X152742857Y-121085228D02*
X152771428Y-121028085D01*
X152771428Y-121028085D02*
X152771428Y-120885228D01*
X152771428Y-120885228D02*
X152742857Y-120828085D01*
X152742857Y-120828085D02*
X152714286Y-120799514D01*
X152714286Y-120799514D02*
X152657143Y-120770942D01*
X152657143Y-120770942D02*
X152542857Y-120770942D01*
X152542857Y-120770942D02*
X152485714Y-120799514D01*
X152485714Y-120799514D02*
X152457143Y-120828085D01*
X152457143Y-120828085D02*
X152428571Y-120885228D01*
X159372371Y-106999999D02*
X159086657Y-107199999D01*
X159372371Y-107342856D02*
X158772371Y-107342856D01*
X158772371Y-107342856D02*
X158772371Y-107114285D01*
X158772371Y-107114285D02*
X158800942Y-107057142D01*
X158800942Y-107057142D02*
X158829514Y-107028571D01*
X158829514Y-107028571D02*
X158886657Y-106999999D01*
X158886657Y-106999999D02*
X158972371Y-106999999D01*
X158972371Y-106999999D02*
X159029514Y-107028571D01*
X159029514Y-107028571D02*
X159058085Y-107057142D01*
X159058085Y-107057142D02*
X159086657Y-107114285D01*
X159086657Y-107114285D02*
X159086657Y-107342856D01*
X158829514Y-106771428D02*
X158800942Y-106742856D01*
X158800942Y-106742856D02*
X158772371Y-106685714D01*
X158772371Y-106685714D02*
X158772371Y-106542856D01*
X158772371Y-106542856D02*
X158800942Y-106485714D01*
X158800942Y-106485714D02*
X158829514Y-106457142D01*
X158829514Y-106457142D02*
X158886657Y-106428571D01*
X158886657Y-106428571D02*
X158943800Y-106428571D01*
X158943800Y-106428571D02*
X159029514Y-106457142D01*
X159029514Y-106457142D02*
X159372371Y-106799999D01*
X159372371Y-106799999D02*
X159372371Y-106428571D01*
X159372371Y-108499999D02*
X159086657Y-108699999D01*
X159372371Y-108842856D02*
X158772371Y-108842856D01*
X158772371Y-108842856D02*
X158772371Y-108614285D01*
X158772371Y-108614285D02*
X158800942Y-108557142D01*
X158800942Y-108557142D02*
X158829514Y-108528571D01*
X158829514Y-108528571D02*
X158886657Y-108499999D01*
X158886657Y-108499999D02*
X158972371Y-108499999D01*
X158972371Y-108499999D02*
X159029514Y-108528571D01*
X159029514Y-108528571D02*
X159058085Y-108557142D01*
X159058085Y-108557142D02*
X159086657Y-108614285D01*
X159086657Y-108614285D02*
X159086657Y-108842856D01*
X159372371Y-107928571D02*
X159372371Y-108271428D01*
X159372371Y-108099999D02*
X158772371Y-108099999D01*
X158772371Y-108099999D02*
X158858085Y-108157142D01*
X158858085Y-108157142D02*
X158915228Y-108214285D01*
X158915228Y-108214285D02*
X158943800Y-108271428D01*
X145872371Y-99700000D02*
X146300942Y-99700000D01*
X146300942Y-99700000D02*
X146386657Y-99728571D01*
X146386657Y-99728571D02*
X146443800Y-99785714D01*
X146443800Y-99785714D02*
X146472371Y-99871428D01*
X146472371Y-99871428D02*
X146472371Y-99928571D01*
X145872371Y-99471428D02*
X145872371Y-99100000D01*
X145872371Y-99100000D02*
X146100942Y-99300000D01*
X146100942Y-99300000D02*
X146100942Y-99214285D01*
X146100942Y-99214285D02*
X146129514Y-99157143D01*
X146129514Y-99157143D02*
X146158085Y-99128571D01*
X146158085Y-99128571D02*
X146215228Y-99100000D01*
X146215228Y-99100000D02*
X146358085Y-99100000D01*
X146358085Y-99100000D02*
X146415228Y-99128571D01*
X146415228Y-99128571D02*
X146443800Y-99157143D01*
X146443800Y-99157143D02*
X146472371Y-99214285D01*
X146472371Y-99214285D02*
X146472371Y-99385714D01*
X146472371Y-99385714D02*
X146443800Y-99442857D01*
X146443800Y-99442857D02*
X146415228Y-99471428D01*
X147257143Y-108172371D02*
X147257143Y-107572371D01*
X147257143Y-107572371D02*
X147400000Y-107572371D01*
X147400000Y-107572371D02*
X147485714Y-107600942D01*
X147485714Y-107600942D02*
X147542857Y-107658085D01*
X147542857Y-107658085D02*
X147571428Y-107715228D01*
X147571428Y-107715228D02*
X147600000Y-107829514D01*
X147600000Y-107829514D02*
X147600000Y-107915228D01*
X147600000Y-107915228D02*
X147571428Y-108029514D01*
X147571428Y-108029514D02*
X147542857Y-108086657D01*
X147542857Y-108086657D02*
X147485714Y-108143800D01*
X147485714Y-108143800D02*
X147400000Y-108172371D01*
X147400000Y-108172371D02*
X147257143Y-108172371D01*
X148171428Y-108172371D02*
X147828571Y-108172371D01*
X148000000Y-108172371D02*
X148000000Y-107572371D01*
X148000000Y-107572371D02*
X147942857Y-107658085D01*
X147942857Y-107658085D02*
X147885714Y-107715228D01*
X147885714Y-107715228D02*
X147828571Y-107743800D01*
X150100000Y-99872371D02*
X149814286Y-99872371D01*
X149814286Y-99872371D02*
X149814286Y-99272371D01*
X150614285Y-99872371D02*
X150271428Y-99872371D01*
X150442857Y-99872371D02*
X150442857Y-99272371D01*
X150442857Y-99272371D02*
X150385714Y-99358085D01*
X150385714Y-99358085D02*
X150328571Y-99415228D01*
X150328571Y-99415228D02*
X150271428Y-99443800D01*
X161489285Y-124972371D02*
X161289285Y-124686657D01*
X161146428Y-124972371D02*
X161146428Y-124372371D01*
X161146428Y-124372371D02*
X161374999Y-124372371D01*
X161374999Y-124372371D02*
X161432142Y-124400942D01*
X161432142Y-124400942D02*
X161460713Y-124429514D01*
X161460713Y-124429514D02*
X161489285Y-124486657D01*
X161489285Y-124486657D02*
X161489285Y-124572371D01*
X161489285Y-124572371D02*
X161460713Y-124629514D01*
X161460713Y-124629514D02*
X161432142Y-124658085D01*
X161432142Y-124658085D02*
X161374999Y-124686657D01*
X161374999Y-124686657D02*
X161146428Y-124686657D01*
X162060713Y-124972371D02*
X161717856Y-124972371D01*
X161889285Y-124972371D02*
X161889285Y-124372371D01*
X161889285Y-124372371D02*
X161832142Y-124458085D01*
X161832142Y-124458085D02*
X161774999Y-124515228D01*
X161774999Y-124515228D02*
X161717856Y-124543800D01*
X162432142Y-124372371D02*
X162489285Y-124372371D01*
X162489285Y-124372371D02*
X162546428Y-124400942D01*
X162546428Y-124400942D02*
X162575000Y-124429514D01*
X162575000Y-124429514D02*
X162603571Y-124486657D01*
X162603571Y-124486657D02*
X162632142Y-124600942D01*
X162632142Y-124600942D02*
X162632142Y-124743800D01*
X162632142Y-124743800D02*
X162603571Y-124858085D01*
X162603571Y-124858085D02*
X162575000Y-124915228D01*
X162575000Y-124915228D02*
X162546428Y-124943800D01*
X162546428Y-124943800D02*
X162489285Y-124972371D01*
X162489285Y-124972371D02*
X162432142Y-124972371D01*
X162432142Y-124972371D02*
X162375000Y-124943800D01*
X162375000Y-124943800D02*
X162346428Y-124915228D01*
X162346428Y-124915228D02*
X162317857Y-124858085D01*
X162317857Y-124858085D02*
X162289285Y-124743800D01*
X162289285Y-124743800D02*
X162289285Y-124600942D01*
X162289285Y-124600942D02*
X162317857Y-124486657D01*
X162317857Y-124486657D02*
X162346428Y-124429514D01*
X162346428Y-124429514D02*
X162375000Y-124400942D01*
X162375000Y-124400942D02*
X162432142Y-124372371D01*
X145872371Y-122300000D02*
X146300942Y-122300000D01*
X146300942Y-122300000D02*
X146386657Y-122328571D01*
X146386657Y-122328571D02*
X146443800Y-122385714D01*
X146443800Y-122385714D02*
X146472371Y-122471428D01*
X146472371Y-122471428D02*
X146472371Y-122528571D01*
X145872371Y-121728571D02*
X145872371Y-122014285D01*
X145872371Y-122014285D02*
X146158085Y-122042857D01*
X146158085Y-122042857D02*
X146129514Y-122014285D01*
X146129514Y-122014285D02*
X146100942Y-121957143D01*
X146100942Y-121957143D02*
X146100942Y-121814285D01*
X146100942Y-121814285D02*
X146129514Y-121757143D01*
X146129514Y-121757143D02*
X146158085Y-121728571D01*
X146158085Y-121728571D02*
X146215228Y-121700000D01*
X146215228Y-121700000D02*
X146358085Y-121700000D01*
X146358085Y-121700000D02*
X146415228Y-121728571D01*
X146415228Y-121728571D02*
X146443800Y-121757143D01*
X146443800Y-121757143D02*
X146472371Y-121814285D01*
X146472371Y-121814285D02*
X146472371Y-121957143D01*
X146472371Y-121957143D02*
X146443800Y-122014285D01*
X146443800Y-122014285D02*
X146415228Y-122042857D01*
X166900000Y-111472371D02*
X166700000Y-111186657D01*
X166557143Y-111472371D02*
X166557143Y-110872371D01*
X166557143Y-110872371D02*
X166785714Y-110872371D01*
X166785714Y-110872371D02*
X166842857Y-110900942D01*
X166842857Y-110900942D02*
X166871428Y-110929514D01*
X166871428Y-110929514D02*
X166900000Y-110986657D01*
X166900000Y-110986657D02*
X166900000Y-111072371D01*
X166900000Y-111072371D02*
X166871428Y-111129514D01*
X166871428Y-111129514D02*
X166842857Y-111158085D01*
X166842857Y-111158085D02*
X166785714Y-111186657D01*
X166785714Y-111186657D02*
X166557143Y-111186657D01*
X167414286Y-111072371D02*
X167414286Y-111472371D01*
X167271428Y-110843800D02*
X167128571Y-111272371D01*
X167128571Y-111272371D02*
X167500000Y-111272371D01*
X163942857Y-106272371D02*
X163942857Y-106758085D01*
X163942857Y-106758085D02*
X163971428Y-106815228D01*
X163971428Y-106815228D02*
X164000000Y-106843800D01*
X164000000Y-106843800D02*
X164057142Y-106872371D01*
X164057142Y-106872371D02*
X164171428Y-106872371D01*
X164171428Y-106872371D02*
X164228571Y-106843800D01*
X164228571Y-106843800D02*
X164257142Y-106815228D01*
X164257142Y-106815228D02*
X164285714Y-106758085D01*
X164285714Y-106758085D02*
X164285714Y-106272371D01*
X164542856Y-106329514D02*
X164571428Y-106300942D01*
X164571428Y-106300942D02*
X164628571Y-106272371D01*
X164628571Y-106272371D02*
X164771428Y-106272371D01*
X164771428Y-106272371D02*
X164828571Y-106300942D01*
X164828571Y-106300942D02*
X164857142Y-106329514D01*
X164857142Y-106329514D02*
X164885713Y-106386657D01*
X164885713Y-106386657D02*
X164885713Y-106443800D01*
X164885713Y-106443800D02*
X164857142Y-106529514D01*
X164857142Y-106529514D02*
X164514285Y-106872371D01*
X164514285Y-106872371D02*
X164885713Y-106872371D01*
X147600000Y-98272371D02*
X147400000Y-97986657D01*
X147257143Y-98272371D02*
X147257143Y-97672371D01*
X147257143Y-97672371D02*
X147485714Y-97672371D01*
X147485714Y-97672371D02*
X147542857Y-97700942D01*
X147542857Y-97700942D02*
X147571428Y-97729514D01*
X147571428Y-97729514D02*
X147600000Y-97786657D01*
X147600000Y-97786657D02*
X147600000Y-97872371D01*
X147600000Y-97872371D02*
X147571428Y-97929514D01*
X147571428Y-97929514D02*
X147542857Y-97958085D01*
X147542857Y-97958085D02*
X147485714Y-97986657D01*
X147485714Y-97986657D02*
X147257143Y-97986657D01*
X147942857Y-97929514D02*
X147885714Y-97900942D01*
X147885714Y-97900942D02*
X147857143Y-97872371D01*
X147857143Y-97872371D02*
X147828571Y-97815228D01*
X147828571Y-97815228D02*
X147828571Y-97786657D01*
X147828571Y-97786657D02*
X147857143Y-97729514D01*
X147857143Y-97729514D02*
X147885714Y-97700942D01*
X147885714Y-97700942D02*
X147942857Y-97672371D01*
X147942857Y-97672371D02*
X148057143Y-97672371D01*
X148057143Y-97672371D02*
X148114286Y-97700942D01*
X148114286Y-97700942D02*
X148142857Y-97729514D01*
X148142857Y-97729514D02*
X148171428Y-97786657D01*
X148171428Y-97786657D02*
X148171428Y-97815228D01*
X148171428Y-97815228D02*
X148142857Y-97872371D01*
X148142857Y-97872371D02*
X148114286Y-97900942D01*
X148114286Y-97900942D02*
X148057143Y-97929514D01*
X148057143Y-97929514D02*
X147942857Y-97929514D01*
X147942857Y-97929514D02*
X147885714Y-97958085D01*
X147885714Y-97958085D02*
X147857143Y-97986657D01*
X147857143Y-97986657D02*
X147828571Y-98043800D01*
X147828571Y-98043800D02*
X147828571Y-98158085D01*
X147828571Y-98158085D02*
X147857143Y-98215228D01*
X147857143Y-98215228D02*
X147885714Y-98243800D01*
X147885714Y-98243800D02*
X147942857Y-98272371D01*
X147942857Y-98272371D02*
X148057143Y-98272371D01*
X148057143Y-98272371D02*
X148114286Y-98243800D01*
X148114286Y-98243800D02*
X148142857Y-98215228D01*
X148142857Y-98215228D02*
X148171428Y-98158085D01*
X148171428Y-98158085D02*
X148171428Y-98043800D01*
X148171428Y-98043800D02*
X148142857Y-97986657D01*
X148142857Y-97986657D02*
X148114286Y-97958085D01*
X148114286Y-97958085D02*
X148057143Y-97929514D01*
X151914285Y-124442371D02*
X151714285Y-124156657D01*
X151571428Y-124442371D02*
X151571428Y-123842371D01*
X151571428Y-123842371D02*
X151799999Y-123842371D01*
X151799999Y-123842371D02*
X151857142Y-123870942D01*
X151857142Y-123870942D02*
X151885713Y-123899514D01*
X151885713Y-123899514D02*
X151914285Y-123956657D01*
X151914285Y-123956657D02*
X151914285Y-124042371D01*
X151914285Y-124042371D02*
X151885713Y-124099514D01*
X151885713Y-124099514D02*
X151857142Y-124128085D01*
X151857142Y-124128085D02*
X151799999Y-124156657D01*
X151799999Y-124156657D02*
X151571428Y-124156657D01*
X152485713Y-124442371D02*
X152142856Y-124442371D01*
X152314285Y-124442371D02*
X152314285Y-123842371D01*
X152314285Y-123842371D02*
X152257142Y-123928085D01*
X152257142Y-123928085D02*
X152199999Y-123985228D01*
X152199999Y-123985228D02*
X152142856Y-124013800D01*
X153057142Y-124442371D02*
X152714285Y-124442371D01*
X152885714Y-124442371D02*
X152885714Y-123842371D01*
X152885714Y-123842371D02*
X152828571Y-123928085D01*
X152828571Y-123928085D02*
X152771428Y-123985228D01*
X152771428Y-123985228D02*
X152714285Y-124013800D01*
X148842857Y-128329514D02*
X148785714Y-128300942D01*
X148785714Y-128300942D02*
X148728571Y-128243800D01*
X148728571Y-128243800D02*
X148642857Y-128158085D01*
X148642857Y-128158085D02*
X148585714Y-128129514D01*
X148585714Y-128129514D02*
X148528571Y-128129514D01*
X148557142Y-128272371D02*
X148500000Y-128243800D01*
X148500000Y-128243800D02*
X148442857Y-128186657D01*
X148442857Y-128186657D02*
X148414285Y-128072371D01*
X148414285Y-128072371D02*
X148414285Y-127872371D01*
X148414285Y-127872371D02*
X148442857Y-127758085D01*
X148442857Y-127758085D02*
X148500000Y-127700942D01*
X148500000Y-127700942D02*
X148557142Y-127672371D01*
X148557142Y-127672371D02*
X148671428Y-127672371D01*
X148671428Y-127672371D02*
X148728571Y-127700942D01*
X148728571Y-127700942D02*
X148785714Y-127758085D01*
X148785714Y-127758085D02*
X148814285Y-127872371D01*
X148814285Y-127872371D02*
X148814285Y-128072371D01*
X148814285Y-128072371D02*
X148785714Y-128186657D01*
X148785714Y-128186657D02*
X148728571Y-128243800D01*
X148728571Y-128243800D02*
X148671428Y-128272371D01*
X148671428Y-128272371D02*
X148557142Y-128272371D01*
X149328571Y-127872371D02*
X149328571Y-128272371D01*
X149185713Y-127643800D02*
X149042856Y-128072371D01*
X149042856Y-128072371D02*
X149414285Y-128072371D01*
X160115228Y-111299999D02*
X160143800Y-111328571D01*
X160143800Y-111328571D02*
X160172371Y-111414285D01*
X160172371Y-111414285D02*
X160172371Y-111471428D01*
X160172371Y-111471428D02*
X160143800Y-111557142D01*
X160143800Y-111557142D02*
X160086657Y-111614285D01*
X160086657Y-111614285D02*
X160029514Y-111642856D01*
X160029514Y-111642856D02*
X159915228Y-111671428D01*
X159915228Y-111671428D02*
X159829514Y-111671428D01*
X159829514Y-111671428D02*
X159715228Y-111642856D01*
X159715228Y-111642856D02*
X159658085Y-111614285D01*
X159658085Y-111614285D02*
X159600942Y-111557142D01*
X159600942Y-111557142D02*
X159572371Y-111471428D01*
X159572371Y-111471428D02*
X159572371Y-111414285D01*
X159572371Y-111414285D02*
X159600942Y-111328571D01*
X159600942Y-111328571D02*
X159629514Y-111299999D01*
X159829514Y-110957142D02*
X159800942Y-111014285D01*
X159800942Y-111014285D02*
X159772371Y-111042856D01*
X159772371Y-111042856D02*
X159715228Y-111071428D01*
X159715228Y-111071428D02*
X159686657Y-111071428D01*
X159686657Y-111071428D02*
X159629514Y-111042856D01*
X159629514Y-111042856D02*
X159600942Y-111014285D01*
X159600942Y-111014285D02*
X159572371Y-110957142D01*
X159572371Y-110957142D02*
X159572371Y-110842856D01*
X159572371Y-110842856D02*
X159600942Y-110785714D01*
X159600942Y-110785714D02*
X159629514Y-110757142D01*
X159629514Y-110757142D02*
X159686657Y-110728571D01*
X159686657Y-110728571D02*
X159715228Y-110728571D01*
X159715228Y-110728571D02*
X159772371Y-110757142D01*
X159772371Y-110757142D02*
X159800942Y-110785714D01*
X159800942Y-110785714D02*
X159829514Y-110842856D01*
X159829514Y-110842856D02*
X159829514Y-110957142D01*
X159829514Y-110957142D02*
X159858085Y-111014285D01*
X159858085Y-111014285D02*
X159886657Y-111042856D01*
X159886657Y-111042856D02*
X159943800Y-111071428D01*
X159943800Y-111071428D02*
X160058085Y-111071428D01*
X160058085Y-111071428D02*
X160115228Y-111042856D01*
X160115228Y-111042856D02*
X160143800Y-111014285D01*
X160143800Y-111014285D02*
X160172371Y-110957142D01*
X160172371Y-110957142D02*
X160172371Y-110842856D01*
X160172371Y-110842856D02*
X160143800Y-110785714D01*
X160143800Y-110785714D02*
X160115228Y-110757142D01*
X160115228Y-110757142D02*
X160058085Y-110728571D01*
X160058085Y-110728571D02*
X159943800Y-110728571D01*
X159943800Y-110728571D02*
X159886657Y-110757142D01*
X159886657Y-110757142D02*
X159858085Y-110785714D01*
X159858085Y-110785714D02*
X159829514Y-110842856D01*
X161400000Y-103915228D02*
X161371428Y-103943800D01*
X161371428Y-103943800D02*
X161285714Y-103972371D01*
X161285714Y-103972371D02*
X161228571Y-103972371D01*
X161228571Y-103972371D02*
X161142857Y-103943800D01*
X161142857Y-103943800D02*
X161085714Y-103886657D01*
X161085714Y-103886657D02*
X161057143Y-103829514D01*
X161057143Y-103829514D02*
X161028571Y-103715228D01*
X161028571Y-103715228D02*
X161028571Y-103629514D01*
X161028571Y-103629514D02*
X161057143Y-103515228D01*
X161057143Y-103515228D02*
X161085714Y-103458085D01*
X161085714Y-103458085D02*
X161142857Y-103400942D01*
X161142857Y-103400942D02*
X161228571Y-103372371D01*
X161228571Y-103372371D02*
X161285714Y-103372371D01*
X161285714Y-103372371D02*
X161371428Y-103400942D01*
X161371428Y-103400942D02*
X161400000Y-103429514D01*
X161600000Y-103372371D02*
X161971428Y-103372371D01*
X161971428Y-103372371D02*
X161771428Y-103600942D01*
X161771428Y-103600942D02*
X161857143Y-103600942D01*
X161857143Y-103600942D02*
X161914286Y-103629514D01*
X161914286Y-103629514D02*
X161942857Y-103658085D01*
X161942857Y-103658085D02*
X161971428Y-103715228D01*
X161971428Y-103715228D02*
X161971428Y-103858085D01*
X161971428Y-103858085D02*
X161942857Y-103915228D01*
X161942857Y-103915228D02*
X161914286Y-103943800D01*
X161914286Y-103943800D02*
X161857143Y-103972371D01*
X161857143Y-103972371D02*
X161685714Y-103972371D01*
X161685714Y-103972371D02*
X161628571Y-103943800D01*
X161628571Y-103943800D02*
X161600000Y-103915228D01*
X160000000Y-98115228D02*
X159971428Y-98143800D01*
X159971428Y-98143800D02*
X159885714Y-98172371D01*
X159885714Y-98172371D02*
X159828571Y-98172371D01*
X159828571Y-98172371D02*
X159742857Y-98143800D01*
X159742857Y-98143800D02*
X159685714Y-98086657D01*
X159685714Y-98086657D02*
X159657143Y-98029514D01*
X159657143Y-98029514D02*
X159628571Y-97915228D01*
X159628571Y-97915228D02*
X159628571Y-97829514D01*
X159628571Y-97829514D02*
X159657143Y-97715228D01*
X159657143Y-97715228D02*
X159685714Y-97658085D01*
X159685714Y-97658085D02*
X159742857Y-97600942D01*
X159742857Y-97600942D02*
X159828571Y-97572371D01*
X159828571Y-97572371D02*
X159885714Y-97572371D01*
X159885714Y-97572371D02*
X159971428Y-97600942D01*
X159971428Y-97600942D02*
X160000000Y-97629514D01*
X160514286Y-97772371D02*
X160514286Y-98172371D01*
X160371428Y-97543800D02*
X160228571Y-97972371D01*
X160228571Y-97972371D02*
X160600000Y-97972371D01*
X154814285Y-114624157D02*
X154814285Y-114909871D01*
X154614285Y-114309871D02*
X154814285Y-114624157D01*
X154814285Y-114624157D02*
X155014285Y-114309871D01*
X155528571Y-114909871D02*
X155185714Y-114909871D01*
X155357143Y-114909871D02*
X155357143Y-114309871D01*
X155357143Y-114309871D02*
X155300000Y-114395585D01*
X155300000Y-114395585D02*
X155242857Y-114452728D01*
X155242857Y-114452728D02*
X155185714Y-114481300D01*
X164842857Y-101772371D02*
X164842857Y-102258085D01*
X164842857Y-102258085D02*
X164871428Y-102315228D01*
X164871428Y-102315228D02*
X164900000Y-102343800D01*
X164900000Y-102343800D02*
X164957142Y-102372371D01*
X164957142Y-102372371D02*
X165071428Y-102372371D01*
X165071428Y-102372371D02*
X165128571Y-102343800D01*
X165128571Y-102343800D02*
X165157142Y-102315228D01*
X165157142Y-102315228D02*
X165185714Y-102258085D01*
X165185714Y-102258085D02*
X165185714Y-101772371D01*
X165785713Y-102372371D02*
X165442856Y-102372371D01*
X165614285Y-102372371D02*
X165614285Y-101772371D01*
X165614285Y-101772371D02*
X165557142Y-101858085D01*
X165557142Y-101858085D02*
X165499999Y-101915228D01*
X165499999Y-101915228D02*
X165442856Y-101943800D01*
X167799999Y-97972371D02*
X167799999Y-98400942D01*
X167799999Y-98400942D02*
X167771428Y-98486657D01*
X167771428Y-98486657D02*
X167714285Y-98543800D01*
X167714285Y-98543800D02*
X167628571Y-98572371D01*
X167628571Y-98572371D02*
X167571428Y-98572371D01*
X167999999Y-97972371D02*
X168342857Y-97972371D01*
X168171428Y-98572371D02*
X168171428Y-97972371D01*
X168514285Y-98400942D02*
X168800000Y-98400942D01*
X168457142Y-98572371D02*
X168657142Y-97972371D01*
X168657142Y-97972371D02*
X168857142Y-98572371D01*
X169371428Y-98000942D02*
X169314286Y-97972371D01*
X169314286Y-97972371D02*
X169228571Y-97972371D01*
X169228571Y-97972371D02*
X169142857Y-98000942D01*
X169142857Y-98000942D02*
X169085714Y-98058085D01*
X169085714Y-98058085D02*
X169057143Y-98115228D01*
X169057143Y-98115228D02*
X169028571Y-98229514D01*
X169028571Y-98229514D02*
X169028571Y-98315228D01*
X169028571Y-98315228D02*
X169057143Y-98429514D01*
X169057143Y-98429514D02*
X169085714Y-98486657D01*
X169085714Y-98486657D02*
X169142857Y-98543800D01*
X169142857Y-98543800D02*
X169228571Y-98572371D01*
X169228571Y-98572371D02*
X169285714Y-98572371D01*
X169285714Y-98572371D02*
X169371428Y-98543800D01*
X169371428Y-98543800D02*
X169400000Y-98515228D01*
X169400000Y-98515228D02*
X169400000Y-98315228D01*
X169400000Y-98315228D02*
X169285714Y-98315228D01*
X148767857Y-120329514D02*
X148710714Y-120300942D01*
X148710714Y-120300942D02*
X148653571Y-120243800D01*
X148653571Y-120243800D02*
X148567857Y-120158085D01*
X148567857Y-120158085D02*
X148510714Y-120129514D01*
X148510714Y-120129514D02*
X148453571Y-120129514D01*
X148482142Y-120272371D02*
X148425000Y-120243800D01*
X148425000Y-120243800D02*
X148367857Y-120186657D01*
X148367857Y-120186657D02*
X148339285Y-120072371D01*
X148339285Y-120072371D02*
X148339285Y-119872371D01*
X148339285Y-119872371D02*
X148367857Y-119758085D01*
X148367857Y-119758085D02*
X148425000Y-119700942D01*
X148425000Y-119700942D02*
X148482142Y-119672371D01*
X148482142Y-119672371D02*
X148596428Y-119672371D01*
X148596428Y-119672371D02*
X148653571Y-119700942D01*
X148653571Y-119700942D02*
X148710714Y-119758085D01*
X148710714Y-119758085D02*
X148739285Y-119872371D01*
X148739285Y-119872371D02*
X148739285Y-120072371D01*
X148739285Y-120072371D02*
X148710714Y-120186657D01*
X148710714Y-120186657D02*
X148653571Y-120243800D01*
X148653571Y-120243800D02*
X148596428Y-120272371D01*
X148596428Y-120272371D02*
X148482142Y-120272371D01*
X148967856Y-119729514D02*
X148996428Y-119700942D01*
X148996428Y-119700942D02*
X149053571Y-119672371D01*
X149053571Y-119672371D02*
X149196428Y-119672371D01*
X149196428Y-119672371D02*
X149253571Y-119700942D01*
X149253571Y-119700942D02*
X149282142Y-119729514D01*
X149282142Y-119729514D02*
X149310713Y-119786657D01*
X149310713Y-119786657D02*
X149310713Y-119843800D01*
X149310713Y-119843800D02*
X149282142Y-119929514D01*
X149282142Y-119929514D02*
X148939285Y-120272371D01*
X148939285Y-120272371D02*
X149310713Y-120272371D01*
X147600000Y-112297371D02*
X147400000Y-112011657D01*
X147257143Y-112297371D02*
X147257143Y-111697371D01*
X147257143Y-111697371D02*
X147485714Y-111697371D01*
X147485714Y-111697371D02*
X147542857Y-111725942D01*
X147542857Y-111725942D02*
X147571428Y-111754514D01*
X147571428Y-111754514D02*
X147600000Y-111811657D01*
X147600000Y-111811657D02*
X147600000Y-111897371D01*
X147600000Y-111897371D02*
X147571428Y-111954514D01*
X147571428Y-111954514D02*
X147542857Y-111983085D01*
X147542857Y-111983085D02*
X147485714Y-112011657D01*
X147485714Y-112011657D02*
X147257143Y-112011657D01*
X147885714Y-112297371D02*
X148000000Y-112297371D01*
X148000000Y-112297371D02*
X148057143Y-112268800D01*
X148057143Y-112268800D02*
X148085714Y-112240228D01*
X148085714Y-112240228D02*
X148142857Y-112154514D01*
X148142857Y-112154514D02*
X148171428Y-112040228D01*
X148171428Y-112040228D02*
X148171428Y-111811657D01*
X148171428Y-111811657D02*
X148142857Y-111754514D01*
X148142857Y-111754514D02*
X148114286Y-111725942D01*
X148114286Y-111725942D02*
X148057143Y-111697371D01*
X148057143Y-111697371D02*
X147942857Y-111697371D01*
X147942857Y-111697371D02*
X147885714Y-111725942D01*
X147885714Y-111725942D02*
X147857143Y-111754514D01*
X147857143Y-111754514D02*
X147828571Y-111811657D01*
X147828571Y-111811657D02*
X147828571Y-111954514D01*
X147828571Y-111954514D02*
X147857143Y-112011657D01*
X147857143Y-112011657D02*
X147885714Y-112040228D01*
X147885714Y-112040228D02*
X147942857Y-112068800D01*
X147942857Y-112068800D02*
X148057143Y-112068800D01*
X148057143Y-112068800D02*
X148114286Y-112040228D01*
X148114286Y-112040228D02*
X148142857Y-112011657D01*
X148142857Y-112011657D02*
X148171428Y-111954514D01*
X160172371Y-112799999D02*
X159886657Y-112999999D01*
X160172371Y-113142856D02*
X159572371Y-113142856D01*
X159572371Y-113142856D02*
X159572371Y-112914285D01*
X159572371Y-112914285D02*
X159600942Y-112857142D01*
X159600942Y-112857142D02*
X159629514Y-112828571D01*
X159629514Y-112828571D02*
X159686657Y-112799999D01*
X159686657Y-112799999D02*
X159772371Y-112799999D01*
X159772371Y-112799999D02*
X159829514Y-112828571D01*
X159829514Y-112828571D02*
X159858085Y-112857142D01*
X159858085Y-112857142D02*
X159886657Y-112914285D01*
X159886657Y-112914285D02*
X159886657Y-113142856D01*
X159572371Y-112257142D02*
X159572371Y-112542856D01*
X159572371Y-112542856D02*
X159858085Y-112571428D01*
X159858085Y-112571428D02*
X159829514Y-112542856D01*
X159829514Y-112542856D02*
X159800942Y-112485714D01*
X159800942Y-112485714D02*
X159800942Y-112342856D01*
X159800942Y-112342856D02*
X159829514Y-112285714D01*
X159829514Y-112285714D02*
X159858085Y-112257142D01*
X159858085Y-112257142D02*
X159915228Y-112228571D01*
X159915228Y-112228571D02*
X160058085Y-112228571D01*
X160058085Y-112228571D02*
X160115228Y-112257142D01*
X160115228Y-112257142D02*
X160143800Y-112285714D01*
X160143800Y-112285714D02*
X160172371Y-112342856D01*
X160172371Y-112342856D02*
X160172371Y-112485714D01*
X160172371Y-112485714D02*
X160143800Y-112542856D01*
X160143800Y-112542856D02*
X160115228Y-112571428D01*
X161475000Y-123472371D02*
X161275000Y-123186657D01*
X161132143Y-123472371D02*
X161132143Y-122872371D01*
X161132143Y-122872371D02*
X161360714Y-122872371D01*
X161360714Y-122872371D02*
X161417857Y-122900942D01*
X161417857Y-122900942D02*
X161446428Y-122929514D01*
X161446428Y-122929514D02*
X161475000Y-122986657D01*
X161475000Y-122986657D02*
X161475000Y-123072371D01*
X161475000Y-123072371D02*
X161446428Y-123129514D01*
X161446428Y-123129514D02*
X161417857Y-123158085D01*
X161417857Y-123158085D02*
X161360714Y-123186657D01*
X161360714Y-123186657D02*
X161132143Y-123186657D01*
X161675000Y-122872371D02*
X162075000Y-122872371D01*
X162075000Y-122872371D02*
X161817857Y-123472371D01*
X155742857Y-120329514D02*
X155685714Y-120300942D01*
X155685714Y-120300942D02*
X155628571Y-120243800D01*
X155628571Y-120243800D02*
X155542857Y-120158085D01*
X155542857Y-120158085D02*
X155485714Y-120129514D01*
X155485714Y-120129514D02*
X155428571Y-120129514D01*
X155457142Y-120272371D02*
X155400000Y-120243800D01*
X155400000Y-120243800D02*
X155342857Y-120186657D01*
X155342857Y-120186657D02*
X155314285Y-120072371D01*
X155314285Y-120072371D02*
X155314285Y-119872371D01*
X155314285Y-119872371D02*
X155342857Y-119758085D01*
X155342857Y-119758085D02*
X155400000Y-119700942D01*
X155400000Y-119700942D02*
X155457142Y-119672371D01*
X155457142Y-119672371D02*
X155571428Y-119672371D01*
X155571428Y-119672371D02*
X155628571Y-119700942D01*
X155628571Y-119700942D02*
X155685714Y-119758085D01*
X155685714Y-119758085D02*
X155714285Y-119872371D01*
X155714285Y-119872371D02*
X155714285Y-120072371D01*
X155714285Y-120072371D02*
X155685714Y-120186657D01*
X155685714Y-120186657D02*
X155628571Y-120243800D01*
X155628571Y-120243800D02*
X155571428Y-120272371D01*
X155571428Y-120272371D02*
X155457142Y-120272371D01*
X156285713Y-120272371D02*
X155942856Y-120272371D01*
X156114285Y-120272371D02*
X156114285Y-119672371D01*
X156114285Y-119672371D02*
X156057142Y-119758085D01*
X156057142Y-119758085D02*
X155999999Y-119815228D01*
X155999999Y-119815228D02*
X155942856Y-119843800D01*
X161057143Y-121772371D02*
X161057143Y-121172371D01*
X161057143Y-121172371D02*
X161200000Y-121172371D01*
X161200000Y-121172371D02*
X161285714Y-121200942D01*
X161285714Y-121200942D02*
X161342857Y-121258085D01*
X161342857Y-121258085D02*
X161371428Y-121315228D01*
X161371428Y-121315228D02*
X161400000Y-121429514D01*
X161400000Y-121429514D02*
X161400000Y-121515228D01*
X161400000Y-121515228D02*
X161371428Y-121629514D01*
X161371428Y-121629514D02*
X161342857Y-121686657D01*
X161342857Y-121686657D02*
X161285714Y-121743800D01*
X161285714Y-121743800D02*
X161200000Y-121772371D01*
X161200000Y-121772371D02*
X161057143Y-121772371D01*
X161628571Y-121229514D02*
X161657143Y-121200942D01*
X161657143Y-121200942D02*
X161714286Y-121172371D01*
X161714286Y-121172371D02*
X161857143Y-121172371D01*
X161857143Y-121172371D02*
X161914286Y-121200942D01*
X161914286Y-121200942D02*
X161942857Y-121229514D01*
X161942857Y-121229514D02*
X161971428Y-121286657D01*
X161971428Y-121286657D02*
X161971428Y-121343800D01*
X161971428Y-121343800D02*
X161942857Y-121429514D01*
X161942857Y-121429514D02*
X161600000Y-121772371D01*
X161600000Y-121772371D02*
X161971428Y-121772371D01*
X145872371Y-111100000D02*
X146300942Y-111100000D01*
X146300942Y-111100000D02*
X146386657Y-111128571D01*
X146386657Y-111128571D02*
X146443800Y-111185714D01*
X146443800Y-111185714D02*
X146472371Y-111271428D01*
X146472371Y-111271428D02*
X146472371Y-111328571D01*
X146072371Y-110557143D02*
X146472371Y-110557143D01*
X145843800Y-110700000D02*
X146272371Y-110842857D01*
X146272371Y-110842857D02*
X146272371Y-110471428D01*
X155000000Y-117652728D02*
X154971428Y-117681300D01*
X154971428Y-117681300D02*
X154885714Y-117709871D01*
X154885714Y-117709871D02*
X154828571Y-117709871D01*
X154828571Y-117709871D02*
X154742857Y-117681300D01*
X154742857Y-117681300D02*
X154685714Y-117624157D01*
X154685714Y-117624157D02*
X154657143Y-117567014D01*
X154657143Y-117567014D02*
X154628571Y-117452728D01*
X154628571Y-117452728D02*
X154628571Y-117367014D01*
X154628571Y-117367014D02*
X154657143Y-117252728D01*
X154657143Y-117252728D02*
X154685714Y-117195585D01*
X154685714Y-117195585D02*
X154742857Y-117138442D01*
X154742857Y-117138442D02*
X154828571Y-117109871D01*
X154828571Y-117109871D02*
X154885714Y-117109871D01*
X154885714Y-117109871D02*
X154971428Y-117138442D01*
X154971428Y-117138442D02*
X155000000Y-117167014D01*
X155542857Y-117109871D02*
X155257143Y-117109871D01*
X155257143Y-117109871D02*
X155228571Y-117395585D01*
X155228571Y-117395585D02*
X155257143Y-117367014D01*
X155257143Y-117367014D02*
X155314286Y-117338442D01*
X155314286Y-117338442D02*
X155457143Y-117338442D01*
X155457143Y-117338442D02*
X155514286Y-117367014D01*
X155514286Y-117367014D02*
X155542857Y-117395585D01*
X155542857Y-117395585D02*
X155571428Y-117452728D01*
X155571428Y-117452728D02*
X155571428Y-117595585D01*
X155571428Y-117595585D02*
X155542857Y-117652728D01*
X155542857Y-117652728D02*
X155514286Y-117681300D01*
X155514286Y-117681300D02*
X155457143Y-117709871D01*
X155457143Y-117709871D02*
X155314286Y-117709871D01*
X155314286Y-117709871D02*
X155257143Y-117681300D01*
X155257143Y-117681300D02*
X155228571Y-117652728D01*
X165415228Y-111899999D02*
X165443800Y-111928571D01*
X165443800Y-111928571D02*
X165472371Y-112014285D01*
X165472371Y-112014285D02*
X165472371Y-112071428D01*
X165472371Y-112071428D02*
X165443800Y-112157142D01*
X165443800Y-112157142D02*
X165386657Y-112214285D01*
X165386657Y-112214285D02*
X165329514Y-112242856D01*
X165329514Y-112242856D02*
X165215228Y-112271428D01*
X165215228Y-112271428D02*
X165129514Y-112271428D01*
X165129514Y-112271428D02*
X165015228Y-112242856D01*
X165015228Y-112242856D02*
X164958085Y-112214285D01*
X164958085Y-112214285D02*
X164900942Y-112157142D01*
X164900942Y-112157142D02*
X164872371Y-112071428D01*
X164872371Y-112071428D02*
X164872371Y-112014285D01*
X164872371Y-112014285D02*
X164900942Y-111928571D01*
X164900942Y-111928571D02*
X164929514Y-111899999D01*
X164872371Y-111699999D02*
X164872371Y-111299999D01*
X164872371Y-111299999D02*
X165472371Y-111557142D01*
D11*
%TO.C,C6*%
X162161252Y-110035000D02*
X161638748Y-110035000D01*
X162161252Y-108565000D02*
X161638748Y-108565000D01*
%TO.C,C2*%
X148465000Y-104611252D02*
X148465000Y-104088748D01*
X149935000Y-104611252D02*
X149935000Y-104088748D01*
%TO.C,C1*%
X157159420Y-111290000D02*
X157440580Y-111290000D01*
X157159420Y-112310000D02*
X157440580Y-112310000D01*
%TO.C,Q3*%
X155762500Y-124090000D02*
X155112500Y-124090000D01*
X155762500Y-124090000D02*
X156412500Y-124090000D01*
X155762500Y-127210000D02*
X155112500Y-127210000D01*
X155762500Y-127210000D02*
X156412500Y-127210000D01*
X157165000Y-127490000D02*
X156685000Y-127490000D01*
X156925000Y-127160000D01*
X157165000Y-127490000D01*
G36*
X157165000Y-127490000D02*
G01*
X156685000Y-127490000D01*
X156925000Y-127160000D01*
X157165000Y-127490000D01*
G37*
%TO.C,R3*%
X166762742Y-120777500D02*
X167237258Y-120777500D01*
X166762742Y-121822500D02*
X167237258Y-121822500D01*
%TO.C,U3*%
X164037500Y-113540000D02*
X161837500Y-113540000D01*
X164037500Y-113540000D02*
X166237500Y-113540000D01*
X164037500Y-120310000D02*
X161837500Y-120310000D01*
X164037500Y-120310000D02*
X166237500Y-120310000D01*
X160177500Y-114000000D02*
X159847500Y-114240000D01*
X159847500Y-113760000D01*
X160177500Y-114000000D01*
G36*
X160177500Y-114000000D02*
G01*
X159847500Y-114240000D01*
X159847500Y-113760000D01*
X160177500Y-114000000D01*
G37*
%TO.C,R6*%
X152062742Y-121777500D02*
X152537258Y-121777500D01*
X152062742Y-122822500D02*
X152537258Y-122822500D01*
%TO.C,R2*%
X157474758Y-106427500D02*
X157000242Y-106427500D01*
X157474758Y-107472500D02*
X157000242Y-107472500D01*
%TO.C,R1*%
X157000242Y-107927500D02*
X157474758Y-107927500D01*
X157000242Y-108972500D02*
X157474758Y-108972500D01*
D12*
%TO.C,G\u002A\u002A\u002A*%
G36*
X169234957Y-130634313D02*
G01*
X169229123Y-130640147D01*
X169223289Y-130634313D01*
X169229123Y-130628480D01*
X169234957Y-130634313D01*
G37*
G36*
X169231067Y-126233747D02*
G01*
X169232464Y-126247593D01*
X169231067Y-126249303D01*
X169224131Y-126247702D01*
X169223289Y-126241525D01*
X169227558Y-126231922D01*
X169231067Y-126233747D01*
G37*
G36*
X169231067Y-126292084D02*
G01*
X169232464Y-126305931D01*
X169231067Y-126307641D01*
X169224131Y-126306039D01*
X169223289Y-126299862D01*
X169227558Y-126290259D01*
X169231067Y-126292084D01*
G37*
G36*
X168558769Y-129647786D02*
G01*
X168604604Y-129675717D01*
X168638007Y-129717514D01*
X168659483Y-129771356D01*
X168659691Y-129822132D01*
X168645698Y-129862500D01*
X168612163Y-129907850D01*
X168565571Y-129937767D01*
X168511748Y-129950524D01*
X168456523Y-129944393D01*
X168421720Y-129928906D01*
X168378510Y-129890321D01*
X168354523Y-129841302D01*
X168350683Y-129785890D01*
X168367910Y-129728129D01*
X168373477Y-129717514D01*
X168410181Y-129672865D01*
X168456601Y-129646360D01*
X168507782Y-129638001D01*
X168558769Y-129647786D01*
G37*
G36*
X170759705Y-125625198D02*
G01*
X170793322Y-125630703D01*
X170807726Y-125637152D01*
X170813602Y-125652615D01*
X170817816Y-125686496D01*
X170820464Y-125740250D01*
X170821643Y-125815331D01*
X170821727Y-125847166D01*
X170821727Y-126043179D01*
X170849648Y-126043179D01*
X170873999Y-126050063D01*
X170884650Y-126061634D01*
X170887190Y-126079499D01*
X170889326Y-126115961D01*
X170890879Y-126166283D01*
X170891669Y-126225728D01*
X170891732Y-126248313D01*
X170891732Y-126416537D01*
X170716720Y-126416537D01*
X170541709Y-126416537D01*
X170541709Y-126242369D01*
X170541709Y-126068202D01*
X170588379Y-126047611D01*
X170635048Y-126027021D01*
X170635048Y-125825086D01*
X170635048Y-125623151D01*
X170714387Y-125623151D01*
X170759705Y-125625198D01*
G37*
G36*
X171318086Y-125625067D02*
G01*
X171352033Y-125629981D01*
X171365205Y-125635600D01*
X171371567Y-125645642D01*
X171376159Y-125665643D01*
X171379220Y-125698665D01*
X171380992Y-125747772D01*
X171381714Y-125816025D01*
X171381764Y-125846261D01*
X171381764Y-126043179D01*
X171409684Y-126043179D01*
X171434036Y-126050063D01*
X171444687Y-126061634D01*
X171447226Y-126079499D01*
X171449362Y-126115961D01*
X171450915Y-126166283D01*
X171451706Y-126225728D01*
X171451769Y-126248313D01*
X171451769Y-126416537D01*
X171276757Y-126416537D01*
X171101746Y-126416537D01*
X171101746Y-126242369D01*
X171101746Y-126068202D01*
X171148415Y-126047611D01*
X171195085Y-126027021D01*
X171195085Y-125826925D01*
X171195085Y-125626829D01*
X171271865Y-125624343D01*
X171318086Y-125625067D01*
G37*
G36*
X170383891Y-128528876D02*
G01*
X170403699Y-128531857D01*
X170409802Y-128539354D01*
X170407013Y-128553435D01*
X170406649Y-128554594D01*
X170400688Y-128572557D01*
X170388280Y-128609280D01*
X170370551Y-128661454D01*
X170348629Y-128725765D01*
X170323639Y-128798904D01*
X170302430Y-128860864D01*
X170206501Y-129140882D01*
X170133446Y-129144394D01*
X170093203Y-129145401D01*
X170072005Y-129142964D01*
X170065708Y-129136269D01*
X170066762Y-129131304D01*
X170072207Y-129115927D01*
X170084040Y-129081765D01*
X170101124Y-129032122D01*
X170122323Y-128970304D01*
X170146501Y-128899613D01*
X170162208Y-128853608D01*
X170188065Y-128777999D01*
X170212050Y-128708208D01*
X170232931Y-128647794D01*
X170249473Y-128600320D01*
X170260444Y-128569345D01*
X170263736Y-128560427D01*
X170272516Y-128542470D01*
X170285400Y-128532860D01*
X170308981Y-128529013D01*
X170345564Y-128528342D01*
X170383891Y-128528876D01*
G37*
G36*
X170891732Y-130604004D02*
G01*
X170891732Y-130777874D01*
X170856730Y-130790075D01*
X170821727Y-130802277D01*
X170821727Y-130994055D01*
X170821637Y-131064945D01*
X170821032Y-131116152D01*
X170819416Y-131151328D01*
X170816288Y-131174124D01*
X170811151Y-131188192D01*
X170803506Y-131197184D01*
X170792969Y-131204676D01*
X170757263Y-131218488D01*
X170714171Y-131222512D01*
X170674392Y-131216544D01*
X170655466Y-131207277D01*
X170647534Y-131198722D01*
X170641936Y-131184605D01*
X170638280Y-131161232D01*
X170636175Y-131124908D01*
X170635231Y-131071937D01*
X170635048Y-131014369D01*
X170634321Y-130950883D01*
X170632320Y-130894513D01*
X170629312Y-130849934D01*
X170625566Y-130821817D01*
X170623627Y-130815619D01*
X170604830Y-130796667D01*
X170576958Y-130781991D01*
X170541709Y-130769703D01*
X170541709Y-130599918D01*
X170541709Y-130430133D01*
X170716720Y-130430133D01*
X170891732Y-130430133D01*
X170891732Y-130604004D01*
G37*
G36*
X172062313Y-127399204D02*
G01*
X172227502Y-127402435D01*
X172248087Y-127446188D01*
X172268673Y-127489940D01*
X172466398Y-127489940D01*
X172664124Y-127489940D01*
X172671800Y-127530854D01*
X172674879Y-127569231D01*
X172672961Y-127613548D01*
X172671614Y-127624194D01*
X172663752Y-127676619D01*
X172465870Y-127676619D01*
X172267989Y-127676619D01*
X172253797Y-127708705D01*
X172241990Y-127731973D01*
X172227860Y-127748393D01*
X172207396Y-127759161D01*
X172176588Y-127765475D01*
X172131423Y-127768530D01*
X172067892Y-127769524D01*
X172049725Y-127769588D01*
X171987195Y-127769602D01*
X171944265Y-127768878D01*
X171917198Y-127766796D01*
X171902260Y-127762737D01*
X171895715Y-127756082D01*
X171893827Y-127746210D01*
X171893675Y-127743707D01*
X171891255Y-127689119D01*
X171889538Y-127628389D01*
X171888565Y-127567024D01*
X171888378Y-127510531D01*
X171889019Y-127464414D01*
X171890530Y-127434181D01*
X171891272Y-127428372D01*
X171897123Y-127395972D01*
X172062313Y-127399204D01*
G37*
G36*
X170118586Y-130424222D02*
G01*
X170194471Y-130425726D01*
X170252940Y-130427484D01*
X170331695Y-130430133D01*
X170331695Y-130604004D01*
X170331695Y-130777874D01*
X170296693Y-130790075D01*
X170261691Y-130802277D01*
X170261691Y-130994055D01*
X170261600Y-131064945D01*
X170260996Y-131116152D01*
X170259379Y-131151328D01*
X170256251Y-131174124D01*
X170251114Y-131188192D01*
X170243469Y-131197184D01*
X170232932Y-131204676D01*
X170197422Y-131218430D01*
X170154501Y-131222533D01*
X170114851Y-131216765D01*
X170095728Y-131207495D01*
X170088088Y-131198947D01*
X170082469Y-131184312D01*
X170078475Y-131160090D01*
X170075711Y-131122784D01*
X170073783Y-131068896D01*
X170072393Y-131000778D01*
X170069178Y-130809342D01*
X170025457Y-130785999D01*
X169981735Y-130762655D01*
X169981704Y-130597643D01*
X169982305Y-130526925D01*
X169984280Y-130477069D01*
X169987838Y-130445630D01*
X169993188Y-130430162D01*
X169996256Y-130427755D01*
X170017018Y-130425239D01*
X170058615Y-130424060D01*
X170118586Y-130424222D01*
G37*
G36*
X172062319Y-129076743D02*
G01*
X172227653Y-129076774D01*
X172250996Y-129120496D01*
X172274340Y-129164217D01*
X172466341Y-129167434D01*
X172546577Y-129169428D01*
X172605148Y-129172435D01*
X172643707Y-129176598D01*
X172663906Y-129182061D01*
X172667417Y-129184936D01*
X172673938Y-129208369D01*
X172676379Y-129245126D01*
X172674911Y-129285584D01*
X172669703Y-129320123D01*
X172664771Y-129334162D01*
X172658798Y-129342456D01*
X172648814Y-129348433D01*
X172631343Y-129352468D01*
X172602909Y-129354937D01*
X172560034Y-129356217D01*
X172499244Y-129356683D01*
X172456216Y-129356730D01*
X172259738Y-129356730D01*
X172252738Y-129391732D01*
X172245737Y-129426734D01*
X172070434Y-129426734D01*
X171895131Y-129426734D01*
X171894046Y-129394649D01*
X171893139Y-129368914D01*
X171891624Y-129327074D01*
X171889764Y-129276340D01*
X171888854Y-129251723D01*
X171887672Y-129199328D01*
X171887969Y-129152463D01*
X171889643Y-129118335D01*
X171890866Y-129108797D01*
X171896985Y-129076711D01*
X172062319Y-129076743D01*
G37*
G36*
X167881534Y-127583280D02*
G01*
X167881534Y-127769959D01*
X167726941Y-127769492D01*
X167654564Y-127768414D01*
X167601973Y-127765464D01*
X167565670Y-127760304D01*
X167542156Y-127752601D01*
X167540262Y-127751618D01*
X167513830Y-127727768D01*
X167508177Y-127705415D01*
X167508177Y-127676619D01*
X167305245Y-127676619D01*
X167229082Y-127676683D01*
X167173140Y-127675877D01*
X167134311Y-127672701D01*
X167109489Y-127665658D01*
X167095568Y-127653249D01*
X167089441Y-127633977D01*
X167088002Y-127606341D01*
X167088149Y-127571907D01*
X167089960Y-127529997D01*
X167096170Y-127506460D01*
X167106604Y-127497022D01*
X167124082Y-127494636D01*
X167160528Y-127492593D01*
X167211577Y-127491039D01*
X167272863Y-127490124D01*
X167316618Y-127489940D01*
X167508177Y-127489940D01*
X167508177Y-127459938D01*
X167510027Y-127436999D01*
X167517687Y-127420337D01*
X167534324Y-127408966D01*
X167563104Y-127401901D01*
X167607193Y-127398155D01*
X167669757Y-127396741D01*
X167711523Y-127396601D01*
X167881534Y-127396601D01*
X167881534Y-127583280D01*
G37*
G36*
X167881534Y-129251723D02*
G01*
X167881534Y-129426734D01*
X167709440Y-129425813D01*
X167647590Y-129425104D01*
X167593548Y-129423776D01*
X167551856Y-129421994D01*
X167527051Y-129419923D01*
X167522761Y-129419007D01*
X167511483Y-129404089D01*
X167508177Y-129384926D01*
X167508177Y-129356730D01*
X167305245Y-129356730D01*
X167229082Y-129356794D01*
X167173140Y-129355987D01*
X167134311Y-129352811D01*
X167109489Y-129345768D01*
X167095568Y-129333360D01*
X167089441Y-129314087D01*
X167088002Y-129286452D01*
X167088149Y-129252017D01*
X167089960Y-129210107D01*
X167096170Y-129186570D01*
X167106604Y-129177133D01*
X167124082Y-129174746D01*
X167160528Y-129172703D01*
X167211577Y-129171150D01*
X167272863Y-129170234D01*
X167316618Y-129170051D01*
X167508177Y-129170051D01*
X167508177Y-129140049D01*
X167510027Y-129117109D01*
X167517687Y-129100447D01*
X167534324Y-129089077D01*
X167563104Y-129082011D01*
X167607193Y-129078265D01*
X167669757Y-129076852D01*
X167711523Y-129076711D01*
X167881534Y-129076711D01*
X167881534Y-129251723D01*
G37*
G36*
X168505797Y-130425200D02*
G01*
X168566707Y-130428026D01*
X168569913Y-130428268D01*
X168669086Y-130435967D01*
X168672655Y-130564309D01*
X168672952Y-130645180D01*
X168668313Y-130705513D01*
X168658118Y-130747699D01*
X168641743Y-130774132D01*
X168618567Y-130787207D01*
X168614480Y-130788161D01*
X168581580Y-130794741D01*
X168581580Y-130990287D01*
X168581494Y-131061965D01*
X168580914Y-131113918D01*
X168579355Y-131149755D01*
X168576333Y-131173086D01*
X168571365Y-131187519D01*
X168563965Y-131196665D01*
X168553650Y-131204133D01*
X168552822Y-131204676D01*
X168517312Y-131218430D01*
X168474391Y-131222533D01*
X168434741Y-131216765D01*
X168415617Y-131207495D01*
X168407978Y-131198947D01*
X168402359Y-131184312D01*
X168398365Y-131160090D01*
X168395601Y-131122784D01*
X168393673Y-131068896D01*
X168392282Y-131000778D01*
X168389068Y-130809342D01*
X168345346Y-130785999D01*
X168301625Y-130762655D01*
X168301593Y-130598004D01*
X168301562Y-130433352D01*
X168386151Y-130426961D01*
X168441119Y-130424813D01*
X168505797Y-130425200D01*
G37*
G36*
X169663258Y-130425058D02*
G01*
X169711756Y-130427710D01*
X169748651Y-130431718D01*
X169768719Y-130436872D01*
X169770461Y-130438270D01*
X169772761Y-130452754D01*
X169774240Y-130486073D01*
X169774805Y-130533742D01*
X169774367Y-130591271D01*
X169773988Y-130611559D01*
X169770484Y-130775484D01*
X169736069Y-130788474D01*
X169701654Y-130801464D01*
X169701654Y-130992397D01*
X169701460Y-131063730D01*
X169700606Y-131115420D01*
X169698680Y-131151161D01*
X169695272Y-131174643D01*
X169689972Y-131189558D01*
X169682369Y-131199598D01*
X169678186Y-131203425D01*
X169647863Y-131217421D01*
X169606600Y-131222857D01*
X169565287Y-131219423D01*
X169535691Y-131207495D01*
X169528052Y-131198947D01*
X169522432Y-131184312D01*
X169518438Y-131160090D01*
X169515675Y-131122784D01*
X169513746Y-131068896D01*
X169512356Y-131000778D01*
X169509141Y-130809342D01*
X169465420Y-130785999D01*
X169421698Y-130762655D01*
X169421667Y-130598070D01*
X169421635Y-130433484D01*
X169500391Y-130427354D01*
X169552351Y-130424669D01*
X169608382Y-130423975D01*
X169663258Y-130425058D01*
G37*
G36*
X170591550Y-128529858D02*
G01*
X170616298Y-128533791D01*
X170623381Y-128538114D01*
X170619828Y-128550972D01*
X170610062Y-128581913D01*
X170595421Y-128626941D01*
X170577242Y-128682059D01*
X170556863Y-128743270D01*
X170535624Y-128806579D01*
X170514861Y-128867989D01*
X170495913Y-128923503D01*
X170480117Y-128969126D01*
X170468812Y-129000861D01*
X170465516Y-129009624D01*
X170463939Y-129018070D01*
X170469341Y-129023811D01*
X170485238Y-129027360D01*
X170515145Y-129029236D01*
X170562576Y-129029953D01*
X170604632Y-129030042D01*
X170667380Y-129030146D01*
X170710024Y-129031622D01*
X170735793Y-129036217D01*
X170747914Y-129045676D01*
X170749615Y-129061746D01*
X170744124Y-129086173D01*
X170739442Y-129102963D01*
X170727291Y-129146716D01*
X170504798Y-129146716D01*
X170282305Y-129146716D01*
X170288193Y-129120464D01*
X170293469Y-129102538D01*
X170305232Y-129065830D01*
X170322394Y-129013631D01*
X170343867Y-128949231D01*
X170368561Y-128875919D01*
X170390514Y-128811277D01*
X170486946Y-128528342D01*
X170555164Y-128528342D01*
X170591550Y-128529858D01*
G37*
G36*
X172227653Y-129636811D02*
G01*
X172250997Y-129680532D01*
X172274341Y-129724254D01*
X172468473Y-129727447D01*
X172539865Y-129728733D01*
X172591347Y-129730208D01*
X172626341Y-129732368D01*
X172648269Y-129735710D01*
X172660553Y-129740731D01*
X172666616Y-129747926D01*
X172669567Y-129756615D01*
X172676340Y-129807889D01*
X172671937Y-129859392D01*
X172663309Y-129887049D01*
X172649769Y-129916766D01*
X172455853Y-129916766D01*
X172261937Y-129916766D01*
X172248725Y-129951769D01*
X172235514Y-129986771D01*
X172065322Y-129986771D01*
X171994750Y-129986242D01*
X171944953Y-129984512D01*
X171913391Y-129981363D01*
X171897524Y-129976579D01*
X171894399Y-129972187D01*
X171892125Y-129916554D01*
X171890489Y-129855933D01*
X171889533Y-129795571D01*
X171889299Y-129740718D01*
X171889829Y-129696619D01*
X171891165Y-129668524D01*
X171891922Y-129663000D01*
X171895026Y-129652664D01*
X171901522Y-129645475D01*
X171915119Y-129640862D01*
X171939524Y-129638255D01*
X171978448Y-129637086D01*
X172035599Y-129636785D01*
X172062657Y-129636780D01*
X172227653Y-129636811D01*
G37*
G36*
X168974421Y-130425434D02*
G01*
X169033564Y-130426351D01*
X169112742Y-130427923D01*
X169118282Y-130428040D01*
X169217455Y-130430137D01*
X169216306Y-130590562D01*
X169215852Y-130660215D01*
X169215177Y-130710101D01*
X169213570Y-130743783D01*
X169210324Y-130764824D01*
X169204730Y-130776787D01*
X169196078Y-130783234D01*
X169183661Y-130787728D01*
X169176619Y-130790075D01*
X169141617Y-130802277D01*
X169141526Y-130998314D01*
X169141435Y-131194350D01*
X169110031Y-131208934D01*
X169069608Y-131220377D01*
X169025486Y-131222106D01*
X168987863Y-131214231D01*
X168975654Y-131207495D01*
X168968015Y-131198947D01*
X168962396Y-131184312D01*
X168958402Y-131160090D01*
X168955638Y-131122784D01*
X168953710Y-131068896D01*
X168952319Y-131000778D01*
X168949104Y-130809342D01*
X168905383Y-130785999D01*
X168861662Y-130762655D01*
X168861630Y-130597643D01*
X168862221Y-130527151D01*
X168864165Y-130477501D01*
X168867676Y-130446226D01*
X168872964Y-130430859D01*
X168876183Y-130428413D01*
X168886195Y-130426662D01*
X168903838Y-130425584D01*
X168932213Y-130425177D01*
X168974421Y-130425434D01*
G37*
G36*
X167881534Y-128143317D02*
G01*
X167881534Y-128329996D01*
X167742214Y-128329996D01*
X167678327Y-128328954D01*
X167630794Y-128325977D01*
X167602251Y-128321288D01*
X167595191Y-128317533D01*
X167579300Y-128310033D01*
X167570322Y-128311657D01*
X167542533Y-128311628D01*
X167519032Y-128294898D01*
X167508239Y-128267731D01*
X167508177Y-128265414D01*
X167508177Y-128236656D01*
X167304219Y-128236656D01*
X167227333Y-128236717D01*
X167170775Y-128235805D01*
X167131548Y-128232275D01*
X167106654Y-128224484D01*
X167093096Y-128210787D01*
X167087876Y-128189539D01*
X167087998Y-128159098D01*
X167090377Y-128119358D01*
X167093983Y-128055811D01*
X167301080Y-128052625D01*
X167375087Y-128051406D01*
X167428965Y-128050070D01*
X167465916Y-128048166D01*
X167489142Y-128045244D01*
X167501846Y-128040854D01*
X167507232Y-128034545D01*
X167508501Y-128025867D01*
X167508548Y-128023456D01*
X167510595Y-127999170D01*
X167518080Y-127981571D01*
X167534216Y-127969595D01*
X167562216Y-127962182D01*
X167605293Y-127958269D01*
X167666660Y-127956794D01*
X167710726Y-127956638D01*
X167881534Y-127956638D01*
X167881534Y-128143317D01*
G37*
G36*
X172062248Y-128519277D02*
G01*
X172227372Y-128522508D01*
X172243898Y-128557511D01*
X172259045Y-128584332D01*
X172272831Y-128600823D01*
X172273207Y-128601085D01*
X172288719Y-128603998D01*
X172323317Y-128606510D01*
X172372755Y-128608434D01*
X172432786Y-128609588D01*
X172474338Y-128609835D01*
X172545944Y-128610193D01*
X172597540Y-128611319D01*
X172632446Y-128613530D01*
X172653983Y-128617143D01*
X172665471Y-128622475D01*
X172669767Y-128628469D01*
X172675795Y-128661296D01*
X172676054Y-128704788D01*
X172670911Y-128747097D01*
X172665470Y-128766765D01*
X172654092Y-128796693D01*
X172456384Y-128796693D01*
X172258676Y-128796693D01*
X172251117Y-128831105D01*
X172243559Y-128865516D01*
X172074040Y-128869024D01*
X172010433Y-128869608D01*
X171957616Y-128868666D01*
X171919393Y-128866357D01*
X171899567Y-128862840D01*
X171897792Y-128861604D01*
X171894452Y-128845151D01*
X171891563Y-128810966D01*
X171889254Y-128764650D01*
X171887652Y-128711803D01*
X171886887Y-128658027D01*
X171887086Y-128608923D01*
X171888380Y-128570090D01*
X171890606Y-128548446D01*
X171897123Y-128516046D01*
X172062248Y-128519277D01*
G37*
G36*
X168518636Y-125625080D02*
G01*
X168551254Y-125630187D01*
X168567579Y-125637152D01*
X168573455Y-125652615D01*
X168577669Y-125686496D01*
X168580317Y-125740250D01*
X168581496Y-125815331D01*
X168581580Y-125847166D01*
X168581580Y-126043179D01*
X168609784Y-126043179D01*
X168635475Y-126052520D01*
X168654314Y-126081115D01*
X168666532Y-126129821D01*
X168672359Y-126199496D01*
X168672441Y-126276528D01*
X168669086Y-126410703D01*
X168485324Y-126413916D01*
X168301562Y-126417129D01*
X168301562Y-126253489D01*
X168301877Y-126187424D01*
X168303147Y-126140603D01*
X168305861Y-126108942D01*
X168310505Y-126088353D01*
X168317568Y-126074752D01*
X168323745Y-126067666D01*
X168350253Y-126047442D01*
X168370415Y-126037711D01*
X168379381Y-126033857D01*
X168385841Y-126026594D01*
X168390205Y-126012506D01*
X168392884Y-125988178D01*
X168394286Y-125950196D01*
X168394822Y-125895146D01*
X168394901Y-125833627D01*
X168395172Y-125760381D01*
X168396180Y-125707210D01*
X168398221Y-125670860D01*
X168401590Y-125648075D01*
X168406583Y-125635600D01*
X168413357Y-125630233D01*
X168441122Y-125624719D01*
X168479070Y-125623129D01*
X168518636Y-125625080D01*
G37*
G36*
X170198746Y-125625080D02*
G01*
X170231365Y-125630187D01*
X170247690Y-125637152D01*
X170253566Y-125652615D01*
X170257779Y-125686496D01*
X170260427Y-125740250D01*
X170261607Y-125815331D01*
X170261691Y-125847166D01*
X170261691Y-126043179D01*
X170289718Y-126043179D01*
X170308196Y-126047289D01*
X170321490Y-126061415D01*
X170330148Y-126088255D01*
X170334715Y-126130503D01*
X170335740Y-126190857D01*
X170334117Y-126261943D01*
X170328936Y-126416537D01*
X170155304Y-126416537D01*
X169981672Y-126416537D01*
X169981672Y-126249167D01*
X169982131Y-126178080D01*
X169984291Y-126126617D01*
X169989330Y-126091077D01*
X169998423Y-126067754D01*
X170012746Y-126052947D01*
X170033476Y-126042950D01*
X170048760Y-126037939D01*
X170058362Y-126034289D01*
X170065280Y-126027817D01*
X170069956Y-126015104D01*
X170072827Y-125992729D01*
X170074334Y-125957272D01*
X170074915Y-125905313D01*
X170075012Y-125833627D01*
X170075282Y-125760381D01*
X170076290Y-125707210D01*
X170078331Y-125670860D01*
X170081700Y-125648075D01*
X170086694Y-125635600D01*
X170093467Y-125630233D01*
X170121232Y-125624719D01*
X170159180Y-125623129D01*
X170198746Y-125625080D01*
G37*
G36*
X172248279Y-128003307D02*
G01*
X172266612Y-128049977D01*
X172465368Y-128049977D01*
X172664124Y-128049977D01*
X172671954Y-128091715D01*
X172674555Y-128131378D01*
X172670849Y-128175118D01*
X172669525Y-128182137D01*
X172659265Y-128230822D01*
X172462755Y-128234026D01*
X172266245Y-128237231D01*
X172253142Y-128271946D01*
X172237060Y-128297880D01*
X172219261Y-128306661D01*
X172201737Y-128312079D01*
X172198484Y-128318328D01*
X172187726Y-128323513D01*
X172158988Y-128327223D01*
X172117580Y-128329489D01*
X172068809Y-128330337D01*
X172017982Y-128329798D01*
X171970408Y-128327899D01*
X171931394Y-128324669D01*
X171906248Y-128320136D01*
X171899973Y-128316723D01*
X171896494Y-128300093D01*
X171893404Y-128265566D01*
X171890841Y-128218576D01*
X171888942Y-128164558D01*
X171887845Y-128108947D01*
X171887690Y-128057180D01*
X171888612Y-128014692D01*
X171890752Y-127986917D01*
X171891497Y-127982889D01*
X171894765Y-127972583D01*
X171901378Y-127965403D01*
X171915039Y-127960784D01*
X171939453Y-127958162D01*
X171978325Y-127956972D01*
X172035359Y-127956650D01*
X172063804Y-127956638D01*
X172229947Y-127956638D01*
X172248279Y-128003307D01*
G37*
G36*
X167708494Y-129636748D02*
G01*
X167881534Y-129636748D01*
X167881534Y-129811759D01*
X167881534Y-129986771D01*
X167709440Y-129985850D01*
X167647590Y-129985141D01*
X167593548Y-129983813D01*
X167551856Y-129982031D01*
X167527051Y-129979960D01*
X167522761Y-129979044D01*
X167511483Y-129964125D01*
X167508177Y-129944963D01*
X167508177Y-129916766D01*
X167305245Y-129916766D01*
X167229082Y-129916830D01*
X167173140Y-129916024D01*
X167134311Y-129912848D01*
X167109489Y-129905805D01*
X167095568Y-129893396D01*
X167089441Y-129874124D01*
X167088002Y-129846488D01*
X167088149Y-129812054D01*
X167090367Y-129768224D01*
X167097490Y-129744215D01*
X167104875Y-129737833D01*
X167121785Y-129735523D01*
X167157670Y-129733296D01*
X167208168Y-129731336D01*
X167268920Y-129729826D01*
X167310018Y-129729195D01*
X167381461Y-129728073D01*
X167432883Y-129726411D01*
X167467598Y-129723850D01*
X167488918Y-129720031D01*
X167500158Y-129714594D01*
X167504364Y-129708113D01*
X167513009Y-129681179D01*
X167521821Y-129662042D01*
X167534604Y-129649371D01*
X167555164Y-129641837D01*
X167587306Y-129638108D01*
X167634835Y-129636855D01*
X167701556Y-129636747D01*
X167708494Y-129636748D01*
G37*
G36*
X169191405Y-127573127D02*
G01*
X169216180Y-127577056D01*
X169223289Y-127581385D01*
X169219736Y-127594243D01*
X169209970Y-127625184D01*
X169195329Y-127670212D01*
X169177150Y-127725329D01*
X169156772Y-127786541D01*
X169135532Y-127849850D01*
X169114769Y-127911259D01*
X169095821Y-127966774D01*
X169080025Y-128012397D01*
X169068720Y-128044132D01*
X169065424Y-128052894D01*
X169063847Y-128061341D01*
X169069249Y-128067081D01*
X169085146Y-128070631D01*
X169115053Y-128072506D01*
X169162484Y-128073223D01*
X169204540Y-128073312D01*
X169267288Y-128073416D01*
X169309932Y-128074893D01*
X169335701Y-128079488D01*
X169347822Y-128088947D01*
X169349523Y-128105017D01*
X169344033Y-128129444D01*
X169339350Y-128146234D01*
X169327199Y-128189986D01*
X169106066Y-128189986D01*
X169037115Y-128189548D01*
X168976926Y-128188329D01*
X168929090Y-128186470D01*
X168897198Y-128184113D01*
X168884841Y-128181401D01*
X168884799Y-128181236D01*
X168888343Y-128168285D01*
X168898408Y-128136180D01*
X168914030Y-128087871D01*
X168934249Y-128026305D01*
X168958101Y-127954433D01*
X168984624Y-127875202D01*
X168985684Y-127872049D01*
X169086703Y-127571612D01*
X169154996Y-127571612D01*
X169191405Y-127573127D01*
G37*
G36*
X167881534Y-127023243D02*
G01*
X167881534Y-127209922D01*
X167726941Y-127209455D01*
X167654564Y-127208378D01*
X167601973Y-127205427D01*
X167565670Y-127200267D01*
X167542156Y-127192564D01*
X167540262Y-127191581D01*
X167513830Y-127167731D01*
X167508177Y-127145379D01*
X167508177Y-127116583D01*
X167312164Y-127116583D01*
X167229214Y-127115898D01*
X167168106Y-127113779D01*
X167127384Y-127110128D01*
X167105592Y-127104850D01*
X167102150Y-127102582D01*
X167094534Y-127083512D01*
X167089729Y-127049798D01*
X167088120Y-127010006D01*
X167090090Y-126972701D01*
X167095231Y-126948359D01*
X167100657Y-126941584D01*
X167113087Y-126936664D01*
X167135722Y-126933317D01*
X167171765Y-126931263D01*
X167224419Y-126930220D01*
X167296884Y-126929906D01*
X167305245Y-126929904D01*
X167378397Y-126929831D01*
X167431450Y-126929335D01*
X167467641Y-126927998D01*
X167490207Y-126925402D01*
X167502382Y-126921128D01*
X167507405Y-126914760D01*
X167508510Y-126905878D01*
X167508548Y-126903652D01*
X167510581Y-126879271D01*
X167518030Y-126861602D01*
X167534108Y-126849579D01*
X167562028Y-126842136D01*
X167605006Y-126838206D01*
X167666253Y-126836723D01*
X167710726Y-126836564D01*
X167881534Y-126836564D01*
X167881534Y-127023243D01*
G37*
G36*
X169641182Y-125625669D02*
G01*
X169674198Y-125630614D01*
X169685171Y-125635664D01*
X169691512Y-125645764D01*
X169696088Y-125665969D01*
X169699138Y-125699325D01*
X169700899Y-125748872D01*
X169701609Y-125817655D01*
X169701654Y-125846261D01*
X169701654Y-126043179D01*
X169730036Y-126043179D01*
X169743185Y-126043891D01*
X169753563Y-126047644D01*
X169761453Y-126056864D01*
X169767139Y-126073979D01*
X169770903Y-126101415D01*
X169773028Y-126141598D01*
X169773797Y-126196955D01*
X169773492Y-126269912D01*
X169772398Y-126362895D01*
X169771861Y-126401952D01*
X169765751Y-126407910D01*
X169745922Y-126412135D01*
X169709843Y-126414837D01*
X169654982Y-126416227D01*
X169596647Y-126416537D01*
X169421635Y-126416537D01*
X169421635Y-126249167D01*
X169422096Y-126178072D01*
X169424259Y-126126604D01*
X169429296Y-126091062D01*
X169438377Y-126067743D01*
X169452675Y-126052947D01*
X169473361Y-126042971D01*
X169488451Y-126038025D01*
X169497882Y-126034331D01*
X169504770Y-126027612D01*
X169509588Y-126014490D01*
X169512807Y-125991584D01*
X169514901Y-125955516D01*
X169516343Y-125902907D01*
X169517606Y-125830378D01*
X169517619Y-125829548D01*
X169520809Y-125628985D01*
X169594749Y-125625485D01*
X169641182Y-125625669D01*
G37*
G36*
X170973389Y-127571639D02*
G01*
X171031995Y-127572365D01*
X171072521Y-127574760D01*
X171097595Y-127579792D01*
X171109843Y-127588432D01*
X171111891Y-127601648D01*
X171106367Y-127620409D01*
X171095898Y-127645686D01*
X171095755Y-127646026D01*
X171078098Y-127688287D01*
X171003979Y-127688287D01*
X170929861Y-127688287D01*
X170905875Y-127755375D01*
X170893773Y-127789886D01*
X170876188Y-127840892D01*
X170855051Y-127902760D01*
X170832287Y-127969858D01*
X170820017Y-128006224D01*
X170758144Y-128189986D01*
X170690763Y-128189986D01*
X170654631Y-128188302D01*
X170630175Y-128183939D01*
X170623381Y-128179258D01*
X170626942Y-128166075D01*
X170636729Y-128134840D01*
X170651396Y-128089570D01*
X170669596Y-128034286D01*
X170689984Y-127973006D01*
X170711213Y-127909749D01*
X170731939Y-127848536D01*
X170750815Y-127793384D01*
X170766495Y-127748314D01*
X170777633Y-127717344D01*
X170780955Y-127708705D01*
X170782990Y-127697443D01*
X170774475Y-127691273D01*
X170750852Y-127688720D01*
X170717969Y-127688287D01*
X170675067Y-127686682D01*
X170652280Y-127679007D01*
X170646457Y-127660972D01*
X170654446Y-127628286D01*
X170660727Y-127610360D01*
X170674738Y-127571612D01*
X170894076Y-127571612D01*
X170973389Y-127571639D01*
G37*
G36*
X167878921Y-128694456D02*
G01*
X167877329Y-128763838D01*
X167875221Y-128813081D01*
X167872228Y-128845381D01*
X167867978Y-128863933D01*
X167862100Y-128871934D01*
X167858200Y-128872988D01*
X167840620Y-128872819D01*
X167804511Y-128871834D01*
X167754660Y-128870185D01*
X167695851Y-128868021D01*
X167677354Y-128867301D01*
X167514010Y-128860864D01*
X167510318Y-128828778D01*
X167506627Y-128796693D01*
X167304470Y-128796693D01*
X167228463Y-128796756D01*
X167172671Y-128795940D01*
X167133981Y-128792739D01*
X167109281Y-128785647D01*
X167095460Y-128773156D01*
X167089405Y-128753762D01*
X167088003Y-128725956D01*
X167088149Y-128691980D01*
X167089960Y-128650071D01*
X167096170Y-128626533D01*
X167106604Y-128617096D01*
X167124082Y-128614709D01*
X167160528Y-128612666D01*
X167211577Y-128611113D01*
X167272863Y-128610197D01*
X167316618Y-128610014D01*
X167387391Y-128609931D01*
X167438160Y-128609380D01*
X167472257Y-128607903D01*
X167493013Y-128605047D01*
X167503760Y-128600354D01*
X167507828Y-128593370D01*
X167508548Y-128583762D01*
X167510576Y-128559397D01*
X167518009Y-128541736D01*
X167534058Y-128529713D01*
X167561936Y-128522265D01*
X167604853Y-128518328D01*
X167666021Y-128516837D01*
X167711030Y-128516674D01*
X167882142Y-128516674D01*
X167878921Y-128694456D01*
G37*
G36*
X168943492Y-128577417D02*
G01*
X168942920Y-128603768D01*
X168941194Y-128649206D01*
X168938506Y-128709523D01*
X168935047Y-128780510D01*
X168931008Y-128857959D01*
X168929422Y-128887115D01*
X168915129Y-129146716D01*
X168840855Y-129146716D01*
X168766580Y-129146716D01*
X168774598Y-129082545D01*
X168782615Y-129018374D01*
X168696230Y-129018374D01*
X168609846Y-129018374D01*
X168570954Y-129082545D01*
X168532062Y-129146716D01*
X168457238Y-129146716D01*
X168417234Y-129146148D01*
X168396304Y-129143516D01*
X168390196Y-129137432D01*
X168394660Y-129126504D01*
X168394784Y-129126298D01*
X168404089Y-129111512D01*
X168424299Y-129079767D01*
X168453705Y-129033735D01*
X168490598Y-128976091D01*
X168533269Y-128909504D01*
X168538276Y-128901700D01*
X168685236Y-128901700D01*
X168731742Y-128901700D01*
X168778248Y-128901700D01*
X168785534Y-128834612D01*
X168790504Y-128791986D01*
X168795427Y-128754700D01*
X168797956Y-128738356D01*
X168803092Y-128709187D01*
X168782759Y-128737367D01*
X168766270Y-128762411D01*
X168743818Y-128799230D01*
X168723831Y-128833623D01*
X168685236Y-128901700D01*
X168538276Y-128901700D01*
X168580008Y-128836649D01*
X168590678Y-128820028D01*
X168774201Y-128534176D01*
X168858736Y-128530748D01*
X168943271Y-128527320D01*
X168943492Y-128577417D01*
G37*
G36*
X172248279Y-126883234D02*
G01*
X172266612Y-126929904D01*
X172464970Y-126929904D01*
X172663328Y-126929904D01*
X172669359Y-126961989D01*
X172672792Y-126998808D01*
X172672112Y-127029077D01*
X172669024Y-127064359D01*
X172667008Y-127090331D01*
X172665771Y-127099769D01*
X172661406Y-127106621D01*
X172650664Y-127111301D01*
X172630295Y-127114223D01*
X172597050Y-127115801D01*
X172547680Y-127116449D01*
X172478934Y-127116582D01*
X172461002Y-127116583D01*
X172387529Y-127116699D01*
X172334179Y-127117292D01*
X172297738Y-127118730D01*
X172274994Y-127121379D01*
X172262735Y-127125606D01*
X172257749Y-127131779D01*
X172256821Y-127139917D01*
X172248903Y-127165317D01*
X172233487Y-127186587D01*
X172221910Y-127196086D01*
X172206695Y-127202611D01*
X172183604Y-127206708D01*
X172148402Y-127208924D01*
X172096855Y-127209806D01*
X172052641Y-127209922D01*
X171989427Y-127209790D01*
X171945848Y-127208987D01*
X171918205Y-127206901D01*
X171902798Y-127202922D01*
X171895927Y-127196438D01*
X171893893Y-127186839D01*
X171893695Y-127183670D01*
X171891068Y-127124853D01*
X171889214Y-127061647D01*
X171888181Y-126999383D01*
X171888017Y-126943395D01*
X171888767Y-126899015D01*
X171890479Y-126871574D01*
X171890929Y-126868650D01*
X171896985Y-126836564D01*
X172063466Y-126836564D01*
X172229947Y-126836564D01*
X172248279Y-126883234D01*
G37*
G36*
X169081146Y-125625669D02*
G01*
X169114161Y-125630614D01*
X169125135Y-125635664D01*
X169131475Y-125645764D01*
X169136051Y-125665969D01*
X169139101Y-125699325D01*
X169140862Y-125748872D01*
X169141572Y-125817655D01*
X169141617Y-125846261D01*
X169141617Y-126043179D01*
X169169689Y-126043179D01*
X169188510Y-126047324D01*
X169202408Y-126063383D01*
X169216027Y-126096790D01*
X169216359Y-126097761D01*
X169229107Y-126142116D01*
X169234512Y-126176579D01*
X169232379Y-126197233D01*
X169222513Y-126200160D01*
X169221438Y-126199545D01*
X169215325Y-126201696D01*
X169212554Y-126219559D01*
X169212985Y-126255727D01*
X169215840Y-126303864D01*
X169223760Y-126416537D01*
X169042679Y-126416537D01*
X168861599Y-126416537D01*
X168861599Y-126249167D01*
X168862059Y-126178072D01*
X168862089Y-126177354D01*
X169211622Y-126177354D01*
X169217455Y-126183188D01*
X169223289Y-126177354D01*
X169217455Y-126171521D01*
X169211622Y-126177354D01*
X168862089Y-126177354D01*
X168864222Y-126126604D01*
X168869259Y-126091062D01*
X168878340Y-126067743D01*
X168892638Y-126052947D01*
X168913324Y-126042971D01*
X168928414Y-126038025D01*
X168937845Y-126034331D01*
X168944733Y-126027612D01*
X168949551Y-126014490D01*
X168952770Y-125991584D01*
X168954865Y-125955516D01*
X168956307Y-125902907D01*
X168957569Y-125830378D01*
X168957583Y-125829548D01*
X168960772Y-125628985D01*
X169034712Y-125625485D01*
X169081146Y-125625669D01*
G37*
G36*
X170593736Y-127597864D02*
G01*
X170583415Y-127631352D01*
X170573252Y-127654656D01*
X170559080Y-127669806D01*
X170536735Y-127678831D01*
X170502051Y-127683760D01*
X170450861Y-127686625D01*
X170408146Y-127688287D01*
X170257332Y-127694121D01*
X170237236Y-127752369D01*
X170226874Y-127786716D01*
X170222034Y-127811805D01*
X170222602Y-127819456D01*
X170235945Y-127823382D01*
X170267025Y-127826412D01*
X170310248Y-127828097D01*
X170332384Y-127828296D01*
X170382125Y-127828710D01*
X170412979Y-127830598D01*
X170429387Y-127834931D01*
X170435792Y-127842678D01*
X170436702Y-127851082D01*
X170431889Y-127879124D01*
X170423339Y-127903196D01*
X170416048Y-127916541D01*
X170405641Y-127925247D01*
X170387370Y-127930499D01*
X170356486Y-127933480D01*
X170308240Y-127935375D01*
X170292453Y-127935830D01*
X170174929Y-127939137D01*
X170132830Y-128061645D01*
X170090730Y-128184153D01*
X170017223Y-128187665D01*
X169976823Y-128188675D01*
X169955474Y-128186268D01*
X169949040Y-128179635D01*
X169950087Y-128174575D01*
X169955533Y-128159198D01*
X169967366Y-128125036D01*
X169984450Y-128075393D01*
X170005648Y-128013574D01*
X170029827Y-127942884D01*
X170045533Y-127896878D01*
X170071391Y-127821270D01*
X170095376Y-127751478D01*
X170116256Y-127691065D01*
X170132799Y-127643590D01*
X170143770Y-127612615D01*
X170147062Y-127603698D01*
X170159515Y-127571612D01*
X170380567Y-127571612D01*
X170601619Y-127571612D01*
X170593736Y-127597864D01*
G37*
G36*
X171247589Y-128530897D02*
G01*
X171329261Y-128534176D01*
X171326622Y-128610014D01*
X171325404Y-128645969D01*
X171323614Y-128700016D01*
X171321425Y-128766923D01*
X171319006Y-128841458D01*
X171316597Y-128916284D01*
X171309210Y-129146716D01*
X171234646Y-129146716D01*
X171160083Y-129146716D01*
X171160083Y-129082545D01*
X171160083Y-129018374D01*
X171079982Y-129018374D01*
X170999882Y-129018374D01*
X170960391Y-129079628D01*
X170920900Y-129140882D01*
X170847979Y-129144356D01*
X170810225Y-129145349D01*
X170783875Y-129144505D01*
X170775058Y-129142295D01*
X170781036Y-129130711D01*
X170797011Y-129104476D01*
X170820041Y-129068358D01*
X170831158Y-129051316D01*
X170854606Y-129015279D01*
X170887688Y-128963988D01*
X170927546Y-128901899D01*
X170930546Y-128897209D01*
X171078411Y-128897209D01*
X171088751Y-128900063D01*
X171114478Y-128901609D01*
X171123495Y-128901700D01*
X171150968Y-128900594D01*
X171165181Y-128893161D01*
X171172125Y-128873226D01*
X171175998Y-128847568D01*
X171180681Y-128803654D01*
X171183192Y-128761064D01*
X171183331Y-128751312D01*
X171182773Y-128732391D01*
X171179739Y-128725292D01*
X171172036Y-128732087D01*
X171157474Y-128754846D01*
X171133861Y-128795643D01*
X171130828Y-128800952D01*
X171107724Y-128841863D01*
X171089819Y-128874447D01*
X171079720Y-128893919D01*
X171078411Y-128897209D01*
X170930546Y-128897209D01*
X170971321Y-128833466D01*
X171016154Y-128763145D01*
X171026587Y-128746745D01*
X171165917Y-128527618D01*
X171247589Y-128530897D01*
G37*
G36*
X171226883Y-130427448D02*
G01*
X171279910Y-130429514D01*
X171333368Y-130432296D01*
X171382228Y-130435541D01*
X171421464Y-130438997D01*
X171446048Y-130442410D01*
X171451853Y-130444718D01*
X171451822Y-130458989D01*
X171451797Y-130492099D01*
X171451778Y-130539551D01*
X171451769Y-130596851D01*
X171451769Y-130615671D01*
X171451769Y-130777874D01*
X171416766Y-130790075D01*
X171381764Y-130802277D01*
X171381764Y-130994055D01*
X171381673Y-131064945D01*
X171381069Y-131116152D01*
X171379452Y-131151328D01*
X171376325Y-131174124D01*
X171371188Y-131188192D01*
X171363543Y-131197184D01*
X171353006Y-131204676D01*
X171317090Y-131218628D01*
X171273557Y-131222924D01*
X171233136Y-131217304D01*
X171213396Y-131208052D01*
X171205229Y-131199929D01*
X171199526Y-131187001D01*
X171195905Y-131165536D01*
X171193984Y-131131800D01*
X171193380Y-131082060D01*
X171193685Y-131015652D01*
X171194039Y-130947332D01*
X171193492Y-130898270D01*
X171191570Y-130864392D01*
X171187800Y-130841626D01*
X171181705Y-130825899D01*
X171172813Y-130813137D01*
X171169667Y-130809437D01*
X171145918Y-130789054D01*
X171123633Y-130780170D01*
X171122977Y-130780156D01*
X171114777Y-130778509D01*
X171109002Y-130771270D01*
X171105232Y-130754995D01*
X171103046Y-130726238D01*
X171102025Y-130681555D01*
X171101749Y-130617501D01*
X171101746Y-130606000D01*
X171102033Y-130537965D01*
X171103138Y-130489831D01*
X171105426Y-130458171D01*
X171109260Y-130439554D01*
X171115007Y-130430552D01*
X171120667Y-130428072D01*
X171142234Y-130426474D01*
X171179315Y-130426350D01*
X171226883Y-130427448D01*
G37*
G36*
X170057767Y-127572367D02*
G01*
X170077651Y-127575640D01*
X170083424Y-127582945D01*
X170081242Y-127592030D01*
X170075276Y-127608734D01*
X170063031Y-127644022D01*
X170045715Y-127694380D01*
X170024534Y-127756292D01*
X170000698Y-127826241D01*
X169990683Y-127855704D01*
X169908057Y-128098959D01*
X169850477Y-128144472D01*
X169792898Y-128189986D01*
X169643306Y-128189986D01*
X169493714Y-128189986D01*
X169463509Y-128154089D01*
X169444210Y-128127799D01*
X169433859Y-128107163D01*
X169433303Y-128103742D01*
X169436886Y-128088957D01*
X169446935Y-128055390D01*
X169462397Y-128006347D01*
X169482221Y-127945136D01*
X169505353Y-127875065D01*
X169519300Y-127833369D01*
X169605297Y-127577446D01*
X169676810Y-127573973D01*
X169714153Y-127572885D01*
X169740031Y-127573520D01*
X169748324Y-127575402D01*
X169744737Y-127587431D01*
X169734728Y-127618153D01*
X169719424Y-127664182D01*
X169699953Y-127722131D01*
X169677443Y-127788613D01*
X169672485Y-127803194D01*
X169649300Y-127872471D01*
X169628977Y-127935367D01*
X169612673Y-127988120D01*
X169601545Y-128026972D01*
X169596749Y-128048165D01*
X169596647Y-128049697D01*
X169598789Y-128062116D01*
X169608553Y-128069223D01*
X169630946Y-128072468D01*
X169670974Y-128073304D01*
X169678050Y-128073312D01*
X169722226Y-128072414D01*
X169749362Y-128068606D01*
X169765720Y-128060222D01*
X169776615Y-128047060D01*
X169785783Y-128027851D01*
X169800747Y-127990559D01*
X169819978Y-127939255D01*
X169841946Y-127878012D01*
X169863178Y-127816629D01*
X169885746Y-127750441D01*
X169906170Y-127690934D01*
X169923095Y-127642022D01*
X169935166Y-127607622D01*
X169940872Y-127592030D01*
X169950703Y-127580110D01*
X169971530Y-127573803D01*
X170008888Y-127571666D01*
X170019171Y-127571612D01*
X170057767Y-127572367D01*
G37*
G36*
X170174442Y-128529097D02*
G01*
X170194326Y-128532370D01*
X170200099Y-128539674D01*
X170197917Y-128548760D01*
X170191951Y-128565463D01*
X170179705Y-128600752D01*
X170162389Y-128651110D01*
X170141209Y-128713021D01*
X170117372Y-128782970D01*
X170107357Y-128812433D01*
X170024731Y-129055688D01*
X169967152Y-129101202D01*
X169909572Y-129146716D01*
X169759980Y-129146716D01*
X169610389Y-129146716D01*
X169580183Y-129110818D01*
X169560885Y-129084528D01*
X169550534Y-129063892D01*
X169549977Y-129060471D01*
X169553561Y-129045687D01*
X169563609Y-129012119D01*
X169579072Y-128963077D01*
X169598895Y-128901866D01*
X169622028Y-128831795D01*
X169635974Y-128790098D01*
X169721972Y-128534176D01*
X169793485Y-128530702D01*
X169830827Y-128529615D01*
X169856705Y-128530250D01*
X169864998Y-128532132D01*
X169861411Y-128544161D01*
X169851402Y-128574883D01*
X169836098Y-128620912D01*
X169816628Y-128678860D01*
X169794117Y-128745342D01*
X169789160Y-128759923D01*
X169765974Y-128829201D01*
X169745651Y-128892096D01*
X169729347Y-128944849D01*
X169718219Y-128983702D01*
X169713424Y-129004895D01*
X169713321Y-129006426D01*
X169715463Y-129018846D01*
X169725228Y-129025952D01*
X169747620Y-129029197D01*
X169787649Y-129030034D01*
X169794724Y-129030042D01*
X169838900Y-129029143D01*
X169866036Y-129025336D01*
X169882394Y-129016951D01*
X169893289Y-129003790D01*
X169902457Y-128984581D01*
X169917421Y-128947288D01*
X169936652Y-128895985D01*
X169958620Y-128834742D01*
X169979852Y-128773358D01*
X170002420Y-128707171D01*
X170022844Y-128647663D01*
X170039769Y-128598751D01*
X170051840Y-128564352D01*
X170057547Y-128548760D01*
X170067378Y-128536839D01*
X170088205Y-128530532D01*
X170125562Y-128528396D01*
X170135845Y-128528342D01*
X170174442Y-128529097D01*
G37*
G36*
X169416862Y-128528486D02*
G01*
X169567478Y-128528631D01*
X169593730Y-128569159D01*
X169610241Y-128597122D01*
X169619355Y-128617364D01*
X169619982Y-128620729D01*
X169616395Y-128634795D01*
X169606418Y-128667282D01*
X169591226Y-128714536D01*
X169571994Y-128772904D01*
X169549895Y-128838732D01*
X169549700Y-128839307D01*
X169516943Y-128932473D01*
X169489312Y-129003393D01*
X169466876Y-129051906D01*
X169450164Y-129077379D01*
X169431143Y-129104121D01*
X169427726Y-129125649D01*
X169427896Y-129126119D01*
X169423495Y-129146695D01*
X169397325Y-129172950D01*
X169395072Y-129174689D01*
X169358700Y-129198021D01*
X169331988Y-129202895D01*
X169310393Y-129189369D01*
X169300200Y-129175884D01*
X169290141Y-129162521D01*
X169277778Y-129154017D01*
X169258069Y-129149279D01*
X169225975Y-129147211D01*
X169176453Y-129146721D01*
X169165835Y-129146716D01*
X169050583Y-129146716D01*
X169024553Y-129102963D01*
X168998523Y-129059210D01*
X169016866Y-129003790D01*
X169165036Y-129003790D01*
X169169657Y-129024272D01*
X169177406Y-129030042D01*
X169184873Y-129021117D01*
X169183428Y-129009624D01*
X169187132Y-128988732D01*
X169212088Y-128965413D01*
X169214727Y-128963594D01*
X169251782Y-128940081D01*
X169276205Y-128931138D01*
X169293732Y-128936940D01*
X169310099Y-128957663D01*
X169315562Y-128966684D01*
X169332412Y-128991267D01*
X169345129Y-129002807D01*
X169348062Y-129002497D01*
X169355741Y-128987512D01*
X169368384Y-128955218D01*
X169384326Y-128910682D01*
X169401901Y-128858968D01*
X169419447Y-128805143D01*
X169435299Y-128754271D01*
X169447791Y-128711419D01*
X169455260Y-128681652D01*
X169456638Y-128672068D01*
X169454957Y-128657339D01*
X169446364Y-128649226D01*
X169425533Y-128645771D01*
X169387139Y-128645018D01*
X169383029Y-128645016D01*
X169340259Y-128647306D01*
X169305501Y-128653281D01*
X169289225Y-128659784D01*
X169278555Y-128675677D01*
X169262938Y-128708924D01*
X169244171Y-128754545D01*
X169224053Y-128807555D01*
X169204383Y-128862972D01*
X169186959Y-128915812D01*
X169173582Y-128961095D01*
X169166049Y-128993835D01*
X169165036Y-129003790D01*
X169016866Y-129003790D01*
X169071049Y-128840085D01*
X169143574Y-128620960D01*
X169204910Y-128574651D01*
X169266246Y-128528342D01*
X169416862Y-128528486D01*
G37*
G36*
X169257594Y-126511916D02*
G01*
X169481018Y-126512071D01*
X169726630Y-126512370D01*
X169896890Y-126512638D01*
X171708065Y-126515710D01*
X171752012Y-126559656D01*
X171795958Y-126603603D01*
X171798894Y-128408944D01*
X171799280Y-128648886D01*
X171799613Y-128866598D01*
X171799879Y-129063188D01*
X171800068Y-129239761D01*
X171800167Y-129397424D01*
X171800163Y-129537282D01*
X171800045Y-129660441D01*
X171799801Y-129768008D01*
X171799417Y-129861089D01*
X171798882Y-129940789D01*
X171798184Y-130008215D01*
X171797311Y-130064473D01*
X171796250Y-130110669D01*
X171794989Y-130147908D01*
X171793516Y-130177298D01*
X171791819Y-130199943D01*
X171789885Y-130216951D01*
X171787703Y-130229426D01*
X171785261Y-130238476D01*
X171782545Y-130245206D01*
X171779544Y-130250722D01*
X171778583Y-130252312D01*
X171751684Y-130285286D01*
X171718619Y-130312710D01*
X171717309Y-130313522D01*
X171711901Y-130316611D01*
X171705553Y-130319412D01*
X171697158Y-130321939D01*
X171685606Y-130324208D01*
X171669789Y-130326230D01*
X171648598Y-130328022D01*
X171620924Y-130329595D01*
X171585658Y-130330965D01*
X171541692Y-130332144D01*
X171487917Y-130333148D01*
X171423224Y-130333990D01*
X171346504Y-130334684D01*
X171256648Y-130335243D01*
X171152548Y-130335682D01*
X171033095Y-130336015D01*
X170897180Y-130336255D01*
X170743694Y-130336417D01*
X170571528Y-130336515D01*
X170379575Y-130336561D01*
X170166724Y-130336571D01*
X169931868Y-130336558D01*
X169882499Y-130336554D01*
X168085714Y-130336401D01*
X168047360Y-130311841D01*
X168037820Y-130306313D01*
X168029152Y-130301797D01*
X168021314Y-130297207D01*
X168014265Y-130291455D01*
X168007963Y-130283454D01*
X168002366Y-130272117D01*
X167997433Y-130256357D01*
X167993123Y-130235086D01*
X167989393Y-130207217D01*
X167986203Y-130171664D01*
X167985603Y-130161782D01*
X168149885Y-130161782D01*
X169894166Y-130161782D01*
X171638448Y-130161782D01*
X171638448Y-128417501D01*
X171638448Y-126673220D01*
X169894166Y-126673220D01*
X168149885Y-126673220D01*
X168149885Y-128417501D01*
X168149885Y-130161782D01*
X167985603Y-130161782D01*
X167983510Y-130127339D01*
X167981273Y-130073155D01*
X167979450Y-130008025D01*
X167978000Y-129930862D01*
X167976882Y-129840578D01*
X167976053Y-129736087D01*
X167975472Y-129616300D01*
X167975098Y-129480132D01*
X167974889Y-129326495D01*
X167974803Y-129154302D01*
X167974799Y-128962465D01*
X167974835Y-128749898D01*
X167974870Y-128515514D01*
X167974874Y-128417501D01*
X167974874Y-128416541D01*
X167974878Y-128176649D01*
X167974899Y-127958986D01*
X167974951Y-127762445D01*
X167975048Y-127585920D01*
X167975205Y-127428306D01*
X167975435Y-127288495D01*
X167975753Y-127165382D01*
X167976172Y-127057861D01*
X167976706Y-126964825D01*
X167977371Y-126885168D01*
X167978179Y-126817785D01*
X167979145Y-126761568D01*
X167980282Y-126715411D01*
X167981606Y-126678209D01*
X167983130Y-126648856D01*
X167984868Y-126626244D01*
X167986834Y-126609268D01*
X167989042Y-126596822D01*
X167991506Y-126587799D01*
X167994241Y-126581094D01*
X167997261Y-126575600D01*
X167998312Y-126573880D01*
X168022643Y-126544731D01*
X168050831Y-126524068D01*
X168053732Y-126522762D01*
X168065215Y-126520878D01*
X168090529Y-126519186D01*
X168130370Y-126517680D01*
X168185435Y-126516358D01*
X168256420Y-126515215D01*
X168344022Y-126514247D01*
X168448937Y-126513452D01*
X168571862Y-126512824D01*
X168713494Y-126512360D01*
X168874529Y-126512057D01*
X169055663Y-126511910D01*
X169257594Y-126511916D01*
G37*
D11*
%TO.C,J3*%
X137440000Y-96740000D02*
X137440000Y-106860000D01*
X137440000Y-106860000D02*
X145560000Y-106860000D01*
X143450000Y-96440000D02*
X145860000Y-96440000D01*
X145560000Y-96740000D02*
X137440000Y-96740000D01*
X145560000Y-106860000D02*
X145560000Y-96740000D01*
X145860000Y-96440000D02*
X145860000Y-98850000D01*
%TO.C,D1*%
X148490000Y-106250000D02*
X148490000Y-109550000D01*
X148490000Y-106250000D02*
X154000000Y-106250000D01*
X148490000Y-109550000D02*
X154000000Y-109550000D01*
%TO.C,L1*%
X151190000Y-98740000D02*
X151190000Y-100290000D01*
X151190000Y-105860000D02*
X151190000Y-104310000D01*
X158160000Y-98740000D02*
X151190000Y-98740000D01*
X158160000Y-98740000D02*
X158160000Y-100290000D01*
X158160000Y-105860000D02*
X151190000Y-105860000D01*
X158160000Y-105860000D02*
X158160000Y-104310000D01*
%TO.C,R10*%
X159137742Y-124177500D02*
X159612258Y-124177500D01*
X159137742Y-125222500D02*
X159612258Y-125222500D01*
%TO.C,J5*%
X137440000Y-119340000D02*
X137440000Y-129460000D01*
X137440000Y-129460000D02*
X145560000Y-129460000D01*
X143450000Y-119040000D02*
X145860000Y-119040000D01*
X145560000Y-119340000D02*
X137440000Y-119340000D01*
X145560000Y-129460000D02*
X145560000Y-119340000D01*
X145860000Y-119040000D02*
X145860000Y-121450000D01*
%TO.C,R4*%
X166762742Y-111977500D02*
X167237258Y-111977500D01*
X166762742Y-113022500D02*
X167237258Y-113022500D01*
%TO.C,U2*%
X161562500Y-104990000D02*
X160762500Y-104990000D01*
X161562500Y-104990000D02*
X162362500Y-104990000D01*
X161562500Y-108110000D02*
X160762500Y-108110000D01*
X161562500Y-108110000D02*
X162362500Y-108110000D01*
X160262500Y-105040000D02*
X160022500Y-104710000D01*
X160502500Y-104710000D01*
X160262500Y-105040000D01*
G36*
X160262500Y-105040000D02*
G01*
X160022500Y-104710000D01*
X160502500Y-104710000D01*
X160262500Y-105040000D01*
G37*
%TO.C,R8*%
X147177500Y-99662742D02*
X147177500Y-100137258D01*
X148222500Y-99662742D02*
X148222500Y-100137258D01*
%TO.C,R11*%
X152062742Y-125077500D02*
X152537258Y-125077500D01*
X152062742Y-126122500D02*
X152537258Y-126122500D01*
%TO.C,Q4*%
X148887500Y-124140000D02*
X148237500Y-124140000D01*
X148887500Y-124140000D02*
X149537500Y-124140000D01*
X148887500Y-127260000D02*
X148237500Y-127260000D01*
X148887500Y-127260000D02*
X149537500Y-127260000D01*
X150290000Y-127540000D02*
X149810000Y-127540000D01*
X150050000Y-127210000D01*
X150290000Y-127540000D01*
G36*
X150290000Y-127540000D02*
G01*
X149810000Y-127540000D01*
X150050000Y-127210000D01*
X150290000Y-127540000D01*
G37*
%TO.C,C8*%
X161865580Y-110690000D02*
X161584420Y-110690000D01*
X161865580Y-111710000D02*
X161584420Y-111710000D01*
%TO.C,C3*%
X159590000Y-102965580D02*
X159590000Y-102684420D01*
X160610000Y-102965580D02*
X160610000Y-102684420D01*
%TO.C,C4*%
X159590000Y-99684420D02*
X159590000Y-99965580D01*
X160610000Y-99684420D02*
X160610000Y-99965580D01*
%TO.C,Y1*%
X155900000Y-116637500D02*
X159200000Y-116637500D01*
X159200000Y-116637500D02*
X159200000Y-112637500D01*
%TO.C,J2*%
X173805000Y-110950000D02*
X172105000Y-110950000D01*
X173805000Y-120290000D02*
X172105000Y-120290000D01*
%TO.C,U1*%
X161190000Y-102100000D02*
X161190000Y-101300000D01*
X161190000Y-102100000D02*
X161190000Y-102900000D01*
X164310000Y-102100000D02*
X164310000Y-101300000D01*
X164310000Y-102100000D02*
X164310000Y-102900000D01*
X164590000Y-101040000D02*
X164260000Y-100800000D01*
X164590000Y-100560000D01*
X164590000Y-101040000D01*
G36*
X164590000Y-101040000D02*
G01*
X164260000Y-100800000D01*
X164590000Y-100560000D01*
X164590000Y-101040000D01*
G37*
%TO.C,J1*%
X167170000Y-99450000D02*
X168500000Y-99450000D01*
X167170000Y-100780000D02*
X167170000Y-99450000D01*
X167170000Y-102050000D02*
X167170000Y-109730000D01*
X167170000Y-102050000D02*
X169830000Y-102050000D01*
X167170000Y-109730000D02*
X169830000Y-109730000D01*
X169830000Y-102050000D02*
X169830000Y-109730000D01*
%TO.C,Q2*%
X148862500Y-120690000D02*
X148212500Y-120690000D01*
X148862500Y-120690000D02*
X149512500Y-120690000D01*
X148862500Y-123810000D02*
X148212500Y-123810000D01*
X148862500Y-123810000D02*
X149512500Y-123810000D01*
X150265000Y-124090000D02*
X149785000Y-124090000D01*
X150025000Y-123760000D01*
X150265000Y-124090000D01*
G36*
X150265000Y-124090000D02*
G01*
X149785000Y-124090000D01*
X150025000Y-123760000D01*
X150265000Y-124090000D01*
G37*
%TO.C,R9*%
X147177500Y-113662742D02*
X147177500Y-114137258D01*
X148222500Y-113662742D02*
X148222500Y-114137258D01*
%TO.C,R5*%
X161462742Y-112177500D02*
X161937258Y-112177500D01*
X161462742Y-113222500D02*
X161937258Y-113222500D01*
%TO.C,R7*%
X159137742Y-122677500D02*
X159612258Y-122677500D01*
X159137742Y-123722500D02*
X159612258Y-123722500D01*
%TO.C,Q1*%
X155762500Y-120690000D02*
X155112500Y-120690000D01*
X155762500Y-120690000D02*
X156412500Y-120690000D01*
X155762500Y-123810000D02*
X155112500Y-123810000D01*
X155762500Y-123810000D02*
X156412500Y-123810000D01*
X157165000Y-124090000D02*
X156685000Y-124090000D01*
X156925000Y-123760000D01*
X157165000Y-124090000D01*
G36*
X157165000Y-124090000D02*
G01*
X156685000Y-124090000D01*
X156925000Y-123760000D01*
X157165000Y-124090000D01*
G37*
%TO.C,D2*%
X157915000Y-120765000D02*
X157915000Y-122235000D01*
X157915000Y-122235000D02*
X160200000Y-122235000D01*
X160200000Y-120765000D02*
X157915000Y-120765000D01*
%TO.C,J4*%
X137440000Y-108040000D02*
X137440000Y-118160000D01*
X137440000Y-118160000D02*
X145560000Y-118160000D01*
X143450000Y-107740000D02*
X145860000Y-107740000D01*
X145560000Y-108040000D02*
X137440000Y-108040000D01*
X145560000Y-118160000D02*
X145560000Y-108040000D01*
X145860000Y-107740000D02*
X145860000Y-110150000D01*
%TO.C,C5*%
X157440580Y-116977500D02*
X157159420Y-116977500D01*
X157440580Y-117997500D02*
X157159420Y-117997500D01*
%TO.C,C7*%
X163490000Y-111940580D02*
X163490000Y-111659420D01*
X164510000Y-111940580D02*
X164510000Y-111659420D01*
%TD*%
%LPC*%
D13*
%TO.C,C6*%
X162850000Y-109300000D03*
X160950000Y-109300000D03*
%TD*%
D14*
%TO.C,C2*%
X149200000Y-105300000D03*
X149200000Y-103400000D03*
%TD*%
D15*
%TO.C,C1*%
X156525000Y-111800000D03*
X158075000Y-111800000D03*
%TD*%
D16*
%TO.C,Q3*%
X156700000Y-126600000D03*
X156700000Y-124700000D03*
X154825000Y-125650000D03*
%TD*%
D17*
%TO.C,R3*%
X166175000Y-121300000D03*
X167825000Y-121300000D03*
%TD*%
D18*
%TO.C,U3*%
X161175000Y-114000000D03*
X161175000Y-114650000D03*
X161175000Y-115300000D03*
X161175000Y-115950000D03*
X161175000Y-116600000D03*
X161175000Y-117250000D03*
X161175000Y-117900000D03*
X161175000Y-118550000D03*
X161175000Y-119200000D03*
X161175000Y-119850000D03*
X166900000Y-119850000D03*
X166900000Y-119200000D03*
X166900000Y-118550000D03*
X166900000Y-117900000D03*
X166900000Y-117250000D03*
X166900000Y-116600000D03*
X166900000Y-115950000D03*
X166900000Y-115300000D03*
X166900000Y-114650000D03*
X166900000Y-114000000D03*
%TD*%
D17*
%TO.C,R6*%
X151475000Y-122300000D03*
X153125000Y-122300000D03*
%TD*%
D19*
%TO.C,R2*%
X158062500Y-106950000D03*
X156412500Y-106950000D03*
%TD*%
D17*
%TO.C,R1*%
X156412500Y-108450000D03*
X158062500Y-108450000D03*
%TD*%
D20*
%TO.C,J3*%
X144150000Y-99300000D03*
D21*
X144150000Y-101800000D03*
X144150000Y-104300000D03*
%TD*%
D22*
%TO.C,REF\u002A\u002A*%
X174200000Y-132300000D03*
%TD*%
D23*
%TO.C,D1*%
X150000000Y-107900000D03*
X154000000Y-107900000D03*
%TD*%
D24*
%TO.C,L1*%
X157700000Y-102300000D03*
X151650000Y-102300000D03*
%TD*%
D17*
%TO.C,R10*%
X158550000Y-124700000D03*
X160200000Y-124700000D03*
%TD*%
D20*
%TO.C,J5*%
X144150000Y-121900000D03*
D21*
X144150000Y-124400000D03*
X144150000Y-126900000D03*
%TD*%
D22*
%TO.C,REF\u002A\u002A*%
X142500000Y-132300000D03*
%TD*%
D17*
%TO.C,R4*%
X166175000Y-112500000D03*
X167825000Y-112500000D03*
%TD*%
D25*
%TO.C,U2*%
X160425000Y-105600000D03*
X160425000Y-106550000D03*
X160425000Y-107500000D03*
X162700000Y-107500000D03*
X162700000Y-106550000D03*
X162700000Y-105600000D03*
%TD*%
D26*
%TO.C,R8*%
X147700000Y-99075000D03*
X147700000Y-100725000D03*
%TD*%
D17*
%TO.C,R11*%
X151475000Y-125600000D03*
X153125000Y-125600000D03*
%TD*%
D16*
%TO.C,Q4*%
X149825000Y-126650000D03*
X149825000Y-124750000D03*
X147950000Y-125700000D03*
%TD*%
D22*
%TO.C,REF\u002A\u002A*%
X142500000Y-93900000D03*
%TD*%
D27*
%TO.C,C8*%
X162500000Y-111200000D03*
X160950000Y-111200000D03*
%TD*%
D28*
%TO.C,C3*%
X160100000Y-103600000D03*
X160100000Y-102050000D03*
%TD*%
D29*
%TO.C,C4*%
X160100000Y-99050000D03*
X160100000Y-100600000D03*
%TD*%
D30*
%TO.C,Y1*%
X158400000Y-115737500D03*
X158400000Y-113537500D03*
X156700000Y-113537500D03*
X156700000Y-115737500D03*
%TD*%
D22*
%TO.C,REF\u002A\u002A*%
X174200000Y-93900000D03*
%TD*%
D31*
%TO.C,J2*%
X171300000Y-118510000D03*
X171300000Y-112730000D03*
D32*
X170225000Y-118820000D03*
X170225000Y-118020000D03*
D33*
X170225000Y-116870000D03*
X170225000Y-115870000D03*
X170225000Y-115370000D03*
X170225000Y-114370000D03*
D32*
X170225000Y-113220000D03*
X170225000Y-112420000D03*
X170225000Y-112420000D03*
X170225000Y-113220000D03*
D33*
X170225000Y-113870000D03*
X170225000Y-114870000D03*
X170225000Y-116370000D03*
X170225000Y-117370000D03*
D32*
X170225000Y-118020000D03*
X170225000Y-118820000D03*
D34*
X170800000Y-119940000D03*
D35*
X174980000Y-119940000D03*
D34*
X170800000Y-111300000D03*
D35*
X174980000Y-111300000D03*
%TD*%
D36*
%TO.C,U1*%
X163700000Y-100962500D03*
X161800000Y-100962500D03*
X162750000Y-103237500D03*
%TD*%
D37*
%TO.C,J1*%
X168500000Y-100780000D03*
D38*
X168500000Y-103320000D03*
X168500000Y-105860000D03*
X168500000Y-108400000D03*
%TD*%
D16*
%TO.C,Q2*%
X149800000Y-123200000D03*
X149800000Y-121300000D03*
X147925000Y-122250000D03*
%TD*%
D26*
%TO.C,R9*%
X147700000Y-113075000D03*
X147700000Y-114725000D03*
%TD*%
D17*
%TO.C,R5*%
X160875000Y-112700000D03*
X162525000Y-112700000D03*
%TD*%
%TO.C,R7*%
X158550000Y-123200000D03*
X160200000Y-123200000D03*
%TD*%
D16*
%TO.C,Q1*%
X156700000Y-123200000D03*
X156700000Y-121300000D03*
X154825000Y-122250000D03*
%TD*%
D39*
%TO.C,D2*%
X158612500Y-121500000D03*
X160187500Y-121500000D03*
%TD*%
D20*
%TO.C,J4*%
X144150000Y-110600000D03*
D21*
X144150000Y-113100000D03*
X144150000Y-115600000D03*
%TD*%
D27*
%TO.C,C5*%
X158075000Y-117487500D03*
X156525000Y-117487500D03*
%TD*%
D28*
%TO.C,C7*%
X164000000Y-112575000D03*
X164000000Y-111025000D03*
%TD*%
%LPD*%
M02*
