%TF.GenerationSoftware,KiCad,Pcbnew,8.0.8*%
%TF.CreationDate,2025-05-15T08:13:23+09:00*%
%TF.ProjectId,fsk-traffic,66736b2d-7472-4616-9666-69632e6b6963,rev?*%
%TF.SameCoordinates,Original*%
%TF.FileFunction,Copper,L2,Bot*%
%TF.FilePolarity,Positive*%
%FSLAX46Y46*%
G04 Gerber Fmt 4.6, Leading zero omitted, Abs format (unit mm)*
G04 Created by KiCad (PCBNEW 8.0.8) date 2025-05-15 08:13:23*
%MOMM*%
%LPD*%
G01*
G04 APERTURE LIST*
G04 Aperture macros list*
%AMRoundRect*
0 Rectangle with rounded corners*
0 $1 Rounding radius*
0 $2 $3 $4 $5 $6 $7 $8 $9 X,Y pos of 4 corners*
0 Add a 4 corners polygon primitive as box body*
4,1,4,$2,$3,$4,$5,$6,$7,$8,$9,$2,$3,0*
0 Add four circle primitives for the rounded corners*
1,1,$1+$1,$2,$3*
1,1,$1+$1,$4,$5*
1,1,$1+$1,$6,$7*
1,1,$1+$1,$8,$9*
0 Add four rect primitives between the rounded corners*
20,1,$1+$1,$2,$3,$4,$5,0*
20,1,$1+$1,$4,$5,$6,$7,0*
20,1,$1+$1,$6,$7,$8,$9,0*
20,1,$1+$1,$8,$9,$2,$3,0*%
G04 Aperture macros list end*
%TA.AperFunction,ComponentPad*%
%ADD10RoundRect,0.250000X-0.675000X0.600000X-0.675000X-0.600000X0.675000X-0.600000X0.675000X0.600000X0*%
%TD*%
%TA.AperFunction,ComponentPad*%
%ADD11O,1.850000X1.700000*%
%TD*%
%TA.AperFunction,HeatsinkPad*%
%ADD12O,2.100000X1.000000*%
%TD*%
%TA.AperFunction,HeatsinkPad*%
%ADD13O,1.800000X1.000000*%
%TD*%
%TA.AperFunction,ComponentPad*%
%ADD14R,1.700000X1.700000*%
%TD*%
%TA.AperFunction,ComponentPad*%
%ADD15O,1.700000X1.700000*%
%TD*%
%TA.AperFunction,ViaPad*%
%ADD16C,0.600000*%
%TD*%
%TA.AperFunction,Conductor*%
%ADD17C,0.200000*%
%TD*%
%TA.AperFunction,Conductor*%
%ADD18C,0.400000*%
%TD*%
%TA.AperFunction,Conductor*%
%ADD19C,0.300000*%
%TD*%
G04 APERTURE END LIST*
D10*
%TO.P,J3,1,Pin_1*%
%TO.N,18V*%
X144150000Y-99300000D03*
D11*
%TO.P,J3,2,Pin_2*%
%TO.N,SENS1*%
X144150000Y-101800000D03*
%TO.P,J3,3,Pin_3*%
%TO.N,GND*%
X144150000Y-104300000D03*
%TD*%
D10*
%TO.P,J5,1,Pin_1*%
%TO.N,GREEN*%
X144150000Y-121900000D03*
D11*
%TO.P,J5,2,Pin_2*%
%TO.N,RED*%
X144150000Y-124400000D03*
%TO.P,J5,3,Pin_3*%
%TO.N,GND*%
X144150000Y-126900000D03*
%TD*%
D12*
%TO.P,J2,S1,SHIELD*%
%TO.N,GND*%
X170800000Y-119940000D03*
D13*
X174980000Y-119940000D03*
D12*
X170800000Y-111300000D03*
D13*
X174980000Y-111300000D03*
%TD*%
D14*
%TO.P,J1,1,Pin_1*%
%TO.N,+3V3*%
X168500000Y-100780000D03*
D15*
%TO.P,J1,2,Pin_2*%
%TO.N,SWDIO*%
X168500000Y-103320000D03*
%TO.P,J1,3,Pin_3*%
%TO.N,SWCLK*%
X168500000Y-105860000D03*
%TO.P,J1,4,Pin_4*%
%TO.N,GND*%
X168500000Y-108400000D03*
%TD*%
D10*
%TO.P,J4,1,Pin_1*%
%TO.N,18V*%
X144150000Y-110600000D03*
D11*
%TO.P,J4,2,Pin_2*%
%TO.N,SENS2*%
X144150000Y-113100000D03*
%TO.P,J4,3,Pin_3*%
%TO.N,GND*%
X144150000Y-115600000D03*
%TD*%
D16*
%TO.N,SENS1*%
X149800000Y-115400000D03*
%TO.N,GND*%
X154600000Y-116700000D03*
X152000000Y-123900000D03*
X166500000Y-111400000D03*
%TO.N,+5V*%
X167700000Y-110400000D03*
X164000000Y-109100000D03*
%TD*%
D17*
%TO.N,SENS1*%
X146900000Y-104550000D02*
X144150000Y-101800000D01*
X149800000Y-115400000D02*
X146900000Y-112500000D01*
X146900000Y-112500000D02*
X146900000Y-104550000D01*
D18*
%TO.N,GND*%
X144150000Y-126900000D02*
X149000000Y-126900000D01*
X149000000Y-126900000D02*
X152000000Y-123900000D01*
X142200000Y-124950000D02*
X144150000Y-126900000D01*
D17*
X166500000Y-111400000D02*
X166600000Y-111300000D01*
D18*
X145250000Y-116700000D02*
X154600000Y-116700000D01*
X142200000Y-117550000D02*
X142200000Y-124950000D01*
X144150000Y-115600000D02*
X142200000Y-117550000D01*
X144150000Y-104300000D02*
X142200000Y-106250000D01*
X166600000Y-111300000D02*
X170800000Y-111300000D01*
X142200000Y-106250000D02*
X142200000Y-113650000D01*
X144150000Y-115600000D02*
X145250000Y-116700000D01*
X142200000Y-113650000D02*
X144150000Y-115600000D01*
D19*
%TO.N,+5V*%
X166400000Y-109100000D02*
X164000000Y-109100000D01*
X167700000Y-110400000D02*
X166400000Y-109100000D01*
%TD*%
M02*
