%TF.GenerationSoftware,KiCad,Pcbnew,9.0.6*%
%TF.CreationDate,2025-12-26T10:16:46+09:00*%
%TF.ProjectId,fsk-traffic,66736b2d-7472-4616-9666-69632e6b6963,rev?*%
%TF.SameCoordinates,Original*%
%TF.FileFunction,Soldermask,Top*%
%TF.FilePolarity,Negative*%
%FSLAX46Y46*%
G04 Gerber Fmt 4.6, Leading zero omitted, Abs format (unit mm)*
G04 Created by KiCad (PCBNEW 9.0.6) date 2025-12-26 10:16:46*
%MOMM*%
%LPD*%
G01*
G04 APERTURE LIST*
G04 Aperture macros list*
%AMRoundRect*
0 Rectangle with rounded corners*
0 $1 Rounding radius*
0 $2 $3 $4 $5 $6 $7 $8 $9 X,Y pos of 4 corners*
0 Add a 4 corners polygon primitive as box body*
4,1,4,$2,$3,$4,$5,$6,$7,$8,$9,$2,$3,0*
0 Add four circle primitives for the rounded corners*
1,1,$1+$1,$2,$3*
1,1,$1+$1,$4,$5*
1,1,$1+$1,$6,$7*
1,1,$1+$1,$8,$9*
0 Add four rect primitives between the rounded corners*
20,1,$1+$1,$2,$3,$4,$5,0*
20,1,$1+$1,$4,$5,$6,$7,0*
20,1,$1+$1,$6,$7,$8,$9,0*
20,1,$1+$1,$8,$9,$2,$3,0*%
G04 Aperture macros list end*
%ADD10RoundRect,0.250001X-1.099999X-1.599999X1.099999X-1.599999X1.099999X1.599999X-1.099999X1.599999X0*%
%ADD11O,2.700000X3.700000*%
%ADD12RoundRect,0.225000X-0.225000X-0.250000X0.225000X-0.250000X0.225000X0.250000X-0.225000X0.250000X0*%
%ADD13RoundRect,0.225000X-0.250000X0.225000X-0.250000X-0.225000X0.250000X-0.225000X0.250000X0.225000X0*%
%ADD14RoundRect,0.200000X-0.275000X0.200000X-0.275000X-0.200000X0.275000X-0.200000X0.275000X0.200000X0*%
%ADD15RoundRect,0.150000X0.150000X-0.587500X0.150000X0.587500X-0.150000X0.587500X-0.150000X-0.587500X0*%
%ADD16RoundRect,0.150000X-0.150000X0.512500X-0.150000X-0.512500X0.150000X-0.512500X0.150000X0.512500X0*%
%ADD17RoundRect,0.100000X-0.100000X0.637500X-0.100000X-0.637500X0.100000X-0.637500X0.100000X0.637500X0*%
%ADD18RoundRect,0.200000X-0.200000X-0.275000X0.200000X-0.275000X0.200000X0.275000X-0.200000X0.275000X0*%
%ADD19RoundRect,0.200000X0.200000X0.275000X-0.200000X0.275000X-0.200000X-0.275000X0.200000X-0.275000X0*%
%ADD20RoundRect,0.225000X0.250000X-0.225000X0.250000X0.225000X-0.250000X0.225000X-0.250000X-0.225000X0*%
%ADD21RoundRect,0.250000X0.475000X-0.250000X0.475000X0.250000X-0.475000X0.250000X-0.475000X-0.250000X0*%
%ADD22RoundRect,0.250000X0.250000X0.475000X-0.250000X0.475000X-0.250000X-0.475000X0.250000X-0.475000X0*%
%ADD23RoundRect,0.250000X1.500000X-0.925000X1.500000X0.925000X-1.500000X0.925000X-1.500000X-0.925000X0*%
%ADD24C,0.800000*%
%ADD25C,6.400000*%
%ADD26RoundRect,0.249999X-0.640001X0.750001X-0.640001X-0.750001X0.640001X-0.750001X0.640001X0.750001X0*%
%ADD27R,1.400000X1.200000*%
%ADD28RoundRect,0.250000X-0.650000X1.000000X-0.650000X-1.000000X0.650000X-1.000000X0.650000X1.000000X0*%
%ADD29RoundRect,0.150000X-0.150000X-0.425000X0.150000X-0.425000X0.150000X0.425000X-0.150000X0.425000X0*%
%ADD30RoundRect,0.075000X-0.075000X-0.500000X0.075000X-0.500000X0.075000X0.500000X-0.075000X0.500000X0*%
%ADD31O,1.000000X2.100000*%
%ADD32O,1.000000X1.800000*%
%ADD33R,1.700000X1.700000*%
%ADD34O,1.700000X1.700000*%
%ADD35RoundRect,0.200000X0.275000X-0.200000X0.275000X0.200000X-0.275000X0.200000X-0.275000X-0.200000X0*%
%ADD36RoundRect,0.218750X-0.218750X-0.256250X0.218750X-0.256250X0.218750X0.256250X-0.218750X0.256250X0*%
G04 APERTURE END LIST*
D10*
%TO.C,J5*%
X121000000Y-88600000D03*
D11*
X125200000Y-88600000D03*
X121000000Y-94100000D03*
X125200000Y-94100000D03*
%TD*%
D12*
%TO.C,C9*%
X139750000Y-104650000D03*
X141300000Y-104650000D03*
%TD*%
D13*
%TO.C,C1*%
X149937500Y-100875000D03*
X149937500Y-102425000D03*
%TD*%
D14*
%TO.C,R15*%
X159800000Y-88725000D03*
X159800000Y-90375000D03*
%TD*%
D15*
%TO.C,Q3*%
X120803080Y-108978080D03*
X122703080Y-108978080D03*
X121753080Y-107103080D03*
%TD*%
D14*
%TO.C,R3*%
X142484420Y-115459420D03*
X142484420Y-117109420D03*
%TD*%
D16*
%TO.C,U1*%
X149859420Y-113069420D03*
X147959420Y-113069420D03*
X148909420Y-115344420D03*
%TD*%
D17*
%TO.C,U3*%
X146509420Y-106569420D03*
X145859420Y-106569420D03*
X145209420Y-106569420D03*
X144559420Y-106569420D03*
X143909420Y-106569420D03*
X143259420Y-106569420D03*
X142609420Y-106569420D03*
X141959420Y-106569420D03*
X141309420Y-106569420D03*
X140659420Y-106569420D03*
X140659420Y-112294420D03*
X141309420Y-112294420D03*
X141959420Y-112294420D03*
X142609420Y-112294420D03*
X143259420Y-112294420D03*
X143909420Y-112294420D03*
X144559420Y-112294420D03*
X145209420Y-112294420D03*
X145859420Y-112294420D03*
X146509420Y-112294420D03*
%TD*%
D18*
%TO.C,R13*%
X120125000Y-104850000D03*
X121775000Y-104850000D03*
%TD*%
D19*
%TO.C,R11*%
X121775000Y-103250000D03*
X120125000Y-103250000D03*
%TD*%
D20*
%TO.C,C3*%
X151584420Y-115319420D03*
X151584420Y-113769420D03*
%TD*%
D21*
%TO.C,C2*%
X161695000Y-103915000D03*
X161695000Y-102015000D03*
%TD*%
D22*
%TO.C,C6*%
X158645000Y-113950000D03*
X156745000Y-113950000D03*
%TD*%
D18*
%TO.C,R10*%
X122328080Y-111103080D03*
X123978080Y-111103080D03*
%TD*%
D14*
%TO.C,R16*%
X138700000Y-88725000D03*
X138700000Y-90375000D03*
%TD*%
D18*
%TO.C,R6*%
X124262500Y-103262500D03*
X125912500Y-103262500D03*
%TD*%
D23*
%TO.C,L1*%
X165595000Y-113550000D03*
X165595000Y-107500000D03*
%TD*%
D14*
%TO.C,R4*%
X145284420Y-115459420D03*
X145284420Y-117109420D03*
%TD*%
D12*
%TO.C,C4*%
X147934420Y-111144420D03*
X149484420Y-111144420D03*
%TD*%
D24*
%TO.C,REF\u002A\u002A*%
X108700000Y-83500000D03*
X110397056Y-84202944D03*
X107002944Y-84202944D03*
X111100000Y-85900000D03*
D25*
X108700000Y-85900000D03*
D24*
X106300000Y-85900000D03*
X110397056Y-87597056D03*
X107002944Y-87597056D03*
X108700000Y-88300000D03*
%TD*%
D18*
%TO.C,R14*%
X137275000Y-106550000D03*
X138925000Y-106550000D03*
%TD*%
D16*
%TO.C,U2*%
X160595000Y-109375000D03*
X159645000Y-109375000D03*
X158695000Y-109375000D03*
X158695000Y-111650000D03*
X159645000Y-111650000D03*
X160595000Y-111650000D03*
%TD*%
D18*
%TO.C,R12*%
X124253080Y-104862500D03*
X125903080Y-104862500D03*
%TD*%
D10*
%TO.C,J4*%
X142100000Y-88600000D03*
D11*
X146300000Y-88600000D03*
X142100000Y-94100000D03*
X146300000Y-94100000D03*
%TD*%
D20*
%TO.C,C8*%
X149400000Y-107875000D03*
X149400000Y-106325000D03*
%TD*%
D26*
%TO.C,U4*%
X156670000Y-90835000D03*
X154130000Y-90835000D03*
X154130000Y-100365000D03*
X156670000Y-100365000D03*
%TD*%
D27*
%TO.C,Y1*%
X146000000Y-102750000D03*
X148200000Y-102750000D03*
X148200000Y-101050000D03*
X146000000Y-101050000D03*
%TD*%
D26*
%TO.C,U5*%
X135570000Y-90835000D03*
X133030000Y-90835000D03*
X133030000Y-100365000D03*
X135570000Y-100365000D03*
%TD*%
D10*
%TO.C,J3*%
X163195000Y-88600000D03*
D11*
X167395000Y-88600000D03*
X163195000Y-94100000D03*
X167395000Y-94100000D03*
%TD*%
D28*
%TO.C,D1*%
X165595000Y-100250000D03*
X165595000Y-104250000D03*
%TD*%
D15*
%TO.C,Q2*%
X120050000Y-100875000D03*
X121950000Y-100875000D03*
X121000000Y-99000000D03*
%TD*%
D24*
%TO.C,REF\u002A\u002A*%
X179700000Y-83500000D03*
X181397056Y-84202944D03*
X178002944Y-84202944D03*
X182100000Y-85900000D03*
D25*
X179700000Y-85900000D03*
D24*
X177300000Y-85900000D03*
X181397056Y-87597056D03*
X178002944Y-87597056D03*
X179700000Y-88300000D03*
%TD*%
%TO.C,REF\u002A\u002A*%
X111100000Y-119400000D03*
X110397056Y-121097056D03*
X110397056Y-117702944D03*
X108700000Y-121800000D03*
D25*
X108700000Y-119400000D03*
D24*
X108700000Y-117000000D03*
X107002944Y-121097056D03*
X107002944Y-117702944D03*
X106300000Y-119400000D03*
%TD*%
D29*
%TO.C,J2*%
X140384420Y-119079420D03*
X141184420Y-119079420D03*
D30*
X142334420Y-119079420D03*
X143334420Y-119079420D03*
X143834420Y-119079420D03*
X144834420Y-119079420D03*
D29*
X145984420Y-119079420D03*
X146784420Y-119079420D03*
X146784420Y-119079420D03*
X145984420Y-119079420D03*
D30*
X145334420Y-119079420D03*
X144334420Y-119079420D03*
X142834420Y-119079420D03*
X141834420Y-119079420D03*
D29*
X141184420Y-119079420D03*
X140384420Y-119079420D03*
D31*
X139264420Y-119654420D03*
D32*
X139264420Y-123834420D03*
D31*
X147904420Y-119654420D03*
D32*
X147904420Y-123834420D03*
%TD*%
D33*
%TO.C,J1*%
X162464420Y-120284420D03*
D34*
X159924420Y-120284420D03*
X157384420Y-120284420D03*
X154844420Y-120284420D03*
%TD*%
D15*
%TO.C,Q4*%
X124237500Y-100887500D03*
X126137500Y-100887500D03*
X125187500Y-99012500D03*
%TD*%
D18*
%TO.C,R2*%
X158595000Y-107375000D03*
X160245000Y-107375000D03*
%TD*%
D35*
%TO.C,R9*%
X138650000Y-102475000D03*
X138650000Y-100825000D03*
%TD*%
D19*
%TO.C,R8*%
X142125000Y-102400000D03*
X140475000Y-102400000D03*
%TD*%
D14*
%TO.C,R5*%
X147900000Y-106250000D03*
X147900000Y-107900000D03*
%TD*%
D18*
%TO.C,R7*%
X126665580Y-111115580D03*
X128315580Y-111115580D03*
%TD*%
D15*
%TO.C,Q1*%
X124940580Y-108990580D03*
X126840580Y-108990580D03*
X125890580Y-107115580D03*
%TD*%
D36*
%TO.C,D2*%
X133862500Y-106550000D03*
X135437500Y-106550000D03*
%TD*%
D20*
%TO.C,C5*%
X144250000Y-102425000D03*
X144250000Y-100875000D03*
%TD*%
D14*
%TO.C,R1*%
X158695000Y-104000000D03*
X158695000Y-105650000D03*
%TD*%
D12*
%TO.C,C10*%
X142750000Y-104650000D03*
X144300000Y-104650000D03*
%TD*%
D24*
%TO.C,REF\u002A\u002A*%
X179700000Y-117000000D03*
X181397056Y-117702944D03*
X178002944Y-117702944D03*
X182100000Y-119400000D03*
D25*
X179700000Y-119400000D03*
D24*
X177300000Y-119400000D03*
X181397056Y-121097056D03*
X178002944Y-121097056D03*
X179700000Y-121800000D03*
%TD*%
D12*
%TO.C,C7*%
X147934420Y-109394420D03*
X149484420Y-109394420D03*
%TD*%
M02*
