M48
; DRILL file {KiCad 8.0.8} date 2025-05-15T08:13:23+0900
; FORMAT={-:-/ absolute / inch / decimal}
; #@! TF.CreationDate,2025-05-15T08:13:23+09:00
; #@! TF.GenerationSoftware,Kicad,Pcbnew,8.0.8
; #@! TF.FileFunction,Plated,1,2,PTH
FMAT,2
INCH
; #@! TA.AperFunction,Plated,PTH,ViaDrill
T1C0.0118
; #@! TA.AperFunction,Plated,PTH,ComponentDrill
T2C0.0236
; #@! TA.AperFunction,Plated,PTH,ComponentDrill
T3C0.0335
; #@! TA.AperFunction,Plated,PTH,ComponentDrill
T4C0.0394
%
G90
G05
T1
X5.8976Y-4.5433
X5.9843Y-4.878
X6.0866Y-4.5945
X6.4567Y-4.2953
X6.5551Y-4.3858
X6.6024Y-4.3465
T3
X5.6752Y-3.9094
X5.6752Y-4.0079
X5.6752Y-4.1063
X5.6752Y-4.3543
X5.6752Y-4.4528
X5.6752Y-4.5512
X5.6752Y-4.7992
X5.6752Y-4.8976
X5.6752Y-4.9961
T4
X6.6339Y-3.9677
X6.6339Y-4.0677
X6.6339Y-4.1677
X6.6339Y-4.2677
T2
G00X6.7028Y-4.3819
M15
G01X6.7461Y-4.3819
M16
G05
G00X6.7028Y-4.722
M15
G01X6.7461Y-4.722
M16
G05
G00X6.8732Y-4.3819
M15
G01X6.9047Y-4.3819
M16
G05
G00X6.8732Y-4.722
M15
G01X6.9047Y-4.722
M16
G05
M30
